<?xml version="1.0" encoding="utf-8"?>
<!-- Generator: Adobe Illustrator 22.1.0, SVG Export Plug-In . SVG Version: 6.00 Build 0)  -->
<svg version="1.1" id="Layer_1" xmlns="http://www.w3.org/2000/svg" xmlns:xlink="http://www.w3.org/1999/xlink" x="0px" y="0px"
	 width="2048px" height="911px" viewBox="0 0 2048 911" enable-background="new 0 0 2048 911" xml:space="preserve">
<g>
	<path fill="#7E7E7E" d="M2048,106c0,268.3,0,536.7,0,805c-682.7,0-1365.3,0-2048,0c0-2.7,0-5.3,0-8c9.7,0,19.5,0,29.2-0.1
		c0.8,0,1.7-0.1,2.5-0.2c8-0.6,16-1.2,24-1.7c0.9-0.1,1.9,0.5,2.9,0.6c3.6,0.4,7.2,1.1,10.7,0.9c5.6-0.2,11.1-1.1,16.7-1.5
		c6.4-0.5,12.9-0.9,19.3-1c3.4-0.1,7.1-0.1,10.3,0.9c10.1,3,20.3,3.2,30.5,1.3c8.7-1.7,17.2-4.6,25.8-6.4c3.3-0.7,7,0.4,10.5,0.6
		c1.6,0.1,3.3,0.6,4.7,0.2c7.3-2.1,14.2-5.9,22.3-4.9c4.2,0.5,8.5,0.6,12.8,1c2.5,0.2,5.1,0.3,7.4,1.2c6.6,2.7,13.4,0.9,18.3-4
		c3.3-3.3,7.4-6.6,11.7-7.7c7.8-1.9,15.9-2.7,23.9-2.9c9-0.2,12.5-2.8,12.5-11.6c0-1,0.1-2,0-3c-0.4-4.3,2.2-7.2,5.8-7.4
		c7-0.2,14.2,0,21.1,1.3c8,1.4,15.7,4.1,23.5,6.3c2.2,1.9,4.3,4.9,7.1,5.7c5,1.4,10.4,1.6,15.7,2c0.9,0.1,2.5-1.1,2.7-2
		c1.6-7,6.7-10.1,12.9-11.7c9.6-2.4,15.3-9.7,19.5-17.3c4.8-8.7,12.8-11.5,20.8-14.5c2.8-1,4.9-1.6,6.5-4.2c4.7-7.7,6.6-8,13.7-2.4
		c1.4,1.1,2.6,2.6,3.8,4c3.5,4,7.7,5.1,13,4.2c4-0.7,8.3-0.9,12.4-0.6c3,0.2,6.4,0.8,8.7,2.5c4.4,3.2,7.7,7.5,8.2,13.5
		c0.3,3,1.5,6.3,3.3,8.7c4.6,6.2,5,13,4.8,20.3c-0.2,8,1.2,15.9,5.5,22.8c1.2,1.9,3.8,3.4,6,4c4.6,1.1,9.4,1.5,14.2,2
		c5,0.5,10,1.3,15,1c6-0.4,12-2.6,18-2.6c6.2,0,12.3,2.4,18.6,2.6c11.2,0.4,22.5,0.3,33.7-0.1c8.3-0.3,16.5-1.5,24.7-2.4
		c6.2-0.6,11.5-3.2,13.4-9.4c1.5-5,2.4-10.3,2.6-15.5c0.4-11.7,0.1-23.3,0.1-35c0-8.2,5.1-13.5,13.2-13.3c6.8,0.1,13.7,0.7,20.5,1
		c6.7,0.3,13.4,0.1,20.1,0.9c5.2,0.6,12-3.6,12.2-8.7c0.4-6.2,0.6-12.5,0.8-18.7c0.2-6.2,2.4-8.3,8.6-7.4c2,0.3,3.9,0.9,5.8,1.5
		c8,2.4,16,4.5,23.7-0.7c0.2-0.2,0.5-0.3,0.7-0.5c0-13.8,3.9-19.4,16.6-23.6c9.6-3.2,15.3-15.2,10.9-24.7c-1.7-3.8-0.4-5.6,1.8-7.3
		c3.9-3,7.5-5.3,13.5-5.3c14.8,0.2,29.7-1.3,44.5-2.6c8.2-0.7,12.6-7,12.1-15.1c-0.5-7.4-2.2-15.2-0.7-22.1
		c2.1-9.3-1.4-16.5-5.1-23.9c-0.6-1.3-4-2.2-5.7-1.8c-4,1-7.4,1.5-11.4-0.6c-2.3-1.2-5.8-1-8.6-0.6c-7.6,1.2-15.1,3.6-22.7,4
		c-7.3,0.4-14.7-1.6-22.1-1.7c-4.8-0.1-9-0.6-11.7-4.8c-4.5-6.9-11.9-6.6-17.1-7.9c-3.8,4-6.4,8.4-10.2,10.2c-8,3.7-16.7,3.7-25.3,1
		c-2.9-0.9-6.4-1.1-8.6-2.9c-4.3-3.4-9.1-4.5-14.1-4.7c-12.6-0.4-23.4,6-34.9,9.8c-0.4,0.1-1,0.5-1.1,0.9c-1.2,5.7-4,11.7-3.2,17.1
		c1.3,9.7-3.9,18.5-13.8,20.3c-5.1,0.9-10.1,2.4-15.1,4c-5.3,1.7-10.5,5-15.8,5.3c-9.5,0.5-19.2,0.1-28.6-1.6
		c-10.1-1.8-21.3-2.6-27.3-13.4c-0.2-0.3-0.9-0.7-1.3-0.6c-6,1.6-13,0.1-17.7,5.9c-2.6,3.2-5.2,6.6-8.4,9.2
		c-9.6,7.7-20.9,12.1-32.4,16.2c-1.1,0.4-2.2,0.8-3.4,0.9c-8.7,0.7-17.5,1.2-26.2,2.1c-7.4,0.7-13.9,3.4-16.8,11
		c-1.2,3.2-1.3,7.1-3.3,9.5c-5.2,6.4-11.2,12.1-16.9,18.1c-3.6,3.8-8.5,6.8-6.4,13.6c-5.8-0.6-7.3-5.2-9.6-8.5
		c-3.8-5.5-7.3-11.3-2.4-18c-1.9-1.4-3.4-2.2-4.5-3.4c-3.6-4.1-9.1-8-10.2-12.8c-1.7-7.8-2.3-16.2,1.6-24.2c2-4.2,2.8-8.6,0.3-13.3
		c-6.3-11.9-7.3-25.3-9.2-38.2c-1.8-12.2-11.3-19.7-22.7-14.8c-4.8,2-8.6,1.2-12.4-1.6c-3.6-2.6-7.2-5.4-11-7.6
		c-6-3.4-11.9-4.5-17.9,0.6c-2.4,2.1-5.7,3.3-8.6,4.9c-3.4,2-6.9,4-10.3,5.9c-1.6,0.9-3.1,2.4-4.8,2.6c-10.2,0.9-20.3,0.8-29.2-5.6
		c-0.9-0.6-2.1-1.3-3.2-1.2c-5.7,0.5-8.5-3.2-11.6-7.2c-6.2-8-13.6-13.7-24.8-13.1c-6,0.3-11.9-0.7-16.8-5.6c-2-2-5.9-2.5-9-3.2
		c-2.7-0.6-5.6-0.9-8.4-0.8c-4.7,0.2-9.9-0.1-13.8,1.8c-2.9,1.4-4.2,6.1-6.6,10c-10-0.2-20.3-2.8-29-9.4c-5.7-4.3-9.9-9.3-18.4-5
		c-5.4,2.7-11,4.1-13.2,10.6c-0.7,2-2.3,5.3-4.8,3.3c-2.4-1.9-4.3-5.3-4.8-8.4c-0.4-2.5,10.4-10.6,13.4-10.2
		c7.4,0.8,13-2.8,18.9-6.2c1.8-1.1,4.4-1.4,6.5-1.2c4.1,0.4,8.2,1.7,12.3,2.1c9.4,0.8,19.1-1.2,28.2,3.1c0.9,0.4,2.5-0.3,3.8-0.6
		c1.4-0.3,2.8-0.8,4.2-1.1c6.4-1.4,12.9-2.8,19.3-3.9c2.8-0.5,5.8-1,8,2.3c1,1.6,3.2,2.9,5,3.4c4.8,1,9.7,1.8,14.6,2.1
		c3.7,0.2,7.7,0,11.2-1.1c6.7-2.2,13.2-3.6,20.4-2.1c3.1,0.6,3.4,2,3.9,4.5c0.5,2.3,2.2,4.4,3.8,6.2c1,1.1,2.8,1.6,4.3,2.3
		c11.1,5.8,23,8.2,35.4,7.2c1.1-0.1,2.5-0.8,3.1-1.7c2.6-3.8,9.6-5.8,13.2-2.7c5.8,5,12.9,6.4,19.8,8.1c6.5,1.6,13.5,1.5,18.9,2
		c2.4,3.3,4.6,5.8,6.3,8.7c3.5,5.7,9.9,7.6,15.2,8.9c4.4,1.1,7.8,2,11.4,4.9c9,7.2,18.4,13.9,27.7,20.5c5.6,4,11.7,5.7,18.5,3.2
		c0.9-0.3,1.9-0.5,2.9-0.7c12.3-2.1,25.1-0.9,37.2-5c5.5-1.9,11.5-2.7,17-4.7c15.4-5.5,30.9-9.3,47.5-7.2c9.3,1.1,18.5-0.9,27.1-5.2
		c15.9-7.9,31.7-16.4,50.6-14.1c2,0.2,4.1-0.3,6-0.1c5.5,0.6,10.9,1.7,16.3,1.9c1.8,0.1,4.4-1.6,5.4-3.2c4.3-6.8,7.2-14,6.6-22.4
		c-0.2-2,2.2-4.2,3.2-6.4c0.9-1.9,2.7-4.2,2.2-5.7c-2.6-7.8-5.9-15.1-13.9-19.3c-3.2-1.7-5.4-5.4-8.1-8.2c-1.8-1.9-3.5-4.6-5.7-5.2
		c-5.4-1.4-11.1-1.8-16.6-2.5c-11.3-1.4-21.8-1.8-32.7,4.6c-12.1,7.2-26.4,3.5-39.8,2.7c-6.6-0.3-13.2-0.7-19.8-0.8
		c-0.3,0-0.6,1.6-1,2.4c-2.4,0.1-5.4-0.7-7.2,0.4c-5.9,3.8-12.1,7.6-16.8,12.6c-2.6,2.8-5,4.4-8.4,5.2c-3,0.7-6.1,1.4-9.2,1.6
		c-8.2,0.5-16.4,1.2-24.6,1.1c-5.3-0.1-6.6-2.6-5.7-7.8c0.4-2.3,0.5-5-0.2-7.2c-1.7-5.5-1.1-7.6,3.5-11c7.2-5.2,14.4-10.5,21.1-16.3
		c3.1-2.7,5.7-4.3,10-3.7c6.9,0.9,13.9,1.3,20.9,1.5c9.7,0.4,18-5.5,22.2-15c0.7-1.5,2.3-2.6,3.7-4.3c0.9,1.6,1.4,2.1,1.5,2.7
		c1.7,10,7.3,14,17.3,13.4c5.8-0.3,11.7,0.9,17.5,1.3c1.6,0.1,3.2-0.2,4.8-0.7c4.8-1.6,9.3-3.8,14.3-5.3c14.4-4.4,28.5-2.6,42.7-0.9
		c6.1,0.7,12.1,0.8,17-3.4c5-4.3,9.6-9.1,14.2-13.8c6.1-6.3,11.9-12.9,21.1-14.7c3.7-0.7,7.4-1.5,11.1-2.4c11.6-3,23.3-5.9,34.7-9.5
		c3.7-1.2,8.9-2,9.3-7.5c0.6-7.3,0.7-14.6,1.1-21.9c0.2-2.8,0.5-5.6,1.2-8.3c2.8-10.7,9-19.5,17.1-26.7c3-2.6,7.4-3.8,11.3-5.1
		c6-2,12.5-3.1,18.2-5.7c4.8-2.2,9.6-5.3,13-9.3c4.3-5.1,7.3-11.3,10.8-17c2-0.2,4-0.3,5.9-0.7c10.2-2.3,9-0.8,11.2-11.3
		c0.6-2.6,1.6-5.1,1.8-7.7c0.3-4.5,0.1-9.1,0.3-13.6c0.1-3.4-0.4-7.3,1.2-9.9c4-6.5,9.1-12.1,16.3-15.4c3.7-1.7,8.4-4,9.8-7.2
		c2.7-6.4,3.5-13.6,5.1-20.4c0.7-2.8,0.6-6.5,2.3-8.1c4.5-4.2,9.5-8.6,15.1-10.7c11.2-4.2,22.5-8.6,34.9-8.7c3.5,0,6.1,0.3,8.3,2.7
		c1.5,1.6,2.3,3.9,3.4,5.9c1.9,5.3,2.5,12.2,3.9,19c1,4.7,3.2,9.1,4.5,13.7c0.6,2.2,1,4.7,0.5,6.8c-1.4,5.8-3.2,11.4-5,17.1
		c-3.5,11.2,2.5,19.6,7.9,28.3c0.8,1.4,1.6,2.7,2.5,4.1c4.4,6.6,8.3,13.6,13.3,19.8c6.3,7.9,12.8,15.5,14.6,25.7
		c1.4,7.7,2.4,15.4,3.7,23c1.9,11.3,1.5,22.3-2.9,33.1c-1.9,4.6-3.2,9.5-4.5,14.3c-0.8,2.8-1,5.7-1.6,8.5c-0.5,2.2-2.1,4.3-1.9,6.4
		c1.1,10.1,1.4,20.5,4.4,30.1c2.2,7,1.5,12.9-0.6,19.1c-1.5,4.5-1.5,8,2.9,10.8c5.4,3.4,10,9,17.4,4.4c0.7-0.5,2-0.1,3-0.2
		c13.2-0.5,24.3,5.7,34,13c5.9,4.5,11.2,6.2,18,6.2c6.4,0,12.8,0,19.1,1c2.9,0.4,5.4,3.2,8.1,4.9c8.4,5.3,16.8,10.6,25.2,15.9
		c0.9-0.1,1.8-0.2,2.7-0.2c0.9-0.3,1.8-0.5,2.7-0.8c1.1,0.7,2.2,1.9,3.2,1.9c8.1,0.2,16.3,0.2,24.4-0.1c1.1,0,2.2-1.9,3.4-2.9
		c0-0.8-0.4-2,0-2.4c2.8-3.3,5.6-6.6,8.8-9.4c1-0.9,3.6,0.4,5.2-0.2c7.9-3.1,13.8,2.1,20.2,4.8c8,3.4,15.5,8.9,23.8,10.7
		c10.7,2.3,19.3,8.2,29,12.3c3.7,1.6,8.3,1.3,12.5,0.9c1.4-0.1,2.6-3.2,3.5-5.1c0.7-1.6,0.7-3.5,1.3-5.1c2.4-6.3,5.1-12.4,7.3-18.7
		c1.4-4.1,8.1-8.8,12.4-8.5c5.3,0.4,10.7,0.7,16,0.6c1.4,0,3.3-1.7,3.9-3c2.5-5.9,4.5-12,7-17.8c4.2-9.8,6.5-19.8,5.3-30.6
		c-0.7-6.1,0.4-12.4-0.5-18.4c-1.8-12.2,5.4-24,18.6-26c5.6-0.9,11.3-1.5,15.5-6c1.1-1.1,2.4-2.7,3.7-2.9c7.9-1.1,15.8-2.5,23.7-2.6
		c6.1-0.1,12.4,1.2,18.3,2.8c4.2,1.1,9.9-0.5,12.1,5.4c0.1,0.3,1.2,0.1,1.9,0.2c3.7,0.7,7.5,1.3,11.2,2c0.9,0.3,1.8,1,2.7,1
		c17.4,0.1,34.8,0.1,52.2,0c1,0,2-1.1,3-1.8c2.9,0.2,6.1,1.2,8.7,0.4c2.8-0.9,4.1,0,5.7,1.7c6.5,6.9,14.5,9.7,23.9,8.6
		c3.3-0.4,5.7-2,7.5-5.1c4.1-7.1,7.9-15,18.1-14.8c0.9,0.4,1.8,1,2.7,1c11.6,0.1,23.2,0.1,34.8,0c0.4,0,0.9-0.8,1.3-1.2
		c3.5-0.6,7-2,10.4-1.6c8.2,1,16.2,3.3,24.3-0.1c1.9-0.8,4.4-0.2,6.6-0.1c3.7,0.2,7.8,1.8,10.9,0.7c6.8-2.4,13.1-6.4,19.8-9.3
		c2.8-1.2,6.1-1.3,9.2-1.9c2.5-0.5,5.4-0.5,7.5-1.8c4.5-2.7,8.7-6.1,13-9.3c3.2-2.4,5.7-4.7,5.9-9.7c0.3-9.3,4.8-16.9,13.4-21.7
		c4.2-2.4,9.9-3,12-8.3c1.6-4,3-8.2,4.3-12.3c2.9-9.5,4.7-19.5,8.9-28.4c3.7-7.9,10-14.5,15.2-21.7c3.9-2.1,3.7-5.9,4-9.5
		c0.6-8.9,1.2-17.8,1.9-26.7c0.2-2.3,0.7-4.5,1.1-6.8c1.2-1.7,2-3.9,3.7-4.9c3.7-2.4,7.7-4.3,11.8-6.1c7.5-3.2,12.4-7.8,13.5-16.7
		c0.9-7-1.2-13-2.8-19.4c0.3-1.4,0.8-2.8,0.8-4.2c0.1-10.5,0.1-21,0-31.4c0-1.4-0.6-2.8-0.9-4.2c4.1-10,8.1-20,12.2-30
		c1.5-3.5,2.8-7.3,5.1-10.2c2.9-3.7,6.4-8.6,10.4-9.5c9.1-2,15-7.9,21.4-13.5c5.2-4.6,10.3-9.4,14.5-14.9c2.8-3.6,8.1-6.1,7.5-12
		c-0.1-0.5,0.6-1.1,0.9-1.7c2.6-3.8,5.1-7.8,8-11.5c3.6-4.7,7.2-9.5,11.5-13.5c2.2-2,5.9-3.1,9-3.3c5.8-0.5,11.8-0.1,17.6,0
		c1.2,0.6,2.3,1.8,3.5,1.8c9.3,0.2,18.6,0.2,27.9,0c1.2,0,2.4-1.2,3.6-1.8c3.9-3,7.5-6.7,11.9-8.8c7.1-3.5,14.7-6.1,22.1-9.1
		c0.4,0.4,0.9,1.3,1.3,1.3c11.2-1,22.3-2.5,33.5-3.2c5.3-0.3,10.7,0.8,16,1.1c4.5,0.3,9.1,0.3,13.7,0.5l-0.1-0.2
		c3.2,0.7,6.3,2.1,9.5,2.1C2029.3,106.8,2038.6,106.3,2048,106z"/>
	<path fill="#7E7E7E" d="M0,796C0,530.7,0,265.3,0,0c682.7,0,1365.3,0,2048,0c0,4.7,0,9.3,0,14c-6.2,0.3-12.5,0.6-18.7,1
		c-4.9,0.3-9.8,0.6-14.7,1.1c-2.4,0.3-4.7,1.8-7.1,1.8c-6.6,0.2-12.9,0-19.2-3.5c-4.3-2.3-10.1-1.8-15.3-2.6c-3-0.9-5.9-2.6-8.9-2.7
		c-12.1-0.3-24.2-0.2-36.3-0.1c-1.6,0-3.2,1-4.9,1.6c-6.1-0.2-12.2-0.5-18.3-0.5c-0.8,0-1.6,0.9-2.4,1.3c-4.4,2.8-8.9,5.5-13.2,8.4
		c-9.9,6.7-19.3,14.5-32,15.1c-3.2-0.3-6.5-0.9-9.7-0.8c-7.4,0.1-14.8,0.5-22.2,0.8c-0.4,0-0.8-0.1-1.2-0.1c-0.3-0.3-0.6-0.5-1-0.8
		c0,0,0.1,0.1,0.1,0.1c-2.7-0.3-5.4-0.7-8.1-1c0,0,0.1,0,0.1,0c-1.3-0.7-2.6-1.9-3.9-2c-4.6-0.2-9.2-0.3-13.8,0
		c-1.8,0.1-3.5,1.3-5.3,2c0,0,0.2,0,0.2,0c-0.3,0.3-0.7,0.7-1,1c-1.5,1-2.8,2.4-4.4,2.8c-7.9,1.9-15.8,4.6-24.2,4.1
		c-4.8-0.3-9.7,0.5-14.5-0.2c-9.4-1.2-16.1,3.2-23.1,8.7c-7.7,6.1-16.6,10.7-25,16c-5.7,3.6-11.8,6.7-17.2,10.7
		c-7.7,5.7-9.1,15.4-12.7,23.4c-4.2,9.1-6.1,19.3-9.6,28.8c-1.4,3.7-3.4,8.1-6.5,10.1c-10.5,7-21.4,13.3-32.4,19.4
		c-4.3,2.4-10.4,2.5-13.8,5.6c-6.7,6.1-13,12.9-17,21.4c-3.5,0-4.6,2.4-4.7,5.2c-0.2,7.9-0.1,15.8-0.1,23.7
		c0.1,8.3,0.2,16.6,0.3,24.9c-0.8,1.5-1.9,2.9-2.5,4.5c-2.4,6.1-3.7,12.8-7.1,18.2c-8.9,14-10.9,29.5-11.6,45.4
		c0,9.6,0,19.2,0.1,28.8c0.3,1.4,0,3.5,0.8,4.2c6.7,5.8,5.3,13.4,3.8,20.3c-1.5,6.7-3.6,13.6-12.1,15.5c-3.3,0.7-6.6,2.4-9.3,4.5
		c-6.9,5.5-13.4,11.6-22.5,13.1c-0.7,0.1-1.3,1-1.9,1.6c0,0,0,0,0,0c-1,0-2,0-3-0.1c-8.3,0-16.6,0-24.9,0c-9.2,3.5-18.7,3-28.3,3
		c-11.5,0-23.1,0-34.6,0c-12.8,1-25.6,2-38.3,3.1c-0.7,0.1-1.4,0.8-2.1,1.2c-3.1-0.4-6.1-0.7-9.2-1.2c-6.5-1-13-2-19.4-3.1
		c-3.2-0.5-7.3,0-9.5-1.8c-7.2-5.9-14.4-2-21.6-1.4c-2.2-0.3-4.7-0.2-6.7-1.2c-1.9-0.9-3.4-2.7-4.7-4.4c-0.4-0.5,0.3-2.1,1-2.9
		c2.1-2.3,4.3-4.3,6.5-6.5c8,0,16,0,24,0c0.9,1.2,1.9,2.5,2.8,3.7c1.4-1.2,2.8-2.5,4.2-3.7c8,0,16,0,24,0c1.2,0.9,2.4,2.6,3.6,2.6
		c5.5,0,11.1-1.5,16.4-0.5c13.6,2.4,24.8-4.9,36.9-8.2c6.2-1.7,12.4-5.1,17.3-10.6c4.7-5.3,5.5-8.9,0.3-13.8
		c-3.9-3.6-3.1-8.8,1.5-11.1c4.4-2.3,7.3-5.6,7.1-11c-0.3-10.4-2.2-20.3-8.5-28.8c-0.6-0.8-0.9-1.7-1.4-2.6
		c-1.4-2.1-2.8-4.2-4.7-6.9c2.8-3.9-1.2-7.9-3.2-11.6c-1.6-3.2-2.8-7.9-8.3-8.1c-2.2-0.1-5.6-1.4-6.3-3c-2.7-6.1-12.4-5.3-12.6-13.4
		c0-0.1-0.2-0.3-0.4-0.3c-4.2-0.1-4.3-3.4-5.4-6.3c-0.7-1.7-3.2-2.7-5.1-3.7c-1.6-0.8-3.6-0.7-5.2-1.5c-5.7-3.1-12-2-17.3-0.3
		c-4,1.3-7.8,2-11.9,2.1c-4,0.1-8.2-1.3-11.9,1.7c-0.9,0.7-3.1-0.2-4.8-0.3c-1.9-0.2-3.9-0.9-5.6-0.6c-6.8,1.4-13.6,2.7-20.2,4.8
		c-3.8,1.2-7.1,3.9-10.8,5.8c-1.7,0.9-3.4,1.7-5.2,2c-1.6,0.3-3.3-0.3-4.9-0.5c-9.3-0.7-18.5-1.4-27.8-2.3c-0.9-0.1-1.8-1.3-2.4-2.2
		c-3.8-5.7-7.3-11.6-11.5-17c-1.9-2.5-1.2-3.4,0.3-5.8c3.4-5.1,7.4-9.8,6-17.4c-0.6-3.4-2.4-5.8-3.7-8.4c-2.6-5.4-7.5-9.1-13.4-11.1
		c-2.7-1.4-5.3-3.3-8.2-4.1c-2.4-0.7-5.8-1.2-7.6,0c-8.3,5.4-15.7,12.3-26.2,13.1c-0.3,0.3-0.6,0.6-1,0.9c-1.7,0-3.4,0-5,0
		c-1.2-3.7-3.5-5.4-6.4-2.1c-2.4,2.8-4.2,2.4-6.7,0.7c-1.1-0.7-3-1.2-4-0.8c-9.4,4.2-19.3,4.8-29.2,4.1c-6.4-0.5-12.7-1.6-18.3-6.3
		c-5.3-4.4-11.9-7.2-18.7-11.2c-0.2-0.4-0.7-2.6-2-3c-4.3-1.7-8.8-3.3-13.3-4c-3.2-0.5-7.5-2.1-9.7,2.5c-0.2,0.5-1.4,0.7-2.1,0.8
		c-2.9,0.2-5.9,0-8.8,0.5c-4.7,0.8-10.7,0.6-13.7,3.4c-4,3.8-7.8,3.4-12.1,3.4c-3.6-0.1-7.2-0.5-10.7-1c-2.1-0.3-4.2-1-6.3-1.4
		c-1.2-0.3-2.6-0.3-3.7-0.8c-5.7-2.4-11.3-5.3-17.2-7.3c-2.4-0.8-5.4,0.1-8.1-0.1c-1.4-0.1-2.7-1.1-3.9-1.9c-1.6-1-3.1-2.7-4.8-3.2
		c-2.2-0.7-4.6-0.8-6.9-0.8c-8.8-0.1-18-2.6-25.9,3.7c-2.2,1.7-3.9,4.9-6.3,5.4c-9.4,2.1-8.2,13.9-16.4,17c-0.9,0.4-1.3,3.4-1.3,5.1
		c0.3,7.7-5.2,12-9.6,17c-0.8,1-2,1.9-3.2,2.2c-7.9,1.8-15.8,3.5-24,5.3c-0.7-5.3-3.2-5-7.1-3.6c-5.3,1.8-11,2.4-16.5,3.6
		c-1.3,0.3-2.8,0.9-3.8,1.9c-3.4,3.4-7.8,2.9-10.5-1.3c-0.5-0.7-1.4-1.4-2.3-1.5c-5.2-0.8-10.4-1.5-15.4-2.2c-1.3-1.6-2.3-4.2-4-4.8
		c-5.1-1.8-10.6-3.9-15.8-3.8c-5.7,0.1-13,1-16.8,4.5c-7.8,7.1-16.3,9.8-26.2,10.6c-6.3,0.5-12.6,0.9-18.7,2
		c-8.5,1.5-16.6,4.2-23.6,9.8c-3.9,3.1-9.1,4.5-13.5,7.1c-4.1,2.4-4.5,9.2-10.9,9c-0.4,0-0.8,1.4-1.4,1.9c-3.5,2.8-5,8.1-11.3,7.1
		c-3.7-0.6-8.3,0.1-11.6,1.9c-8.2,4.3-16.2,3.2-24.5,1.4c-3.6-0.8-8-2.7-10.1,3c-0.3,0.8-2.6,1.4-3.8,1.3c-3.5-0.3-7-1.4-10.6-1.7
		c-9.4-0.7-15.9,6.5-24.2,9c-0.5,0.2-0.8,1-1.3,1.4c-1.6,1.3-3.5,2.4-4.9,3.9c-3.3,3.7-8.4,7.2-9.1,11.4c-0.8,4.6,1.6,10.4,4.1,14.9
		c3.4,6,4.4,13.5,0.9,19.4c-0.4,0.7-0.5,1.6-0.6,2.4c-1,4.8,0.5,10.5-5.3,13.5c-0.5,0.3-0.4,1.6-0.8,2.3c-2.6,5.1-5.2,10.1-7.9,15.2
		c-1.6,3.1-3.9,6-4.9,9.3c-1.7,5.8-2.8,11.8-3.9,17.8c-0.4,2.4-0.1,5-0.1,6.8c-2.3,4.1-4.7,7.8-6.5,11.9c-1.5,3.3-1.9,7.2-3.5,10.4
		c-3.7,7.2-5.5,14.4-2.9,22.3c1.5,4.4,3,8.9,4.3,12.7c-2.1,1-4.6,2.2-7.1,3.4c-0.9,0.4-1.9,0.6-2.8,0.8c-4,1-8.2,1.6-11.9,3.2
		c-5.4,2.3-10.2,5.6-16.1,6.9c-4.8,1.1-11.8,0.6-11.3,8.9c0,0.2-0.3,0.6-0.6,0.7c-4.5,1.8-4.5,5-2.2,9.1c-0.7,0.1-1.4,0.2-2.1,0.3
		c-0.8-2.2-1.6-4.4-2-5.5c-2.3-1.4-4.7-2.1-5-3.3c-1.4-5.6-5.6-5.7-10-6.1c-1.5-0.1-3.7-1.1-4.2-2.3c-1.5-3.5-4.2-4.2-7.3-3.9
		c-10,1-20.1,2.3-30.1,3.5c-7.9,0.9-16,3.2-23.5,2c-7.2-1.2-12.6-0.3-18.8,3c-8.4,4.5-10.8,3-18-2.7c-4.7-3.8-6.8-11.6-14.9-10.6
		c-0.5,0.1-1.5-1.6-1.9-2.6c-2.1-5.4-6.8-3.7-10.3-3.1c-2,0.3-3.6,3.5-5.4,5.3c-1.1,1.1-2,2.8-3.3,3.3c-7.8,2.8-15.9,5.1-23.6,8.1
		c-4.9,1.9-9.1,5.3-14,7.2c-7.3,2.9-14.4,7.5-22.8,4.7c-5.2-1.8-11-2.6-14.4-8.3c-1.4-2.3-4.5-3.8-7.1-5.2c-2.2-1.2-4.3-0.6-4.8,2.4
		c-7.7,0-15.3,0-23,0c-1.7-1.3-3.3-3.7-5-3.7c-6.7-0.1-12.1,3.6-16.1,8.4c-4.5,5.4-6.5,12.2-7.2,19.5c-0.5,5.1-2.7,9.9-3.7,15
		c-0.7,3.5-0.7,6.8-4.6,8.7c-1.3,0.6-1.6,3.1-2.4,4.8c-1,2-2,4-2.7,5.4c-3.3,0-6,0.2-8.6,0c-5.1-0.5-10.4-0.7-15.2-2.2
		c-4.1-1.3-8-3.9-11.5-6.5c-4.5-3.4-10.8-4.7-13.3-10.7c-0.3-0.7-1.8-1.5-2.5-1.3c-5.2,1.1-9.9,1.1-14.6-2c-1.5-1-4.5,0-6.7,0.7
		c-2.1,0.7-3.9,2.5-6,3.3c-3.8,1.3-8.5,1.4-7.9,7.4c0,0.4-0.9,0.9-1.5,1.3c-3.5,2.4-6.9,5-10.6,7c-4.7,2.6-9.5,5.6-14.7,6.9
		c-5.7,1.4-11.3,2.2-14.5,5.6c-3.8-1-6.7-1.6-9.5-2.4c-4.6-1.3-9.1-2.7-13.7-4.1c-2.3-0.7-4.9-2.2-7-1.7c-8,2-15.8,4.5-23.6,7
		c-7.6,2.4-14.2,8-23,6c-1.5-0.3-3.3,1.2-5,1.4c-2.2,0.2-4.8,0.7-6.5-0.2c-4.1-2.2-7.2-1.2-8.9,3.2c-1,2.8-2.6,5.3-3.8,8.1
		c-0.5,1-1.1,2.3-0.8,3.2C8,576.9,14.9,588.3,28,588c2.7-0.1,5.3-0.5,8-0.3c1.6,0.1,4.5,1,4.6,1.8c0.8,5.9,5.1,6.2,9.5,6.7
		c2.8,0.3,4.1,1.9,3.9,4.7c-0.2,3.4-0.3,6.9-0.5,10.1c-1.5,0.6-3.2,0.8-4.3,1.7c-1.5,1.3-2.8,2.9-3.8,4.6c-1.3,2.3-2.9,4.8-3.3,7.3
		c-0.4,2.7,0,5.8,1,8.3c2.1,5.7,1.6,12.8,7.1,15.5c-1.2,3.1-2.8,5.7-3.1,8.5c-0.4,4-2,6.2-6.1,6.2c-3.5-0.1-5.3,1.8-5.8,5
		c-0.5,3.2-1.9,6.8-0.9,9.5c1.7,4.3,1.1,9.3,5.6,13.2c3.3,2.8,4.2,8.4,9.5,9.8c0.2,0.1,0.3,0.6,0.4,0.9c1.2,3.4,3,6.8,3.3,10.3
		c0.3,4,0.1,8.3-1.4,12c-1.6,4.1-5.2,7.5-7.2,11.5c-0.6,1.3,0.5,3.9,1.6,5.4c1.2,1.6,3.2,2.6,4.9,3.9c1.5,1.3,2.8,3.5,4.5,3.8
		c7.6,1.5,15.3,3.8,23.2,1.3c4.2-1.4,9.2-4.2,12.8-3.1c6.6,2,12.4,0.2,18.5-0.4c3.9-0.3,8.6,1,11.2-3.7c0.2-0.4,2.6-0.3,3.1,0.3
		c2.6,2.8,5.6,2.7,8.7,1.8c2.9-0.8,4.4,0.4,3.9,3.2c-1.7,10.4,6.1,15.3,12.8,19.7c7,4.6,15.6,5.3,24,2.3c2.3-0.8,4.6-1.9,7-2.4
		c5.8-1.2,12-1.2,17.3-3.4c5.3-2.3,11.4,2.3,16.1-2.6c0.2-0.2,1.1,0.5,1.8,0.6c2.6,0.7,5.2,1.9,7.9,2.1c7.1,0.5,14.3,0.9,21.4,0.5
		c2.6-0.2,6.7-2.6,7.1-4.7c0.8-3.9,2.5-3.5,5.2-3.1c3.6,0.5,7.3,1.4,10.8,1c5.9-0.8,11.6-2.8,17.5-3.9c4.8-0.9,9.9-0.9,10.3-7.4
		c2.1,0.6,3.4,1,5.3,1.5c-0.7-4.6,2-5.7,5.3-7c2.2-0.9,3.6-3.5,5.5-5.1c1.1-1,3.2-2.5,3.8-2.1c6,4,10.9,0.1,16-2
		c1-0.4,2.1-1.3,3.1-1.1c3.1,0.4,6.2,1.1,9,1.7c0.7,2.4,1.1,5,2.2,7.2c1.5,2.9,4.5,5.4,5,8.4c0.6,3.3,1.9,4.5,4.7,5.4
		c3.6,1.2,4.2,5.2,2.4,6.8c-4.5,3.8-3,8.9-4.3,13.3c-1.4,4.7-5.7,9.8-9.9,9.7c-10.4-0.2-17.1,6.8-24.2,12.4
		c-4.9,3.9-6.7,11.6-14.6,12.1c-1.1,0.1-2.2,1.5-3.1,2.4c-2.1,1.9-4.2,3.9-6.6,6.2c-2.5-6.9-5.2-12.3-11.1-16.4
		c-5-3.5-9.3-7-15.5-7.8c-3.7-0.5-7.4-1.6-11.1-2.5c-6.2-1.4-9-0.1-10.4,4.1c-3.5-0.5-6.8-1-10.1-1.3c-4.9-0.4-9.2-0.3-13.4-4.8
		c-7.1-7.5-17.3-6.2-26.8-6c-0.5,0-1.2,0.6-1.6,1.1c-4.5,5.1-7.7,5.5-13.5,1.5c-1.2-0.8-2.7-1.6-4.1-1.7c-8.6-0.8-17.2-2.1-25.8-1.9
		c-5.2,0.1-11.8-0.7-14.3,6.6c-4.3-1.4-6.8,0.4-7.6,4.8c-9.5,0-18.7,0.1-27.9-0.1c-1.1,0-2.6-0.7-3.2-1.6c-2.6-3.9-7.7-6-8.4-11.3
		c-0.1-0.4-1-0.8-1.6-1.1c-3.6-2.2-7.7-3.8-10.8-6.6c-5.8-5-11.1-10.7-16.7-16c-0.8-0.8-1.9-1.3-3-1.8c-3.5-1.9-8.5-1.7-9.9-6.9
		c-0.3-1-2.4-1.7-3.9-2c-3.4-0.6-6.9-1.2-10.3-1.2c-7,0-8.5,2.7-7.7,9.8c0.3,2.5-1.6,7.1-3.5,7.8c-3.8,1.3-3.7,3.1-2.8,5.9l-0.2,0.1
		c-2.7,0.2-6.2-0.5-7.8,0.9c-3.4,2.9-6.8,6.6-8.4,10.7c-1.4,3.6-0.7,8.1-0.5,12.1C3.8,793.4,3.8,795.8,0,796z"/>
	<path fill="none" d="M1972.9,11.9c5.1,0.8,11,0.3,15.3,2.6c6.3,3.4,12.6,3.6,19.2,3.5c2.4-0.1,4.7-1.5,7.1-1.8
		c4.9-0.6,9.8-0.8,14.7-1.1c6.2-0.4,12.5-0.6,18.7-1c0,30.3,0,60.7,0,91c-1.6-0.3-3.2-0.9-4.8-0.8c-4.4,0.2-8.8,0.8-13.2,0.9
		c-6.5,0.1-13-0.2-19.6-0.3c0,0,0.1,0.2,0.1,0.2c-0.6-0.5-1.2-1.3-1.9-1.4c-7.4-1-14.8-2.1-22.3-2.7c-3.9-0.3-7.9,0.4-11.8,0.8
		c-9.5,1.1-19,2.3-28.6,3.5c-7.4,3-15,5.5-22.1,9.1c-4.4,2.2-8,5.8-11.9,8.8c-11.7,0-23.3,0-35,0c-5.9,0-11.8-0.5-17.6,0
		c-3.1,0.3-6.8,1.3-9,3.3c-4.3,4-7.9,8.8-11.5,13.5c-2.9,3.7-5.3,7.6-8,11.5c-0.4,0.5-1,1.2-0.9,1.7c0.6,5.9-4.6,8.3-7.5,12
		c-4.2,5.4-9.3,10.3-14.5,14.9c-6.4,5.6-12.3,11.5-21.4,13.5c-4,0.9-7.4,5.8-10.4,9.5c-2.3,2.9-3.6,6.7-5.1,10.2
		c-4.1,10-8.1,20-12.2,30c0,13.3,0,26.6,0.1,39.9c1.6,6.3,3.7,12.4,2.8,19.4c-1.1,8.9-6,13.5-13.5,16.7c-4.1,1.7-8.1,3.7-11.8,6.1
		c-1.6,1-2.5,3.2-3.7,4.9c-1.1,4.5-2.4,9-3.2,13.5c-1.9,9.7,0.9,20.1-3.8,29.5c-5.2,7.2-11.5,13.8-15.2,21.7
		c-4.2,8.9-6,18.9-8.9,28.4c-1.3,4.2-2.6,8.3-4.3,12.3c-2.1,5.3-7.8,6-12,8.3c-8.6,4.9-13.1,12.4-13.4,21.7c-0.2,5-2.7,7.3-5.9,9.7
		c-4.2,3.2-8.4,6.5-13,9.3c-2.1,1.3-4.9,1.3-7.5,1.8c-3.1,0.6-6.4,0.7-9.2,1.9c-6.7,2.9-13,6.9-19.8,9.3c-3.2,1.1-7.3-0.4-10.9-0.7
		c-2.2-0.1-4.7-0.7-6.6,0.1c-8.2,3.4-16.2,1.2-24.3,0.1c-3.3-0.4-6.9,1-10.4,1.6c-12.9,0.1-25.9,0.1-38.8,0.2
		c-10.2-0.1-14,7.7-18.1,14.8c-1.8,3.1-4.2,4.7-7.5,5.1c-9.4,1.1-17.4-1.7-23.9-8.6c-1.6-1.7-2.9-2.6-5.7-1.7
		c-2.6,0.8-5.8-0.2-8.7-0.4c-1.9,0.2-3.9,0.6-5.8,0.6c-17.4,0.1-34.7,0.1-52.1,0.2c-3.7-0.7-7.5-1.3-11.2-2c-0.6-0.1-1.8,0-1.9-0.2
		c-2.2-5.9-7.9-4.2-12.1-5.4c-5.9-1.6-12.2-2.8-18.3-2.8c-7.9,0.1-15.8,1.5-23.7,2.6c-1.4,0.2-2.6,1.7-3.7,2.9
		c-4.3,4.5-10,5.1-15.5,6c-13.3,2.1-20.4,13.8-18.6,26c0.9,6-0.2,12.3,0.5,18.4c1.2,10.8-1.1,20.8-5.3,30.6c-2.5,5.9-4.4,12-7,17.8
		c-0.6,1.4-2.5,3-3.9,3c-5.3,0.1-10.7-0.2-16-0.6c-4.4-0.3-11,4.4-12.4,8.5c-2.2,6.3-4.9,12.5-7.3,18.7c-0.6,1.6-0.6,3.6-1.3,5.1
		c-0.9,1.9-2.2,5-3.5,5.1c-4.1,0.4-8.8,0.7-12.5-0.9c-9.6-4.1-18.3-10-29-12.3c-8.3-1.8-15.8-7.3-23.8-10.7
		c-6.4-2.7-12.3-7.9-20.2-4.8c-1.5,0.6-4.1-0.6-5.2,0.2c-3.2,2.8-6,6.1-8.8,9.4c-0.4,0.5,0,1.6,0,2.4c-1.4,0.5-2.8,1.5-4.2,1.5
		c-8.9,0-17.9-0.3-26.8-0.4c-0.9,0.3-1.8,0.5-2.7,0.8c0.1-0.1,0.2-0.2,0.2-0.3c0-0.1-0.2-0.3-0.2-0.3c-0.9,0.3-1.8,0.6-2.7,0.9
		c-8.4-5.3-16.8-10.6-25.2-15.9c-2.7-1.7-5.2-4.5-8.1-4.9c-6.3-1-12.7-0.9-19.1-1c-6.8,0-12.1-1.7-18-6.2c-9.6-7.4-20.8-13.5-34-13
		c-1,0-2.2-0.3-3,0.2c-7.4,4.7-12.1-0.9-17.4-4.4c-4.4-2.8-4.4-6.3-2.9-10.8c2.1-6.2,2.8-12.1,0.6-19.1c-3-9.5-3.3-20-4.4-30.1
		c-0.2-2,1.4-4.2,1.9-6.4c0.7-2.8,0.9-5.7,1.6-8.5c1.3-4.8,2.6-9.7,4.5-14.3c4.4-10.8,4.8-21.8,2.9-33.1c-1.3-7.7-2.3-15.4-3.7-23
		c-1.8-10.3-8.3-17.9-14.6-25.7c-5-6.2-8.9-13.2-13.3-19.8c-0.9-1.3-1.7-2.7-2.5-4.1c-5.4-8.7-11.4-17.1-7.9-28.3
		c1.8-5.7,3.6-11.3,5-17.1c0.5-2.1,0.1-4.6-0.5-6.8c-1.3-4.6-3.5-9-4.5-13.7c-1.4-6.8-2-13.7-3.9-19c-1.1-2-1.9-4.2-3.4-5.9
		c-2.1-2.3-4.8-2.7-8.3-2.7c-12.4,0.1-23.7,4.6-34.9,8.7c-5.6,2.1-10.5,6.6-15.1,10.7c-1.8,1.6-1.7,5.3-2.3,8.1
		c-1.6,6.8-2.4,14.1-5.1,20.4c-1.4,3.2-6.1,5.5-9.8,7.2c-7.3,3.3-12.4,9-16.3,15.4c-1.6,2.6-1,6.6-1.2,9.9c-0.2,4.5,0,9.1-0.3,13.6
		c-0.2,2.6-1.2,5.1-1.8,7.7c-2.2,10.4-1,8.9-11.2,11.3c-1.9,0.4-3.9,0.5-5.9,0.7c-3.5,5.7-6.4,12-10.8,17c-3.4,3.9-8.2,7.1-13,9.3
		c-5.7,2.6-12.2,3.6-18.2,5.7c-3.9,1.3-8.3,2.5-11.3,5.1c-8.1,7.2-14.3,15.9-17.1,26.7c-0.7,2.7-1,5.5-1.2,8.3
		c-0.5,7.3-0.6,14.6-1.1,21.9c-0.4,5.5-5.6,6.4-9.3,7.5c-11.4,3.6-23.1,6.4-34.7,9.5c-3.6,1-7.4,1.7-11.1,2.4
		c-9.2,1.9-15,8.4-21.1,14.7c-4.6,4.7-9.2,9.5-14.2,13.8c-4.9,4.2-10.9,4.2-17,3.4c-14.3-1.7-28.3-3.5-42.7,0.9
		c-5,1.5-9.5,3.8-14.3,5.3c-1.5,0.5-3.2,0.8-4.8,0.7c-5.8-0.4-11.7-1.6-17.5-1.3c-10,0.6-15.7-3.4-17.3-13.4
		c-0.1-0.6-0.6-1.1-1.5-2.7c-1.5,1.7-3.1,2.8-3.7,4.3c-4.2,9.6-12.4,15.4-22.2,15c-7-0.3-14-0.6-20.9-1.5c-4.3-0.6-6.9,1-10,3.7
		c-6.7,5.8-13.9,11-21.1,16.3c-4.6,3.4-5.2,5.4-3.5,11c0.7,2.2,0.6,4.8,0.2,7.2c-0.8,5.3,0.4,7.7,5.7,7.8c8.2,0.1,16.4-0.5,24.6-1.1
		c3.1-0.2,6.2-0.9,9.2-1.6c3.3-0.8,5.8-2.4,8.4-5.2c4.7-5.1,10.9-8.9,16.8-12.6c1.8-1.1,4.8-0.3,7.2-0.4c6.9-0.5,13.8-1.1,20.8-1.6
		c13.4,0.8,27.7,4.6,39.8-2.7c10.8-6.4,21.4-6,32.7-4.6c5.6,0.7,11.2,1.1,16.6,2.5c2.2,0.6,3.9,3.3,5.7,5.2c2.7,2.7,4.9,6.5,8.1,8.2
		c8,4.2,11.3,11.6,13.9,19.3c0.5,1.5-1.3,3.8-2.2,5.7c-1.1,2.2-3.4,4.3-3.2,6.4c0.6,8.4-2.3,15.6-6.6,22.4c-1,1.6-3.6,3.3-5.4,3.2
		c-5.5-0.2-10.9-1.3-16.3-1.9c-2-0.2-4.1,0.3-6,0.1c-18.8-2.4-34.7,6.1-50.6,14.1c-8.6,4.3-17.8,6.3-27.1,5.2
		c-16.7-2.1-32.1,1.7-47.5,7.2c-5.5,2-11.4,2.8-17,4.7c-12.1,4.2-24.8,2.9-37.2,5c-1,0.2-2,0.3-2.9,0.7c-6.8,2.6-12.9,0.8-18.5-3.2
		c-9.4-6.7-18.8-13.3-27.7-20.5c-3.6-2.9-7.1-3.8-11.4-4.9c-5.3-1.3-11.7-3.2-15.2-8.9c-1.7-2.8-3.9-5.4-6.3-8.7
		c-5.4-0.5-12.4-0.4-18.9-2c-6.9-1.7-14-3.1-19.8-8.1c-3.6-3.1-10.6-1.1-13.2,2.7c-0.6,0.9-2,1.6-3.1,1.7c-12.5,1-24.3-1.4-35.4-7.2
		c-1.5-0.8-3.3-1.2-4.3-2.3c-1.6-1.8-3.3-4-3.8-6.2c-0.5-2.6-0.8-3.9-3.9-4.5c-7.1-1.5-13.6-0.1-20.4,2.1c-3.5,1.1-7.5,1.3-11.2,1.1
		c-4.9-0.2-9.8-1-14.6-2.1c-1.9-0.4-4-1.8-5-3.4c-2.2-3.3-5.2-2.8-8-2.3c-6.5,1.1-12.9,2.6-19.3,3.9c-1.4,0.3-2.8,0.8-4.2,1.1
		c-1.3,0.3-2.8,1.1-3.8,0.6c-9.1-4.3-18.8-2.3-28.2-3.1c-4.1-0.4-8.2-1.7-12.3-2.1c-2.1-0.2-4.7,0.2-6.5,1.2
		c-5.9,3.4-11.6,7.1-18.9,6.2c-2.9-0.3-13.8,7.7-13.4,10.2c0.5,3,2.4,6.5,4.8,8.4c2.5,2,4.1-1.3,4.8-3.3c2.2-6.5,7.7-7.9,13.2-10.6
		c8.5-4.3,12.7,0.7,18.4,5c8.7,6.6,19.1,9.2,29,9.4c2.5-4,3.7-8.6,6.6-10c4-1.9,9.2-1.6,13.8-1.8c2.8-0.1,5.7,0.2,8.4,0.8
		c3.1,0.7,7,1.1,9,3.2c4.9,4.8,10.8,5.9,16.8,5.6c11.1-0.6,18.6,5.1,24.8,13.1c3.1,4,5.9,7.6,11.6,7.2c1-0.1,2.3,0.6,3.2,1.2
		c8.9,6.4,19,6.5,29.2,5.6c1.7-0.1,3.2-1.7,4.8-2.6c3.4-2,6.8-4,10.3-5.9c2.9-1.6,6.1-2.8,8.6-4.9c6-5.2,11.9-4,17.9-0.6
		c3.9,2.2,7.4,5,11,7.6c3.9,2.8,7.7,3.6,12.4,1.6c11.4-4.9,21,2.5,22.7,14.8c1.9,12.9,2.8,26.3,9.2,38.2c2.5,4.7,1.8,9.1-0.3,13.3
		c-3.8,7.9-3.3,16.4-1.6,24.2c1,4.8,6.5,8.6,10.2,12.8c1.1,1.2,2.6,2,4.5,3.4c-5,6.7-1.5,12.6,2.4,18c2.3,3.3,3.8,7.9,9.6,8.5
		c-2-6.8,2.8-9.8,6.4-13.6c5.7-6,11.7-11.7,16.9-18.1c2-2.4,2.1-6.4,3.3-9.5c3-7.6,9.4-10.3,16.8-11c8.7-0.9,17.4-1.4,26.2-2.1
		c1.1-0.1,2.3-0.5,3.4-0.9c11.4-4.1,22.8-8.5,32.4-16.2c3.2-2.6,5.8-5.9,8.4-9.2c4.7-5.8,11.7-4.3,17.7-5.9c0.4-0.1,1.1,0.2,1.3,0.6
		c6,10.8,17.2,11.6,27.3,13.4c9.3,1.7,19.1,2.1,28.6,1.6c5.3-0.3,10.5-3.6,15.8-5.3c5-1.6,10-3,15.1-4c9.9-1.8,15.1-10.5,13.8-20.3
		c-0.7-5.5,2-11.4,3.2-17.1c0.1-0.4,0.7-0.8,1.1-0.9c11.5-3.8,22.3-10.3,34.9-9.8c5,0.2,9.8,1.2,14.1,4.7c2.2,1.8,5.7,2,8.6,2.9
		c8.5,2.7,17.3,2.7,25.3-1c3.8-1.8,6.3-6.2,10.2-10.2c5.2,1.3,12.6,1,17.1,7.9c2.7,4.2,6.9,4.7,11.7,4.8c7.4,0.1,14.8,2.1,22.1,1.7
		c7.6-0.4,15.1-2.8,22.7-4c2.8-0.4,6.2-0.7,8.6,0.6c4,2.1,7.4,1.6,11.4,0.6c1.7-0.4,5.1,0.5,5.7,1.8c3.7,7.4,7.2,14.6,5.1,23.9
		c-1.6,7,0.2,14.7,0.7,22.1c0.5,8.1-3.9,14.3-12.1,15.1c-14.8,1.3-29.7,2.8-44.5,2.6c-5.9-0.1-9.6,2.2-13.5,5.3
		c-2.2,1.7-3.5,3.5-1.8,7.3c4.4,9.5-1.3,21.5-10.9,24.7c-12.7,4.3-16.6,9.9-16.6,23.6c-0.2,0.2-0.5,0.3-0.7,0.5
		c-7.8,5.2-15.7,3.1-23.7,0.7c-1.9-0.6-3.8-1.2-5.8-1.5c-6.2-0.8-8.4,1.2-8.6,7.4c-0.2,6.2-0.5,12.5-0.8,18.7
		c-0.3,5-7.1,9.3-12.2,8.7c-6.6-0.7-13.4-0.6-20.1-0.9c-6.8-0.3-13.7-0.8-20.5-1c-8.1-0.2-13.2,5.1-13.2,13.3
		c0,11.7,0.2,23.3-0.1,35c-0.2,5.2-1.1,10.5-2.6,15.5c-1.9,6.3-7.1,8.8-13.4,9.4c-8.2,0.8-16.5,2-24.7,2.4
		c-11.2,0.4-22.5,0.6-33.7,0.1c-6.2-0.2-12.4-2.6-18.6-2.6c-6,0-12,2.2-18,2.6c-5,0.3-10-0.5-15-1c-4.8-0.5-9.6-0.9-14.2-2
		c-2.2-0.5-4.8-2.1-6-4c-4.3-6.9-5.7-14.8-5.5-22.8c0.2-7.2-0.2-14.1-4.8-20.3c-1.8-2.4-3-5.7-3.3-8.7c-0.5-6-3.8-10.3-8.2-13.5
		c-2.3-1.7-5.8-2.3-8.7-2.5c-4.1-0.3-8.3-0.1-12.4,0.6c-5.3,0.9-9.5-0.2-13-4.2c-1.2-1.4-2.4-2.8-3.8-4c-7.1-5.6-9-5.3-13.7,2.4
		c-1.6,2.6-3.7,3.2-6.5,4.2c-8,3-16,5.7-20.8,14.5c-4.2,7.6-9.9,14.9-19.5,17.3c-6.2,1.5-11.3,4.7-12.9,11.7c-0.2,0.9-1.8,2.1-2.7,2
		c-5.3-0.4-10.7-0.6-15.7-2c-2.8-0.8-4.9-3.8-7.1-5.7c-7.7-2.1-15.5-4.8-23.5-6.3c-6.9-1.2-14-1.5-21.1-1.3c-3.6,0.1-6.2,3-5.8,7.4
		c0.1,1,0,2,0,3c0,8.8-3.5,11.4-12.5,11.6c-8,0.2-16.2,1-23.9,2.9c-4.3,1.1-8.5,4.4-11.7,7.7c-4.9,4.9-11.7,6.7-18.3,4
		c-2.3-0.9-4.9-1-7.4-1.2c-4.3-0.4-8.6-0.4-12.8-1c-8.1-1-14.9,2.8-22.3,4.9c-1.4,0.4-3.1-0.1-4.7-0.2c-3.5-0.2-7.2-1.3-10.5-0.6
		c-8.7,1.8-17.1,4.7-25.8,6.4c-10.2,2-20.4,1.7-30.5-1.3c-3.2-1-6.9-1-10.3-0.9c-6.4,0.1-12.9,0.6-19.3,1
		c-5.6,0.4-11.1,1.3-16.7,1.5c-3.6,0.1-7.2-0.5-10.7-0.9c-1-0.1-1.9-0.7-2.9-0.6c-8,0.5-16,1.2-24,1.7c-0.8,0.1-1.7,0.2-2.5,0.2
		c-9.7,0-19.5,0-29.2,0.1c0-13.3,0-26.7,0-40c3.3-3.2,6.5-6.4,9.8-9.6c0.2-0.2,0.2-0.6,0.3-0.9c0.8-7.7,2.4-15.3-1.6-22.7
		c-1.9-3.5-3.3-7.7-3.4-11.6c-0.4-9.2-3.3-19,3.4-27.4c0.5-0.7,0.7-1.9,0.6-2.8c-0.9-7.9,3.3-13.1,8.9-17.8c1.1-0.9,1.8-2.3,2.6-3.4
		c0,0,0.2-0.1,0.2-0.1c1.2-0.5,2.5-1.5,3.6-1.4c5.9,0.6,6.1-4.9,8-8c0.8-1.2-1.2-4.2-2-6.5c5.5-3.2,13.5-2,19.9,3.4
		c7,5.9,14.1,11.7,21.2,17.5c7.5,6.2,15.4,11.9,22.3,18.7c9.7,9.5,30.8,10.4,39.8,4c4.5-3.2,9.7-5.4,14.5-8c7,0,14-0.1,21-0.1
		c4.8,1.8,9.6,3.5,14.3,5.4c5.7,2.3,9.3,1.5,13.6-2.8c1-1,2.8-1.6,4.3-1.6c8.9-0.1,17.2,1.1,24.4,7.7c7,6.4,16,4,23.6,1.8
		c3.7-1.1,6.8-1.6,10.3-0.9c3.6,0.7,7.1,1.4,10.6,2.4c7.6,2.2,15,5.1,17.9,13.3c2.5,7,2.2,7.4,9.5,6.8c2.7-0.2,5.5-1.8,8-3.2
		c1.7-0.9,3.1-2.4,4.6-3.7c3.9-3.4,8.7-6.4,11.6-10.5c3.1-4.4,6.8-7.1,11.6-8.7c3.6-1.2,7.2-2.3,10.8-3.3c6.6-1.8,10.8-6.7,14.1-12
		c4.5-7.2,2.6-15.5,2.6-23.3c0-0.8-0.9-1.7-1.4-2.6c-3.2-5.7-6.7-11.2-9.4-17.1c-2.3-5.1-13.2-11.1-17.6-9c-2.8,1.3-5.7,2.5-8.6,3.5
		c-9.7,3.2-20.6,4.2-26.5,14.5c-0.3,0.5-1,0.9-1.6,1.1c-9.1,2.8-18.2,5.6-27.3,8.3c-0.8,0.2-1.8,0.3-2.5-0.1
		c-6.4-3.6-11,0.3-15.7,3.7c-4.1,3-8.5,4-13.6,3.4c-5.1-0.6-10.2-0.9-15.4-1c-8.3-0.1-16.7-0.6-24.8,0.4c-8.3,1-16.5,3.6-24.7,5.4
		c-2,0.5-4.2,1.4-6.1,1c-4.8-0.8-9.6-1.8-14.2-3.3c-5.9-1.8-8.3-5.6-8.6-11.7c-0.1-1.6-0.4-3.6-1.4-4.5c-4.5-4.3-9.2-8.4-16.2-5.8
		c-1,0.4-2.3,0.2-3.5,0.3c-7.9,1-15.8,1.9-23.7,2.9c-1.1,0.1-2.5,0.3-3.4-0.2c-4.8-2.7-9.7-2-14.3,0c-10.7,4.7-20.2,2.5-29.2-4.4
		c-2.2-1.7-2.6-3-1.1-5.3c3-4.6,5.9-9.2,8.5-14c0.9-1.7,1.5-4.3,0.8-6c-1.9-4.7-3.7-9.9-7.1-13.5c-5.5-5.8-9.8-12-11.6-19.6
		c-0.8-3.3-1-7-0.3-10.2c0.2-1.3,3.6-1.8,5.4-2.9c1.3-0.8,2.5-1.7,3.4-2.9c4.4-6.2,6.9-12.7,3.9-20.4c-1.4-3.5-2.4-7.2-3.6-10.8
		c-2.5-7.3-2.1-13.7,5-18.3c0.5-0.4,1-0.9,1.5-1.4c3.9-3.7,5.7-14.5,3.1-19c-0.5-0.9-1.6-2-2.5-2.1c-7.6-1-13.9-4.9-20.2-8.8
		c-1.2-0.7-2.8-0.7-4.3-1c-4.3-0.9-8.7-1.3-12.9-2.7c-7.9-2.6-11.4-13.2-6.9-20.2c0.6-1,2.1-1.9,3.2-2c3.6-0.3,7.3-0.6,10.9-0.3
		c6.9,0.7,13.5,1.4,20.2-2.3c5.7-3.2,12.1-5.5,18.3-7.5c7-2.3,14.1-5,21.2,0.5c1.9,1.5,5,1.8,7.6,2.1c5.3,0.5,10.6,0.9,15.9,0.5
		c3.7-0.3,7.3-2.5,11.1-3c8.5-1.1,16-4.6,21.4-10.7c5.3-6,10.7-11.4,18.2-14.1c4.1-1.5,8.4-2.3,12.7-3c5.1-0.9,7.6,2.7,11.3,5.6
		c9.4,7.6,19.8,14.6,31.8,17.7c9.2,2.3,19.3,1.9,25.2-6.8c4.9-7.2,7.7-16,10.7-24.3c2.1-6,2.4-12.7,4.5-18.7
		c2.8-8.1,9.2-12.1,17.8-12.5c9,0,17.9,0.1,26.9,0.1c4,3.2,8.4,5.9,11.8,9.7c5,5.5,12,7.4,18.2,7.4c6.3,0,12.9-3.4,18.8-6.4
		c6.1-3.2,11.5-7.3,18.4-9c9-2.3,18.5-4.1,24.7-12.3c3.3-4.3,7.7-3.6,11.2-0.6c5.5,4.6,10.8,9.5,15.8,14.7c4.7,4.8,10.1,6.9,16,4.1
		c12-5.7,24.6-7,37.6-6.2c4.6,0.3,9.4,0.2,13.8-1c13.4-3.4,26.2-4.9,38.7,3.5c5.6,3.8,10.2,7.6,12,14.2c0.8,2.9,1.9,5.6,5.9,5.4
		c0.5-4,0.7-7.8,1.5-11.5c1.2-5.3,2.8-10.8,9.1-11.9c13.2-2.3,24.5-9.3,36.7-13.9c8.2-3,9.1-6.1,5.8-14.6
		c-2.7-7.1-2.3-14.2-0.2-21.2c4.2-14,11.6-26.8,13.7-41.7c2.1-15.2,10.7-28.1,18.1-41.4c4.2-7.6,6.8-15.9,4.9-24.6
		c-1.5-6.7-4.1-13.2-5.7-19.9c-0.5-2,0.1-5.2,1.4-6.5c3.3-3,7.4-4.9,11-7.5c13.2-9.3,28.7-9.5,43.8-11.4c8.3-0.1,16.5-0.3,24.8-0.4
		c2.6-0.4,5.2-1,7.8-1.2c6.1-0.5,11.6-2.1,16.1-6.6c10.5-10.7,22.8-18.9,36.6-24.5c6.3-2.6,13.1-4.6,19.8-5.8
		c8.4-1.5,17-1.8,25.5-2.9c2-0.3,4.3-1.1,5.9-2.5c4.9-4.3,10.7-6.8,16.8-8.8c2.3-0.7,4.8-2.3,6.9-1.9c5.6,1.1,11.4,2.4,16.4,4.9
		c16,7.8,32.1,10.1,49.2,4.3c2.6-0.9,5.6-1.1,8.3-1c5.2,0.3,10.4,1.8,15.6,1.5c8.6-0.5,15.8-4.7,21.2-11.3c2.5-3.1,3.9-7.3,5.3-11.2
		c1.3-3.6,1.2-8.2,3.3-11.1c5.4-7.4,12.7-12.8,20.6-17.5c1.4-0.8,3-1.7,4.5-1.8c8.2-0.1,16.5-0.7,24.6,0.3c6.2,0.8,12.2,3.2,18,5.7
		c4.2,1.8,7.8,5.4,12.8,5.5c4,0.1,8,0.3,11.9,0.4c8.5,0.1,16.9,0.3,25.4,0.3c0.6,0,1.2-0.9,1.9-1.3c1.9-0.1,3.9-0.2,5.8-0.2
		c0.4-0.2,0.8-0.4,1.1-0.6c1.8-0.3,3.6-0.4,5.3-1c3.9-1.3,7.7-3,11.7-4c5.7-1.5,10.3,2.6,15.4,3.4c7.7,1.2,12.3,6.6,17.2,11
		c6,5.5,13.3,9,20.3,10c10.4,1.4,21.5,1.8,32-1.6c1.3-0.4,2.6-0.9,3.9-1.3c4.7-0.9,9.4-1.8,14.1-2.6c1.2-0.1,2.3-0.5,3.5-0.4
		c11.7,1.3,20.9-4.8,29.8-10.9c3.5-2.4,6-3.4,9.6-1.8c2.4,1,4.8,2,7.2,3.1c0.7,1.3,1.2,2.9,2.3,4c4.3,4.4,8.7,8.6,12,11.8
		c-2,5.4-3.4,9.3-5,13c-2.6,6.1-3.8,12.3,0.1,18.2c2.6,3.8,5.9,7.1,8.8,10.7c8.7,11,20.7,13,33.2,10.5c10.5-2.1,20.5-6.2,30.8-9.2
		c8.8-2.6,17.7-5.7,26.7-6.9c10.5-1.4,21.2-1.1,31.8-1c3.1,0,6.6,1.3,9,3.1c3.8,3,6.6,7.3,10.2,10.4c4.7,4.1,9.9,7.5,14.7,11.4
		c2.6,2.2,5.3,4.5,7.4,7.1c5.2,6.7,5.7,15.8,11.4,22.4c2.2,2.5,2.9,6.2,4.3,9.4c0.5,1.2,1,2.4,1.7,3.5c3.5,4.9,3.5,10.7,2.1,15.8
		c-0.7,2.5-5.8,3.8-8.8,5.6c-0.5,0.3-1.1,0.5-1.7,0.8c0,2.1,0,3.9,0,5.7c0.1,5.1-0.9,10.3,4.3,14c0.7,0.5,0.3,3.9-0.7,5.2
		c-1.4,1.9-3.5,3.6-5.7,4.4c-9,3.5-17.8,7.8-27.2,9.7c-9.7,2-20,1.5-30,2.4c-2.4,0.2-4.6,1.7-6.9,2.5c-8.6,0-17.3,0-25.9,0
		c-1.7,0-3.4-0.1-5.1-0.1c-8.7,0.1-17.3,0.2-26,0.4c-4.2,1.7-8.5,3.2-12.6,5.1c-1.1,0.5-1.9,2.3-2.4,3.6c-1.8,5.9,4,5.7,6.6,8
		c2.2,2,10.8,1.2,13.3-0.7c7.2-0.7,14.5-4.5,21.6,1.4c2.2,1.8,6.3,1.3,9.5,1.8c6.5,1,13,2.1,19.4,3.1c3.1,0.5,6.1,0.8,9.2,1.2
		c0.6,0.5,1.2,1.6,1.8,1.6c6.3-0.4,13,1.7,18.8-2.9c1.2-1,3.4-0.9,5.1-1c4.8-0.3,9.7-0.5,14.6-0.8c11.6,0.1,23.3,0.2,34.9,0.4
		c0.1,0.4,0.3,1.3,0.4,1.3c6.7-0.4,13.4-0.7,20.1-1.5c2.6-0.3,5.1-1.8,7.6-2.7c9.3-0.1,18.7-0.3,28-0.4c5.5-1.7,11.3-2.8,16.3-5.3
		c4.2-2.1,7.7-5.8,11.4-9c5.5-4.6,13.9-4.2,17.6-12.8c3.6-8.3,5-16,3-24.4c-0.7-2.8-3-5.2-4.6-7.8c-0.6-0.4-1.2-0.7-1.8-1.1
		c0,0,0.2,0.1,0.2,0.1c0-9.6,0.1-19.3,0.1-28.9c0.9-4.9,2.6-9.8,2.5-14.7c-0.2-8.4,2.6-15.7,6.7-22.4c5.9-9.6,10.1-19.7,11.4-31
		c0.1-8.3,0.2-16.6,0.3-24.9c0.6-1.6,1.5-3.1,1.7-4.7c1.1-8.1-1.7-16.5,1.9-24.4c3.9-8.5,10.3-15.3,17-21.4
		c3.4-3.1,9.5-3.2,13.8-5.6c11-6.1,22-12.4,32.4-19.4c3.1-2.1,5.1-6.4,6.5-10.1c3.5-9.5,5.4-19.7,9.6-28.8c3.7-8,5.1-17.7,12.7-23.4
		c5.4-4,11.5-7.1,17.2-10.7c8.4-5.2,17.2-9.9,25-16c7-5.5,13.7-10,23.1-8.7c4.7,0.6,9.7-0.1,14.5,0.2c8.4,0.5,16.2-2.2,24.2-4.1
		c1.6-0.4,2.9-1.8,4.4-2.8c0.3-0.3,0.7-0.7,1-1c0,0-0.2,0-0.2,0c7.7,0,15.3,0,23,0c0,0-0.1,0-0.1,0c2.7,0.3,5.4,0.7,8.1,1
		c0,0-0.1-0.1-0.1-0.1c0.3,0.3,0.6,0.5,1,0.8c0.4,0,0.8,0.1,1.2,0.1c10.6,0,21.2,0,31.8,0c12.8-0.6,22.1-8.3,32-15.1
		c4.3-2.9,8.8-5.6,13.2-8.4c6.9-0.2,13.8-0.5,20.8-0.7C1939.6,11.1,1956.3,11.5,1972.9,11.9z"/>
	<path fill="#7F7F7F" d="M20.5,766.6c-0.9,1.2-1.6,2.5-2.6,3.4c-5.6,4.7-9.7,9.9-8.9,17.8c0.1,0.9-0.1,2.1-0.6,2.8
		c-6.7,8.5-3.8,18.2-3.4,27.4c0.2,3.9,1.6,8.1,3.4,11.6c4,7.5,2.4,15.1,1.6,22.7c0,0.3-0.1,0.7-0.3,0.9c-3.2,3.2-6.5,6.4-9.8,9.6
		c0-2.3,0-4.7,0-7c3.4-0.1,4.2-1.9,4.6-5.1c0.4-4.2,2-8.3,2.7-12.5c0.2-1.3-0.4-3.3-1.4-4c-2.9-2.2-4.3-4.7-4-8.4
		c0.1-1.3-1.2-2.6-1.9-4c0-2.3,0-4.7,0-7c2.7-1.3,2.7-2.7,0-4c0-5,0-10,0-15c3.8-0.2,3.8-2.6,3.7-5.6c-0.2-4.1-0.9-8.6,0.5-12.1
		c1.6-4.1,5-7.8,8.4-10.7C14.3,766.1,17.8,766.9,20.5,766.6z"/>
	<path fill="#7E7E7E" d="M0,822c0.7,1.3,2,2.7,1.9,4c-0.3,3.7,1,6.3,4,8.4c1,0.7,1.6,2.7,1.4,4c-0.7,4.2-2.2,8.3-2.7,12.5
		c-0.3,3.2-1.2,5-4.6,5.1C0,844.7,0,833.3,0,822z"/>
	<path fill="#606060" d="M2010.4,104.7c6.5,0.1,13,0.4,19.6,0.3c4.4-0.1,8.8-0.7,13.2-0.9c1.6-0.1,3.2,0.5,4.8,0.8c0,0.3,0,0.7,0,1
		c-9.4,0.3-18.7,0.8-28.1,0.8C2016.7,106.8,2013.6,105.4,2010.4,104.7z"/>
	<path fill="#7E7E7E" d="M0,811c2.7,1.3,2.7,2.7,0,4C0,813.7,0,812.3,0,811z"/>
	<path fill="#606060" d="M1946,105.2c9.5-1.2,19-2.4,28.6-3.5c3.9-0.5,7.9-1.1,11.8-0.8c7.4,0.5,14.9,1.7,22.3,2.7
		c0.7,0.1,1.3,0.9,1.9,1.4c-4.6-0.2-9.1-0.2-13.7-0.5c-5.4-0.3-10.7-1.5-16-1.1c-11.2,0.7-22.4,2.1-33.5,3.2
		C1946.9,106.5,1946.5,105.6,1946,105.2z"/>
	<path fill="#525252" d="M1726,373c4.7-9.4,1.9-19.7,3.8-29.5c0.9-4.5,2.1-9,3.2-13.5c-0.4,2.3-0.9,4.5-1.1,6.8
		c-0.7,8.9-1.3,17.8-1.9,26.7C1729.8,367.1,1729.9,370.9,1726,373z"/>
	<path fill="#5D5D5D" d="M1112,627c8.9,0.2,17.9,0.4,26.8,0.4c1.4,0,2.8-0.9,4.2-1.5c-1.1,1-2.2,2.8-3.4,2.9
		c-8.1,0.3-16.3,0.2-24.4,0.1C1114.1,628.8,1113.1,627.6,1112,627z"/>
	<path fill="#4F4F4F" d="M1404,508.9c17.4-0.1,34.7-0.1,52.1-0.2c1.9,0,3.9-0.4,5.8-0.6c-1,0.6-2,1.7-3,1.8
		c-17.4,0.1-34.8,0.1-52.2,0C1405.8,509.9,1404.9,509.3,1404,508.9z"/>
	<path fill="#494949" d="M557.8,584.3c-6.9,0.5-13.8,1.1-20.8,1.6c0.3-0.9,0.7-2.4,1-2.4C544.6,583.6,551.2,584,557.8,584.3z"/>
	<path fill="#303030" d="M1759.1,282.9c0-13.3,0-26.6-0.1-39.9c0.3,1.4,0.8,2.8,0.9,4.2c0.1,10.5,0.1,21,0,31.4
		C1759.9,280.1,1759.4,281.5,1759.1,282.9z"/>
	<path fill="#575757" d="M1525.9,498.9c12.9-0.1,25.9-0.1,38.8-0.2c-0.4,0.4-0.9,1.2-1.3,1.2c-11.6,0.1-23.2,0.1-34.8,0
		C1527.7,499.9,1526.8,499.2,1525.9,498.9z"/>
	<path fill="#595959" d="M1877,123.1c11.7,0,23.3,0,35,0c-1.2,0.6-2.4,1.8-3.6,1.8c-9.3,0.1-18.6,0.1-27.9,0
		C1879.4,124.9,1878.2,123.7,1877,123.1z"/>
	<path fill="#5D5D5D" d="M1106.6,628c0.9-0.3,1.8-0.6,2.7-0.9c0,0,0.2,0.2,0.2,0.3c0,0.1-0.1,0.2-0.2,0.3
		C1108.4,627.8,1107.5,627.9,1106.6,628z"/>
	<path fill="#7F7F7F" d="M148,786.2c-4.9,2.6-10.1,4.8-14.5,8c-9,6.4-30.1,5.5-39.8-4c-6.9-6.8-14.8-12.5-22.3-18.7
		c-7.1-5.8-14.2-11.6-21.2-17.5c-6.4-5.3-14.4-6.6-19.9-3.4c0.8,2.3,2.8,5.3,2,6.5c-1.9,3.1-2.1,8.5-8,8c-1.2-0.1-2.4,0.9-3.6,1.4
		c-0.9-2.8-1.1-4.6,2.8-5.9c1.9-0.7,3.8-5.2,3.5-7.8c-0.8-7.1,0.7-9.7,7.7-9.8c3.5,0,6.9,0.6,10.3,1.2c1.4,0.3,3.6,1,3.9,2
		c1.5,5.2,6.4,5,9.9,6.9c1,0.6,2.1,1,3,1.8c5.6,5.3,10.9,11,16.7,16c3.2,2.7,7.2,4.4,10.8,6.6c0.6,0.3,1.5,0.7,1.6,1.1
		c0.7,5.3,5.8,7.4,8.4,11.3c0.6,0.9,2.1,1.6,3.2,1.6c9.2,0.1,18.5,0.1,27.9,0.1c0.9-4.4,3.3-6.2,7.6-4.8c2.6-7.3,9.1-6.5,14.3-6.6
		c8.6-0.2,17.2,1.1,25.8,1.9c1.4,0.1,2.9,0.9,4.1,1.7c5.8,3.9,9,3.6,13.5-1.5c0.4-0.5,1.1-1,1.6-1.1c9.5-0.2,19.7-1.5,26.8,6
		c4.2,4.5,8.5,4.3,13.4,4.8c3.3,0.3,6.6,0.8,10.1,1.3c1.4-4.2,4.3-5.5,10.4-4.1c3.7,0.9,7.4,2,11.1,2.5c6.2,0.8,10.5,4.4,15.5,7.8
		c6,4.2,8.6,9.6,11.1,16.4c2.4-2.3,4.5-4.3,6.6-6.2c1-0.9,2-2.3,3.1-2.4c7.9-0.6,9.7-8.2,14.6-12.1c7.2-5.7,13.8-12.7,24.2-12.4
		c4.1,0.1,8.5-5,9.9-9.7c1.3-4.4-0.2-9.5,4.3-13.3c1.8-1.5,1.2-5.6-2.4-6.8c-2.8-0.9-4.1-2.1-4.7-5.4c-0.5-3-3.6-5.4-5-8.4
		c-1.1-2.2-1.5-4.9-2.2-7.2c-2.8-0.5-5.9-1.3-9-1.7c-1-0.1-2.1,0.7-3.1,1.1c-5.1,2.2-10,6-16,2c-0.6-0.4-2.7,1.1-3.8,2.1
		c-1.9,1.6-3.4,4.2-5.5,5.1c-3.3,1.3-6,2.4-5.3,7c-1.9-0.5-3.3-0.9-5.3-1.5c-0.4,6.5-5.5,6.5-10.3,7.4c-5.9,1.1-11.6,3.1-17.5,3.9
		c-3.5,0.5-7.2-0.4-10.8-1c-2.7-0.4-4.4-0.8-5.2,3.1c-0.4,2-4.6,4.5-7.1,4.7c-7.1,0.5-14.3,0-21.4-0.5c-2.7-0.2-5.3-1.3-7.9-2.1
		c-0.6-0.2-1.6-0.8-1.8-0.6c-4.6,4.9-10.7,0.4-16.1,2.6c-5.3,2.3-11.5,2.2-17.3,3.4c-2.4,0.5-4.7,1.5-7,2.4c-8.4,3-16.9,2.2-24-2.3
		c-6.7-4.3-14.5-9.2-12.8-19.7c0.5-2.8-1-4-3.9-3.2c-3.2,0.9-6.2,1.1-8.7-1.8c-0.5-0.6-2.9-0.7-3.1-0.3c-2.6,4.7-7.3,3.4-11.2,3.7
		c-6.1,0.5-12,2.4-18.5,0.4c-3.6-1.1-8.5,1.7-12.8,3.1c-7.9,2.6-15.6,0.2-23.2-1.3c-1.7-0.3-2.9-2.5-4.5-3.8
		c-1.6-1.3-3.7-2.3-4.9-3.9c-1.1-1.5-2.2-4.2-1.6-5.4c2-4,5.6-7.4,7.2-11.5c1.4-3.6,1.7-8,1.4-12c-0.3-3.5-2.1-6.9-3.3-10.3
		c-0.1-0.3-0.2-0.8-0.4-0.9c-5.3-1.4-6.2-7-9.5-9.8c-4.5-3.9-3.9-8.8-5.6-13.2c-1-2.7,0.4-6.3,0.9-9.5c0.5-3.2,2.3-5.1,5.8-5
		c4.2,0.1,5.7-2.1,6.1-6.2c0.3-2.8,1.9-5.4,3.1-8.5c-5.6-2.7-5-9.8-7.1-15.5c-1-2.6-1.4-5.6-1-8.3c0.4-2.5,1.9-5,3.3-7.3
		c1-1.7,2.3-3.3,3.8-4.6c1.1-0.9,2.7-1.1,4.3-1.7c0.2-3.2,0.3-6.7,0.5-10.1c0.2-2.8-1.1-4.4-3.9-4.7c-4.4-0.4-8.7-0.7-9.5-6.7
		c-0.1-0.8-2.9-1.6-4.6-1.8c-2.6-0.2-5.3,0.3-8,0.3C14.9,588.3,8,576.9,5.3,566.8c-0.3-0.9,0.4-2.2,0.8-3.2c1.2-2.7,2.7-5.3,3.8-8.1
		c1.7-4.4,4.8-5.4,8.9-3.2c1.7,0.9,4.3,0.5,6.5,0.2c1.7-0.2,3.5-1.7,5-1.4c8.8,2,15.5-3.6,23-6c7.8-2.5,15.6-5,23.6-7
		c2.1-0.5,4.7,1,7,1.7c4.6,1.3,9.1,2.8,13.7,4.1c2.8,0.8,5.7,1.4,9.5,2.4c3.1-3.4,8.8-4.2,14.5-5.6c5.1-1.3,9.9-4.3,14.7-6.9
		c3.7-2,7.1-4.7,10.6-7c0.5-0.4,1.5-0.9,1.5-1.3c-0.6-6,4.1-6.1,7.9-7.4c2.1-0.7,3.9-2.6,6-3.3c2.1-0.7,5.2-1.6,6.7-0.7
		c4.7,3,9.5,3.1,14.6,2c0.7-0.2,2.2,0.6,2.5,1.3c2.5,6,8.7,7.3,13.3,10.7c3.5,2.6,7.4,5.2,11.5,6.5c4.8,1.5,10.1,1.7,15.2,2.2
		c2.6,0.3,5.3,0,8.6,0c0.7-1.4,1.7-3.4,2.7-5.4c0.8-1.6,1.1-4.2,2.4-4.8c3.9-1.9,3.9-5.3,4.6-8.7c1-5.1,3.2-9.9,3.7-15
		c0.7-7.2,2.7-14,7.2-19.5c3.9-4.8,9.4-8.5,16.1-8.4c1.7,0,3.3,2.4,5,3.7c-0.7,0.5-1.3,0.9-2,1.4c-8.5,0.5-14.9,4.4-17.8,12.5
		c-2.1,6-2.4,12.7-4.5,18.7c-3,8.3-5.8,17.1-10.7,24.3c-5.8,8.7-15.9,9.1-25.2,6.8c-12-3-22.4-10.1-31.8-17.7
		c-3.7-3-6.2-6.5-11.3-5.6c-4.3,0.8-8.7,1.5-12.7,3c-7.5,2.8-12.9,8.2-18.2,14.1c-5.4,6.1-12.9,9.6-21.4,10.7
		c-3.8,0.5-7.3,2.7-11.1,3c-5.3,0.4-10.6-0.1-15.9-0.5c-2.6-0.2-5.7-0.6-7.6-2.1c-7.1-5.4-14.2-2.7-21.2-0.5
		c-6.3,2-12.6,4.3-18.3,7.5c-6.6,3.7-13.2,3-20.2,2.3c-3.6-0.4-7.3-0.1-10.9,0.3c-1.1,0.1-2.6,1-3.2,2c-4.6,7-1.1,17.6,6.9,20.2
		c4.1,1.4,8.6,1.8,12.9,2.7c1.4,0.3,3.1,0.3,4.3,1c6.3,3.9,12.6,7.8,20.2,8.8c0.9,0.1,2,1.2,2.5,2.1c2.7,4.5,0.9,15.3-3.1,19
		c-0.5,0.5-0.9,1-1.5,1.4c-7.1,4.6-7.5,11-5,18.3c1.2,3.6,2.2,7.3,3.6,10.8c3.1,7.7,0.6,14.2-3.9,20.4c-0.8,1.2-2.1,2.1-3.4,2.9
		c-1.8,1.1-5.2,1.7-5.4,2.9c-0.6,3.3-0.5,6.9,0.3,10.2c1.8,7.7,6.2,13.8,11.6,19.6c3.4,3.6,5.2,8.8,7.1,13.5c0.7,1.7,0.1,4.3-0.8,6
		c-2.6,4.8-5.5,9.4-8.5,14c-1.5,2.3-1.1,3.7,1.1,5.3c9,6.9,18.5,9.1,29.2,4.4c4.7-2.1,9.5-2.7,14.3,0c0.9,0.5,2.3,0.3,3.4,0.2
		c7.9-0.9,15.8-1.9,23.7-2.9c1.2-0.1,2.4,0.1,3.5-0.3c7.1-2.7,11.8,1.4,16.2,5.8c1,1,1.3,3,1.4,4.5c0.3,6.1,2.7,9.9,8.6,11.7
		c4.6,1.4,9.4,2.5,14.2,3.3c1.9,0.3,4.1-0.6,6.1-1c8.2-1.9,16.4-4.5,24.7-5.4c8.2-1,16.6-0.5,24.8-0.4c5.1,0.1,10.3,0.4,15.4,1
		c5.1,0.6,9.5-0.5,13.6-3.4c4.7-3.4,9.3-7.3,15.7-3.7c0.6,0.4,1.7,0.3,2.5,0.1c9.1-2.7,18.2-5.5,27.3-8.3c0.6-0.2,1.3-0.6,1.6-1.1
		c5.9-10.3,16.8-11.3,26.5-14.5c2.9-1,5.8-2.1,8.6-3.5c4.4-2.1,15.3,3.9,17.6,9c2.7,5.9,6.2,11.4,9.4,17.1c0.5,0.9,1.4,1.7,1.4,2.6
		c0,7.9,1.8,16.2-2.6,23.3c-3.3,5.3-7.5,10.2-14.1,12c-3.6,1-7.3,2.1-10.8,3.3c-4.8,1.6-8.5,4.3-11.6,8.7
		c-2.9,4.2-7.6,7.1-11.6,10.5c-1.5,1.3-2.9,2.8-4.6,3.7c-2.5,1.3-5.3,3-8,3.2c-7.4,0.5-7,0.1-9.5-6.8c-2.9-8.2-10.3-11.1-17.9-13.3
		c-3.5-1-7.1-1.7-10.6-2.4c-3.5-0.7-6.6-0.1-10.3,0.9c-7.7,2.2-16.6,4.6-23.6-1.8c-7.1-6.5-15.5-7.8-24.4-7.7
		c-1.5,0-3.3,0.6-4.3,1.6c-4.3,4.3-7.9,5.1-13.6,2.8c-4.7-1.9-9.5-3.6-14.3-5.4C162,786.1,155,786.1,148,786.2z"/>
	<path fill="#7F7F7F" d="M684.1,277.8c-15.1,2-30.6,2.2-43.8,11.4c-3.6,2.6-7.8,4.6-11,7.5c-1.4,1.2-1.9,4.5-1.4,6.5
		c1.6,6.7,4.2,13.1,5.7,19.9c1.9,8.8-0.6,17-4.9,24.6c-7.4,13.2-16,26.2-18.1,41.4c-2.1,14.9-9.4,27.7-13.7,41.7
		c-2.1,7-2.5,14.2,0.2,21.2c3.3,8.5,2.4,11.6-5.8,14.6c-12.3,4.5-23.5,11.6-36.7,13.9c-6.3,1.1-7.9,6.6-9.1,11.9
		c-0.8,3.7-1,7.5-1.5,11.5c-4,0.3-5.1-2.5-5.9-5.4c-1.8-6.7-6.3-10.5-12-14.2c-12.5-8.3-25.3-6.9-38.7-3.5c-4.4,1.1-9.2,1.2-13.8,1
		c-13.1-0.8-25.6,0.6-37.6,6.2c-5.9,2.8-11.4,0.7-16-4.1c-5-5.1-10.3-10.1-15.8-14.7c-3.6-3-8-3.6-11.2,0.6
		c-6.3,8.2-15.7,10-24.7,12.3c-7,1.8-12.4,5.9-18.4,9c-5.9,3.1-12.5,6.4-18.8,6.4c-6.2,0-13.2-1.8-18.2-7.4
		c-3.4-3.7-7.8-6.5-11.8-9.7c-0.7-0.5-1.3-1-2-1.5c0.6-2.9,2.6-3.6,4.8-2.4c2.6,1.4,5.7,2.8,7.1,5.2c3.4,5.6,9.1,6.5,14.4,8.3
		c8.3,2.9,15.5-1.8,22.8-4.7c4.9-2,9.1-5.3,14-7.2c7.7-3,15.8-5.3,23.6-8.1c1.3-0.5,2.2-2.2,3.3-3.3c1.8-1.9,3.4-5,5.4-5.3
		c3.5-0.5,8.2-2.2,10.3,3.1c0.4,1,1.4,2.7,1.9,2.6c8.2-1,10.3,6.8,14.9,10.6c7.2,5.8,9.6,7.2,18,2.7c6.2-3.3,11.6-4.2,18.8-3
		c7.5,1.3,15.7-1.1,23.5-2c10-1.1,20.1-2.4,30.1-3.5c3.1-0.3,5.8,0.5,7.3,3.9c0.5,1.2,2.7,2.1,4.2,2.3c4.4,0.4,8.6,0.5,10,6.1
		c0.3,1.2,2.8,1.9,5,3.3c0.4,1.1,1.2,3.3,2,5.5c0.7-0.1,1.4-0.2,2.1-0.3c-2.4-4.1-2.3-7.3,2.2-9.1c0.3-0.1,0.6-0.5,0.6-0.7
		c-0.4-8.3,6.5-7.8,11.3-8.9c5.9-1.3,10.8-4.6,16.1-6.9c3.7-1.6,7.9-2.2,11.9-3.2c0.9-0.2,1.9-0.4,2.8-0.8c2.5-1.1,5-2.4,7.1-3.4
		c-1.3-3.9-2.8-8.3-4.3-12.7c-2.7-7.9-0.8-15.1,2.9-22.3c1.6-3.2,2-7.1,3.5-10.4c1.8-4,4.2-7.8,6.5-11.9c0-1.8-0.4-4.3,0.1-6.8
		c1.1-6,2.2-12,3.9-17.8c1-3.3,3.3-6.2,4.9-9.3c2.7-5,5.3-10.1,7.9-15.2c0.4-0.7,0.3-2,0.8-2.3c5.8-3,4.3-8.7,5.3-13.5
		c0.2-0.8,0.2-1.7,0.6-2.4c3.5-5.9,2.5-13.4-0.9-19.4c-2.5-4.5-5-10.3-4.1-14.9c0.7-4.2,5.8-7.8,9.1-11.4c1.4-1.5,3.3-2.6,4.9-3.9
		c0.5-0.4,0.8-1.3,1.3-1.4c8.3-2.5,14.8-9.7,24.2-9c3.5,0.3,7,1.3,10.6,1.7c1.3,0.1,3.5-0.5,3.8-1.3c2.1-5.7,6.5-3.7,10.1-3
		c8.4,1.8,16.4,2.9,24.5-1.4c3.3-1.8,7.9-2.4,11.6-1.9c6.3,1,7.8-4.3,11.3-7.1c0.6-0.5,0.9-2,1.4-1.9c6.4,0.2,6.8-6.7,10.9-9
		c4.4-2.6,9.6-4,13.5-7.1c7.1-5.6,15.1-8.3,23.6-9.8c6.2-1.1,12.5-1.5,18.7-2c9.9-0.8,18.5-3.5,26.2-10.6c3.8-3.5,11.1-4.4,16.8-4.5
		c5.3-0.1,10.7,2,15.8,3.8c1.7,0.6,2.7,3.2,4,4.8c5,0.7,10.2,1.4,15.4,2.2c0.8,0.1,1.8,0.8,2.3,1.5c2.7,4.2,7.1,4.7,10.5,1.3
		c1-0.9,2.4-1.6,3.8-1.9c5.5-1.2,11.2-1.8,16.5-3.6c4-1.4,6.4-1.7,7.1,3.6c8.2-1.8,16.1-3.4,24-5.3c1.2-0.3,2.4-1.2,3.2-2.2
		c4.4-5,9.8-9.4,9.6-17c-0.1-1.8,0.3-4.8,1.3-5.1c8.2-3,7-14.9,16.4-17c2.4-0.5,4.1-3.6,6.3-5.4c7.9-6.3,17.1-3.8,25.9-3.7
		c2.3,0,4.7,0.1,6.9,0.8c1.8,0.6,3.2,2.2,4.8,3.2c1.2,0.8,2.5,1.8,3.9,1.9c2.7,0.3,5.7-0.7,8.1,0.1c5.9,2.1,11.5,4.9,17.2,7.3
		c1.1,0.5,2.5,0.5,3.7,0.8c2.1,0.5,4.2,1.1,6.3,1.4c3.6,0.5,7.2,0.9,10.7,1c4.3,0.1,8.1,0.4,12.1-3.4c3-2.8,9-2.6,13.7-3.4
		c2.9-0.5,5.9-0.3,8.8-0.5c0.7-0.1,1.9-0.3,2.1-0.8c2.3-4.6,6.5-3,9.7-2.5c4.5,0.7,9,2.3,13.3,4c1.2,0.5,1.7,2.7,2,3
		c6.8,4,13.4,6.8,18.7,11.2c5.5,4.6,11.8,5.8,18.3,6.3c9.9,0.7,19.9,0.1,29.2-4.1c1-0.5,2.9,0.1,4,0.8c2.6,1.7,4.3,2.2,6.7-0.7
		c2.9-3.3,5.2-1.6,6.4,2.1c-1,0.7-2,1.4-3,2.1c-4.7,0.9-9.4,1.8-14.1,2.6c-1.3,0.4-2.6,0.9-3.9,1.3c-10.5,3.4-21.5,3-32,1.6
		c-7-1-14.3-4.5-20.3-10c-4.9-4.4-9.4-9.8-17.2-11c-5.1-0.8-9.7-4.9-15.4-3.4c-4,1-7.8,2.8-11.7,4c-1.7,0.5-3.5,0.6-5.3,1
		c-0.2-0.2-0.4-0.3-0.7-0.5c-0.2,0.4-0.3,0.7-0.5,1.1c-1.9,0.1-3.9,0.2-5.8,0.2c-5.4,0-10.8-0.1-16.2,0c-3.7,0.1-7.4,0.6-11,1
		c-4-0.1-8-0.3-11.9-0.4c-5-0.1-8.5-3.6-12.8-5.5c-5.8-2.5-11.8-5-18-5.7c-8.1-1-16.4-0.4-24.6-0.3c-1.5,0-3.1,0.9-4.5,1.8
		c-7.8,4.7-15.2,10.1-20.6,17.5c-2.1,2.9-2,7.5-3.3,11.1c-1.4,3.9-2.7,8.1-5.3,11.2c-5.4,6.5-12.7,10.7-21.2,11.3
		c-5.1,0.3-10.4-1.2-15.6-1.5c-2.8-0.1-5.7,0.1-8.3,1c-17.1,5.8-33.3,3.5-49.2-4.3c-5.1-2.5-10.8-3.8-16.4-4.9
		c-2.1-0.4-4.6,1.1-6.9,1.9c-6.1,1.9-11.9,4.4-16.8,8.8c-1.5,1.3-3.8,2.2-5.9,2.5c-8.5,1.1-17.1,1.4-25.5,2.9
		c-6.7,1.2-13.5,3.2-19.8,5.8c-13.8,5.6-26.1,13.9-36.6,24.5c-4.5,4.6-10,6.1-16.1,6.6c-2.6,0.2-5.2,0.8-7.8,1.2
		c-0.6-0.4-1.3-1.2-1.9-1.2c-6.8-0.1-13.5-0.1-20.3,0C685.8,276.1,684.9,277.2,684.1,277.8z"/>
	<path fill="#7F7F7F" d="M1385,378.7c2.3-0.9,4.5-2.3,6.9-2.5c10-0.9,20.2-0.4,30-2.4c9.3-1.9,18.2-6.2,27.2-9.7
		c2.2-0.9,4.3-2.6,5.7-4.4c1-1.3,1.4-4.7,0.7-5.2c-5.2-3.7-4.3-8.9-4.3-14c0-1.8,0-3.7,0-5.7c0.6-0.3,1.1-0.5,1.7-0.8
		c3.1-1.8,8.2-3.1,8.8-5.6c1.4-5,1.4-10.9-2.1-15.8c-0.7-1-1.2-2.3-1.7-3.5c-1.4-3.2-2.1-6.9-4.3-9.4c-5.7-6.6-6.2-15.7-11.4-22.4
		c-2.1-2.7-4.7-5-7.4-7.1c-4.8-3.9-10-7.3-14.7-11.4c-3.7-3.2-6.4-7.5-10.2-10.4c-2.4-1.9-6-3.1-9-3.1c-10.6-0.1-21.3-0.3-31.8,1
		c-9,1.2-17.9,4.3-26.7,6.9c-10.3,3-20.3,7.1-30.8,9.2c-12.6,2.5-24.5,0.5-33.2-10.5c-2.9-3.6-6.2-6.9-8.8-10.7
		c-4-5.9-2.7-12-0.1-18.2c1.6-3.8,3-7.7,5-13c-3.3-3.2-7.7-7.4-12-11.8c-1-1.1-1.5-2.7-2.3-4c0.3-0.7,0.6-1.3,1-2
		c5.9,2,10.7,5.7,13.4,11.1c1.3,2.5,3,4.9,3.7,8.4c1.4,7.5-2.7,12.2-6,17.4c-1.5,2.3-2.2,3.2-0.3,5.8c4.1,5.4,7.6,11.3,11.5,17
		c0.6,0.9,1.5,2.1,2.4,2.2c9.2,0.9,18.5,1.5,27.8,2.3c1.6,0.1,3.3,0.7,4.9,0.5c1.8-0.3,3.6-1.2,5.2-2c3.6-1.9,6.9-4.6,10.8-5.8
		c6.6-2.1,13.4-3.5,20.2-4.8c1.8-0.4,3.7,0.4,5.6,0.6c1.6,0.2,3.8,1.1,4.8,0.3c3.8-2.9,7.9-1.6,11.9-1.7c4.1-0.1,7.9-0.8,11.9-2.1
		c5.2-1.6,11.6-2.7,17.3,0.3c1.6,0.8,3.6,0.7,5.2,1.5c1.9,0.9,4.4,2,5.1,3.7c1.2,2.9,1.2,6.2,5.4,6.3c0.1,0,0.4,0.2,0.4,0.3
		c0.2,8.1,9.9,7.3,12.6,13.4c0.7,1.7,4.1,3,6.3,3c5.5,0.2,6.6,4.9,8.3,8.1c1.9,3.7,6,7.7,3.2,11.6c1.9,2.7,3.3,4.8,4.7,6.9
		c0.5,0.8,0.9,1.8,1.4,2.6c6.3,8.6,8.3,18.4,8.5,28.8c0.1,5.4-2.7,8.7-7.1,11c-4.6,2.4-5.3,7.5-1.5,11.1c5.2,4.9,4.4,8.4-0.3,13.8
		c-4.8,5.5-11.1,8.9-17.3,10.6c-12.1,3.3-23.3,10.7-36.9,8.2c-5.2-0.9-10.9,0.5-16.4,0.5c-1.2,0-2.4-1.7-3.6-2.6
		C1384.3,379.6,1384.6,379.1,1385,378.7z"/>
	<path fill="#777777" d="M1567.8,336.9c1.6,2.6,4,5,4.6,7.8c2,8.4,0.6,16.1-3,24.4c-3.7,8.6-12.1,8.1-17.6,12.8
		c-3.7,3.1-7.2,6.8-11.4,9c-5.1,2.5-10.9,3.6-16.3,5.3c0-0.4-0.1-0.7-0.1-1.1c0.6-0.5,1.2-1.5,1.9-1.6c9.2-1.6,15.6-7.6,22.5-13.1
		c2.6-2.1,6-3.8,9.3-4.5c8.5-1.9,10.6-8.8,12.1-15.5c1.5-7,2.9-14.5-3.8-20.3c-0.9-0.8-0.6-2.8-0.8-4.2c0.4,0,0.7,0.1,1.1,0.1
		c0,0-0.2-0.1-0.2-0.1C1566.6,336.2,1567.2,336.6,1567.8,336.9z"/>
	<path fill="#777777" d="M1586.9,238.9c-1.3,11.3-5.5,21.4-11.4,31c-4.2,6.8-6.9,14.1-6.7,22.4c0.1,4.9-1.6,9.8-2.5,14.7
		c-0.4,0-0.9,0-1.3,0c0.7-15.9,2.8-31.4,11.6-45.4c3.4-5.4,4.7-12.1,7.1-18.2c0.6-1.6,1.7-3,2.5-4.5c0,0,0.3,0,0.3,0L1586.9,238.9z"
		/>
	<path fill="#7F7F7F" d="M1332.9,395c-2.5,1.9-11.1,2.7-13.3,0.7c-2.6-2.3-8.5-2.1-6.6-8c0.4-1.4,1.2-3.1,2.4-3.6
		c4.1-1.9,8.4-3.4,12.6-5.1c0.3,0.4,0.7,0.7,1,1.1c-2.2,2.1-4.5,4.2-6.5,6.5c-0.6,0.7-1.3,2.4-1,2.9c1.3,1.7,2.8,3.6,4.7,4.4
		C1328.2,394.7,1330.7,394.6,1332.9,395z"/>
	<path fill="#757575" d="M1261,192c-0.3,0.7-0.6,1.3-1,2c-2.4-1-4.8-2-7.2-3.1c-3.7-1.6-6.2-0.5-9.6,1.8c-8.8,6.1-18,12.2-29.8,10.9
		c-1.1-0.1-2.3,0.2-3.5,0.4c1-0.7,2-1.4,3-2.1c1.7,0,3.4,0,5,0c0.3-0.3,0.6-0.6,1-0.9c10.6-0.8,18-7.7,26.2-13.1
		c1.8-1.2,5.2-0.7,7.6,0C1255.7,188.7,1258.3,190.6,1261,192z"/>
	<path fill="#777777" d="M1433,399.2c-4.9,0.2-9.7,0.4-14.6,0.8c-1.7,0.1-3.9,0-5.1,1c-5.8,4.6-12.5,2.5-18.8,2.9
		c-0.6,0-1.2-1-1.8-1.6c0.7-0.4,1.4-1.1,2.1-1.2c12.8-1.1,25.6-2.1,38.3-3.1C1433.1,398.5,1433.1,398.9,1433,399.2z"/>
	<path fill="#595959" d="M1972.9,11.9c-16.7-0.4-33.3-0.8-50-1.1c0,0-0.1,0-0.1,0c1.6-0.5,3.2-1.5,4.9-1.6
		c12.1-0.1,24.2-0.3,36.3,0.1C1967,9.2,1970,10.9,1972.9,11.9z"/>
	<path fill="#777777" d="M1590.8,185c-3.6,7.9-0.8,16.3-1.9,24.4c-0.2,1.6-1.1,3.1-1.7,4.7c-0.4,0-0.8,0-1.2-0.1
		c0-7.9,0-15.8,0.1-23.7C1586.2,187.4,1587.3,185,1590.8,185z"/>
	<path fill="#777777" d="M1496.1,396.6c-2.5,0.9-5,2.4-7.6,2.7c-6.7,0.8-13.4,1.1-20.1,1.5c-0.1,0-0.3-0.8-0.4-1.3
		c-0.1-0.5-0.1-1-0.2-1.5c9.5,0,19.1,0.4,28.3-3C1496.1,395.6,1496.1,396.1,1496.1,396.6z"/>
	<path fill="#494949" d="M1922.9,10.7C1922.9,10.7,1922.9,10.7,1922.9,10.7c-6.9,0.3-13.8,0.5-20.7,0.8c0.8-0.5,1.6-1.3,2.4-1.3
		C1910.7,10.2,1916.8,10.5,1922.9,10.7z"/>
	<path fill="#515151" d="M1815,33.1c-7.7,0-15.3,0-23,0c1.8-0.7,3.5-1.9,5.3-2c4.6-0.3,9.2-0.2,13.8,0
		C1812.4,31.2,1813.7,32.4,1815,33.1z"/>
	<path fill="#7F7F7F" d="M1353.9,378.6c1.7,0,3.4,0.1,5.1,0.1c0.3,0.5,0.6,0.9,1,1.4c-1.4,1.2-2.8,2.5-4.2,3.7
		c-0.9-1.2-1.9-2.5-2.8-3.7C1353.3,379.6,1353.6,379.1,1353.9,378.6z"/>
	<path fill="#343434" d="M1467.8,398.1c0.1,0.5,0.1,1,0.2,1.5c-11.6-0.1-23.3-0.2-34.9-0.4c0-0.4,0.1-0.8,0.1-1.2
		C1444.7,398.1,1456.3,398.1,1467.8,398.1z"/>
	<path fill="#303030" d="M1856.9,34.9c-10.6,0-21.2,0-31.8,0c7.4-0.3,14.8-0.7,22.2-0.8C1850.5,34,1853.7,34.6,1856.9,34.9z"/>
	<path fill="#343434" d="M1565,307c0.4,0,0.9,0,1.3,0c0,9.6-0.1,19.3-0.1,28.9c-0.4,0-0.7-0.1-1.1-0.1
		C1565.1,326.2,1565,316.6,1565,307z"/>
	<path fill="#575757" d="M1496.1,396.6c0-0.5,0-1,0-1.6c8.3,0,16.6,0,24.9,0c1,0,2,0,3,0.1c0,0,0,0,0,0c0,0.4,0.1,0.7,0.1,1.1
		C1514.7,396.3,1505.4,396.5,1496.1,396.6z"/>
	<path fill="#4A4A4A" d="M299,478.9c0.7,0.5,1.3,1,2,1.5c-9,0-17.9-0.1-26.9-0.1c0.7-0.5,1.3-0.9,2-1.4
		C283.7,478.9,291.3,478.9,299,478.9z"/>
	<path fill="#3F3F3F" d="M1353.9,378.6c-0.3,0.5-0.6,1-0.9,1.5c-8,0-16,0-24,0c-0.3-0.4-0.7-0.7-1-1.1
		C1336.6,378.8,1345.3,378.7,1353.9,378.6z"/>
	<path fill="#3D3D3D" d="M1360,380.1c-0.3-0.5-0.6-0.9-1-1.4c8.6,0,17.3,0,25.9,0c-0.3,0.5-0.6,0.9-1,1.4
		C1376,380.1,1368,380.1,1360,380.1z"/>
	<path fill="#343434" d="M1586,214c0.4,0,0.8,0,1.2,0.1c-0.1,8.3-0.2,16.6-0.3,24.9l-0.3,0c0,0-0.3,0-0.3,0
		C1586.2,230.6,1586.1,222.3,1586,214z"/>
	<path fill="#515151" d="M1823,34.1c-2.7-0.3-5.4-0.7-8.1-1C1817.6,33.4,1820.3,33.7,1823,34.1z"/>
	<path fill="#777777" d="M1524,395.1c-1,0-2,0-3-0.1C1522,395,1523,395,1524,395.1z"/>
	<path fill="#515151" d="M1792.2,33.2c-0.3,0.3-0.7,0.7-1,1C1791.5,33.8,1791.9,33.5,1792.2,33.2z"/>
	<path fill="#515151" d="M1823.9,34.8c-0.3-0.3-0.6-0.5-1-0.8C1823.2,34.2,1823.6,34.5,1823.9,34.8z"/>
	<path fill="#7F7F7F" d="M1219,201c-0.3,0.3-0.6,0.6-1,0.9C1218.4,201.6,1218.7,201.3,1219,201z"/>
	<path fill="#606060" d="M684.1,277.8c0.9-0.6,1.7-1.6,2.6-1.7c6.8-0.1,13.5-0.1,20.3,0c0.7,0,1.3,0.8,1.9,1.2
		C700.6,277.5,692.3,277.6,684.1,277.8z"/>
	<path fill="#595959" d="M1056,192c3.7-0.3,7.4-0.8,11-1c5.4-0.2,10.8,0,16.2,0c-0.6,0.5-1.2,1.3-1.9,1.3
		C1072.9,192.3,1064.4,192.2,1056,192z"/>
	<path fill="#353535" d="M148,786.2c7,0,14-0.1,21-0.1C162,786.1,155,786.1,148,786.2z"/>
	<path fill="#757575" d="M1192,207.9c1.3-0.4,2.6-0.9,3.9-1.3C1194.6,207.1,1193.3,207.5,1192,207.9z"/>
	<path fill="#343434" d="M1567.8,336.9c-0.6-0.4-1.2-0.7-1.8-1.1C1566.6,336.2,1567.2,336.6,1567.8,336.9z"/>
	<path fill="#595959" d="M1089.1,190.8c0.2-0.4,0.3-0.7,0.5-1.1c0.2,0.2,0.4,0.3,0.7,0.5C1089.8,190.4,1089.4,190.6,1089.1,190.8z"
		/>
</g>
<g>
</g>
<g>
</g>
<g>
</g>
<g>
</g>
<g>
</g>
</svg>
