<svg xmlns="http://www.w3.org/2000/svg" viewBox="0 0 933.19 536.84"><defs><style>.cls-1{fill:#a59b87;}.cls-2{fill:#bab4a5;}.cls-3{fill:#e3dbcb;}.cls-4{fill:#877758;}</style></defs><title>rocks-3</title><g id="Layer_2" data-name="Layer 2"><g id="Layer_1-2" data-name="Layer 1"><path class="cls-1" d="M219.8,87S267.22,50.56,296.41,36,388-3.61,431.6,6.65,498.3,40,536.78,70.79s79.53,48.74,92.35,53.87S654.79,217,642,235c0,23.09-20.53,97.49-64.13,123.14s-89.8,23.09-136,18S362.33,363.24,339.24,353c-30.78,23.08-61.57,46.17-97.48,51.3s-64.14-28.22-102.63-33.35-51.3-5.12-59-12.83-12.82-2.56-12.82-48.74-23.61-70.86,1-102.13,32.84-23.05,32.84-23.05c-8.21-28.74-.51-57,17.45-69.79S220.94,75.07,219.8,87Z"/><path class="cls-2" d="M541.32,76.85q-.14-.52-.3-1c-9.56-31-63-50-89.57-59.69-48.63-17.72-95.67-9.9-140.8,14C274.64,49.19,244.3,79.45,203.16,87c-20.06,3.66-40.77,4.21-59.53,13.08-20,9.47-51.95,40-49.39,58,6.87-10.11,62.07-7.22,69.27,0-12.83,0-23.09,2.56-35,8.18-11,5.2-20.68,12.8-31,19.25-23.14,14.46-33.12,26.27-35.88,47.41,11.16,29.72,8.25,86.77,51.24,85.66,9.56-.26,23.88-6,33-.53,7.67,4.59,9.92,11.2,12.83,19.36,5.92,16.63,17.93,18.55,30.43,28.21.78.61,1.48,1.26,2.18,1.91-1.94-15.53-8.44-29.11-18-42.95-5.57-8.06-11.35-16-16.34-24.49-3.93-6.66-5.78-14.75-10.35-21-6-8.28-15.76,5.89-22.26,7.09-5,.92-11.07-1.09-15.34-3.52C99,276.88,89.69,268,87.23,256.49l-1.94-1.41c-2.57-1.86-.1-6.17,2.51-4.29a0,0,0,0,1,0,0,2.65,2.65,0,0,1,3.78,2.12c0,.27.13.54.16.81,7.83,6,16.49,12.71,26.53,12,7.34-.49,15.39-1.59,20.61-7.29a12.59,12.59,0,0,1,3.52-3c10.62-5.6,30.86,23.29,34,30.4,5.82,13,9,25.07,20.56,34.29,6.32,5,11.47,10.41,13.06,18.61a53.37,53.37,0,0,1,.73,5.46,2.09,2.09,0,0,1,1.29,1.61c3.12,15.12,15.92,33,30.39,30.18,15.77-11.63,28.93-29.48,42.43-41.41,36.84-32.55,80.17-50.32,124.86-68.39,21.7-8.78,33-28.52,47.08-46.1,19.42-24.15,40.2-38.43,70.73-44.41,2-19.5,4.61-38.79,8.86-57.94C539.29,105,545,90.1,541.32,76.85Z"/><path class="cls-3" d="M334.46,218.44c-14.35-1.37-41.89,1.79-49-15.23-4.59-11.05-10-17.51-22-20.29-6.52-1.51-14.08.13-20.57.91-13.8,1.67-22.76-6.34-32.79-13.77-9.38-6.94-22.78-5.37-34.85-2.83-29.57-3.9-61.38,6.47-84.37,25.24-13.8,11.26-34,33.38-15.13,49.4,26.86,22.74,81.65-4.09,110.85-5.38,27-1.18,54.18,14,79.55,21.14,16.41,4.64,34.23,5.69,51.18,5.42,16-.25,53.49-2.85,56.39-24.58C376.17,220.17,346.08,219.55,334.46,218.44Z"/><path class="cls-3" d="M466.83,38.15C444.34,5.63,396.6-2.47,363.88,18.4c-17.34,3.93-34.5,11.3-50.32,18.09s-30.1,15.9-43.92,25.7c-6.11,2-12,4.5-17.23,8.55-9.68,7.49-18.29,15.85-28.7,22.44-10,6.35-21.57,8.49-31.92,13.89-1.28.67-2.52,1.38-3.78,2.07-9.75,3.36-19.63,6.46-29.42,9.74a72.53,72.53,0,0,1,31.93-18.79c5.41-1.53,4.54-10.54-1.36-10-33.81,2.83-86.85,20.24-96.06,57.62-1,4.06,3.69,8.63,7.6,5.84,4.79-3.42,10.71-5.16,16.82-6.29a4.89,4.89,0,0,0,4.15-.66l0,0c4.54-.65,9.07-1.1,13.23-1.73,14.74-2.26,27-8,39.73-15.54,10.79-6.39,22-11.25,33.19-16.43q4.28-1.71,8.51-3.59c21.18-9.49,39-24.33,57.56-38.08,10.36-3.84,22.16-5.66,32.08-9.9,18-7.7,33.06-20.07,51.8-26.68,10.73-3.79,25.88-5.64,41.67-5.6,6.37.57,12.73,1.48,19.1,2.52,10.1,2.71,20.4,6,31.54,8.83,3.87,2.13,8.1,3.08,13.55,3.35C466.33,43.81,468.4,40.41,466.83,38.15Z"/><path class="cls-3" d="M478,103.71a29.71,29.71,0,0,1-9.56-20.12A4.42,4.42,0,0,0,464.16,80C441,81.72,423.48,56.89,399.24,57.14c-12.05.12-24.28,5.09-35.89,8.08-15.71,4-31.43.3-47,5C307.68,72.83,299.7,79,291.92,83.7c-10.76,6.51-22.49,8.7-33.34,14.26a58.48,58.48,0,0,0-22.15,20.26c-8.1,8.79-12.48,21.32-8.4,34.16,9.57,30.22,50.17,8.51,66.45,3.11,18.79-6.25,40.17,1.54,59.08,2.54,13.19.71,22.73-11.66,31.05-21,8.93-10.05,18.29-15.51,30-20.75,18.16-8.15,15.21,4.71,26.43,8.14,12.52,3.83,27.14-4.28,36.93-12.12C480.51,110.2,481.13,105.61,478,103.71Z"/><path class="cls-4" d="M640.87,126.33a5.8,5.8,0,0,0-4.17-5.47c-55.11-17-93.7-52.69-137.19-88.28C473.61,11.38,447.93,1,414.45.07,317.08-2.55,248,70,167.31,112.3c-1.61.85-.48,3.64,1.26,3C269.07,77,382.17-45.5,491.37,40.72,514.36,58.87,534.68,79.37,559,96a312.09,312.09,0,0,0,43.6,24.28c12.66,5.93,26.19,5.79,28.28,21.62,4.16,31.49,25.71,59.46,5.79,90.37-16,24.81-47,36.32-60.3,63.34a2.34,2.34,0,0,0,3.66,2.83c25.66-20.18,57.42-41.72,72.64-71.39C668.48,196.17,642.27,157.41,640.87,126.33Z"/><path class="cls-4" d="M649,221a1.17,1.17,0,0,0-2.29-.3C635.18,255.1,628,288,607.81,319.2c-20.39,31.48-49.45,47.67-85.88,51.79-28.89,3.27-58.38,2.44-87.29.19-26.51-2.06-63.53-4.55-85.17-22.25-6.45-5.28-15.74,3.9-9.22,9.23,20.86,17,50.43,20.77,76.25,24.19,37.69,5,77,5.55,114.74.55C601.65,373.58,654.65,289.62,649,221Z"/><path class="cls-4" d="M397.21,269.28C358.46,294,346.52,344.14,307.5,370.15c-21.5,14.34-48.73,27.65-74.7,30.06-27.4,2.55-56.22-15.34-77.32-30.84-13-9.58-30.73-18.2-47.31-15.07C65.13,362.42,74.66,325,73,299.9c-1.17-17.27-6.43-34.28-9.44-51.27C58.09,218,77.05,199.7,101.17,184.19a4.92,4.92,0,0,0,2.25-5.51c-21.6-67.48,70-80.73,115.52-95.41a1.16,1.16,0,0,0-.62-2.24c-43.16,10-119.94,16-127.89,72.05a44.28,44.28,0,0,0,0,12.06c1.93,14.3-2,15-13.41,23.71-11.22,8.58-19.37,19.44-23.81,32.8-10,30,9.42,66.76,8.48,97.35-.67,21.88,7.33,52.91,37,48.52,45.91-6.78,77.81,37.88,123.17,43.88,33.73,4.46,79.8-19.65,104.1-40.69,30.4-26.33,52.08-65.11,74.73-97.92C402.19,270.66,399.32,267.94,397.21,269.28Z"/><path class="cls-4" d="M534.43,120.08c.09-.29-.35-.4-.45-.12a126.3,126.3,0,0,0-7,30.2c-.94,7.63,3.17,23.65-6.34,23.67-14.94,0-29.33,11-40.49,19.56-25.36,19.41-57.55,49.41-67.4,80.83a1.65,1.65,0,0,0,2.73,1.59c15.14-16.4,27.64-34.86,42.7-51.38,16.54-18.14,42.86-46.78,69.75-45.11a2.49,2.49,0,0,0,2.5-2.49C529.67,157.56,529,138.82,534.43,120.08Z"/><path class="cls-4" d="M205.33,113.52c-3.19,12.53-6.53,47.46-23.57,43.26-14-3.46-29.89.06-43.51,3.56-24.6,6.32-59.15,21.59-73.11,43.71-1.37,2.18,1.23,4,3.19,3.19,16.22-7.07,30.12-19.78,46-28,24.29-12.65,51.3-18.55,78.12-11.53a3.65,3.65,0,0,0,4.42-2.51c5.07-16.8,7.41-33.93,9.83-51.26C206.8,113,205.56,112.62,205.33,113.52Z"/><path class="cls-4" d="M160.58,294c-2.68-6.15-12.1-23.57-21.62-19.74-5.82,2.34-9.86,5.73-14.92,9.53-11.39,8.55-35.68-27.36-37.28-31.43-.32-.82-1.61-.51-1.35.37,4.12,13.41,24.07,43.6,41.46,35.9,2.45-1.54,4.86-3.12,7.25-4.74q17.26,3.55,21.33,17.75c2.73,6.94,7.66,11.7,12.68,17,8.22,8.69,15.73,17.92,20.23,29.09,3.78,9.41,1.48,21.07,2.69,31,.26,2.13,3.1,3.4,4.35,1.17C216.18,342.74,173.24,323,160.58,294Z"/><path class="cls-4" d="M372.27,255.28c-27.29,5-49.92,11.62-78.3,9-27.39-2.57-54.21-9.81-81.65-12.61-1.07-.11-1.23,1.55-.25,1.83,45.56,12.78,122.18,47.51,163.83,8C378.81,258.75,375.72,254.64,372.27,255.28Z"/><path class="cls-4" d="M407,37.53c-24.1,9.4-49.07,4-72.9,11.87-22.88,7.54-39.93,23.17-65,25.51-1.17.1-1.22,1.89,0,1.86,22.22-.56,40-10.47,60.17-18.69,26.42-10.78,54.85.62,80.57-13.73C413.48,42.33,411,36,407,37.53Z"/><path class="cls-1" d="M632.21,197.07c-10.26-2.57-61.57-10.27-89.79-7.7s-56.43,0-84.66,61.57-35.91,118-28.22,136,59,53.87,94.93,79.53,48.74,35.91,87.22,35.91,97.48-18,146.23-46.18c46.18-12.82,84.66-28.21,92.36-53.87s2.56-38.48-7.7-79.53,2.57-118-38.48-146.23-28.23-5.13-53.88-20.52-48.75-18-69.26,2.56S632.21,197.07,632.21,197.07Z"/><path class="cls-2" d="M729.59,147.59c-1.62-1.24-3.4.44-3.41,2.12A38.81,38.81,0,0,0,708,148c-21.48,2.83-37.07,22.26-54.28,34.42a2.47,2.47,0,0,1-.47,2.25c-8.11,10.1-20.73,13.37-32.56,8.54a156.52,156.52,0,0,1-23.29-1.13c-4.86-.39-9.71-.88-14.55-1.64a2.44,2.44,0,0,1-.52-.19c-6.37-.8-12.55-1.51-18.31-1.74-26-1-55-.57-77.57,13.66C460.1,218.78,447.65,262.61,444,292c-3.11,24.89,7.2,38.77,27.37,32.32-4.43,14.25-26.78,22-24,40.72,1.44,9.77,13.88,17.59,21.24,22.1,15.62,9.59,22.13,28.12,37.21,38.4,8.37,5.7,17.89,12.54,28.44,10.91,3.5-.55,7.79-4.64,10.64-6.38,11.29-6.92,19.62.75,32.18,1.78,8.48.69,28.43,3.24,35.92,2.57,34.07-8,56.44-52.22,53.95-87.23a2.13,2.13,0,0,1,.45-1.51c-.22-4.63-.41-9.26-.45-13.88,0-3.21,4.94-3.21,5,0,.24,26.05,4.17,52.32,1,77.21,3.15-4.08,6.17-8.32,9.11-12.69,8.71-13,13.3-27.52,15.13-42.9,1.11-9.24-.55-18.78-1.16-28-1-14.27,12.24-10.68,22.22-10.19,4.44.22,7.55-3.72,7.81-7.81,1-15.82-.82-35,18.11-41.34,7.33-2.44,15.64-.43,23.12-2.16,14.14-3.28,19.75-12.5,22.4-26.32C796.82,199.91,755.29,167.18,729.59,147.59Z"/><path class="cls-3" d="M620.84,200.24c-42.52-9.39-90.92-25.31-129.44,2.72-24.83,18.07-54.1,53.71-43.89,86.58a5.37,5.37,0,0,0,8.87,2.34c11.74-11.65,23.58-34.92,40.11-40,10.94-3.36,16.7-9.93,25.15-17.89,14.6-13.77,52.2-29.92,72.19-23.7,2.49.77,4.55-.94,5.3-3a76.57,76.57,0,0,0,8.23-.87c1.91-.32,2.51-2.31,2-3.89a85.2,85.2,0,0,0,11.49-.93C621.54,201.48,621.49,200.38,620.84,200.24Z"/><path class="cls-3" d="M728.05,170.24a26.2,26.2,0,0,0-13.23-3.91,32.05,32.05,0,0,0-15.57,1.43c-2.29.47-4.55,1-6.76,1.64a91.4,91.4,0,0,0-33.31,17.44c-22,18.29-46.1,25.12-73.34,31.81-37.9,9.32-55.47,32.91-63.91,69.87-8.26,36.14,24.64,53,53.19,34.59,4.63-3,7.39-7.39,10.45-11.78q3-5.49,6.17-10.93c10.93-19.18,23.3-6.95,35.34-6.93s25.45-1.93,32.24-13.46c3-5.1,4.92-10.49,6.94-16,4.84-13.27,8.51-10.1,19.25-7.66,16.92,3.85,31.38-5.39,47.76-8.51C791.65,236.66,762.57,185.48,728.05,170.24Z"/><path class="cls-3" d="M636.16,364.6c-1.73-2.27-3.92-3.46-6.85-2.78-19.13,4.43-36.3-4.07-54.28-9.34-16.8-4.92-31.15-1-47.95,1-24.94,3-44.91-14.57-62.15,10.55a1.84,1.84,0,0,0,.36,2.49c-3.39,5.45-3.09,12.6,4.48,17,3.32,1.94,7.15,2,10.84,2.31,10.76.79,16.75,5.22,23.45,12.92,8.14,9.34,15,16.69,27,20.49,15,4.76,26.26-8.61,40.23-10.34,14.89-1.84,27.47,1.84,42.23-2.82C632.9,400,651.36,384.52,636.16,364.6Z"/><path class="cls-4" d="M772.53,158.52c-19.9-8.37-56.8-25.13-78.29-14.43-29.48,14.67-43.53,45.45-75.92,56.41-22.2,7.51-46.16,8.67-67.18,19.66s-27.3,33.36-28.48,55.33c-.19,3.65,5.26,3.54,5.59,0,5.74-61.28,59.81-51.82,103.35-70.64,21.93-9.48,35.26-28.31,52.67-43.87,27.94-25,57.29,3.92,87.34,4.4C775.87,165.45,775.93,159.94,772.53,158.52Z"/><path class="cls-4" d="M849.13,325.3c-13.58-45-3.28-95.12-25.26-137.88-21.14-41.11-61.7-20.61-95.5-39.76-1.79-1-4,1.57-2.27,2.92,10.23,8.12,20.39,13.44,33.38,15.6,15.83,2.64,30.15-.42,43.47,11,30.93,26.57,24.37,86.95,28.5,123.28,4.07,35.89,32.59,79.37,6.27,112.22-25.65,32-81.11,32.76-117.66,42-4.48,1.14-3.3,7.57,1.06,7.79,36.46,1.82,86-6.88,115-30.93C871.89,402,861,364.6,849.13,325.3Z"/><path class="cls-4" d="M645.38,193c-54.78,6.52-111.33-27.57-160.82,9-34.39,25.39-41.54,75.8-55,113.37-13.06,36.55-19.93,66.17,8.67,96.57,18.41,19.55,42.45,35.46,63.84,51.61,25.46,19.21,51,35.74,82.5,42.13,3.19.65,5.59-4,2.33-5.54-47.46-22.94-89-54.65-130.16-87.14-37.89-29.88-28.52-61.3-14.52-101.32,13.66-39,19.86-84.41,57.7-108.24,42.51-26.76,99.09,5.52,145.54-9.5C646,193.74,645.92,192.91,645.38,193Z"/><path class="cls-4" d="M669.72,325.74c-13.08,39.59-6,89.42-53.36,105-14.55,4.8-25.39,1.31-39.19-1.63-4.9-1-14.25-.72-18,3.1-5.67,5.69-7.61,11.92-9.84,19.57-9.22,31.61-46-2.8-57.37-11.07-1.86-1.36-4.51,1.32-3.18,3.19,13.53,19,32.4,42.3,58.68,29.25,9.69-4.81,12-13.35,14.84-23.23,3.43-11.92,39.84-3.89,50.76-6.17,59.73-12.47,49.61-70.73,58.5-117.54A.93.93,0,0,0,669.72,325.74Z"/><path class="cls-4" d="M777.24,449.75C745,454.52,713.61,472.93,683,483.62c-18.44,6.44-37.44,11.41-56.86,13.62-17.88,2-33.09-4.61-50.2-5.28-4.09-.16-5.55,4.83-3.13,7.57,20.24,22.86,69.1,9.66,93.8,2.86,37.5-10.34,80-26.26,112.59-48C781.75,452.74,780.06,449.33,777.24,449.75Z"/><path class="cls-1" d="M848.46,387c12.15,17,34,21.87,53.47,31.59s29.16,38.88,26.73,53.46S920,497.79,904.9,491s-22.42-6.81-22.42-6.81,2.28,18.09-25.59,30.92S812,540,770.7,527.89,700,492.33,702.55,459.08s9.83-52.7,17.12-81.85,43.74-58.32,75.33-53.47,29.17,34,53.46,63.19"/><path class="cls-2" d="M889.78,428.26c12.15,4.86,26.73,26.73,17,36.45s-7.29-2.43-14.59-17a233.83,233.83,0,0,0-17-29.16C880.06,423.4,889.78,428.26,889.78,428.26Z"/><path class="cls-2" d="M712.38,416.11s7.29-19.44,17-34c-4.86,21.88-7.29,43.75-21.87,58.33s-4.86,43.75,7.29,55.9,31.59,19.43,55.89,19.43,4.86-29.16,14.58-19.43,12.15,12.15,29.16,12.15,26.73-29.17,14.58-55.9,7.3-17-2.43-51-17-77.76-53.46-77.76C744,333.49,717.24,355.35,712.38,416.11Z"/><path class="cls-4" d="M875.06,422.47c-38.08-23.81-31.46-96.71-82.95-103.6-29.67-4-58,22.2-70.93,46.11-7.92,14.64-11.64,31.38-14.69,47.6C703.34,429.4,699.68,446.9,700,464c0,1.56,2.48,2.52,3.18.86,11.42-26.94,9.85-58.24,20.22-86,10.46-28,42.59-59.87,75.18-50.32,20.48,6,30.47,34.13,38.62,51.4,8.37,17.7,17.26,37,35.94,45.72A1.87,1.87,0,0,0,875.06,422.47Z"/><path class="cls-4" d="M929.72,449.48c-5.24-18.16-15.33-29.19-32.53-36.82-13.46-6-27.24-9.45-38.45-19.55S840.63,368.82,833.42,356c-1-1.8-3.46-.22-2.68,1.56,6.79,15.83,13.15,32,26,44,14.59,13.66,36.51,15.51,52.15,27.74,9.5,7.43,13.62,24.72,14.88,36,.65,5.75.25,11.79-2.57,16.92-4.18,7.65-15.37,1.89-21.82,1.67a3.28,3.28,0,0,0-2.3,5.56c8.06,7.4,23.74,8.83,30.87-.91C936,477.44,933.26,461.74,929.72,449.48Z"/><path class="cls-4" d="M857.84,419.56a.62.62,0,0,0-1.07.63c8.77,19.67,24.94,45.7,19.48,67.9-5.76,23.41-37.09,36.54-58.88,35-2-.14-2.33,2.5-1,3.47,21.51,15.13,54.4-10.53,65.12-28.64C896.31,473,871.8,439.08,857.84,419.56Z"/><path class="cls-4" d="M917.34,489.33c-6.07-3.51-13.92-3-20.68-4.21-3.1-.55-6.16-1.37-9.2-2.2-3.61-1-5.53-.83-9.14-1.23-1.37-.15-1.48,1.68-.62,2.32,9.35,7,28.11,15.49,39.64,9.35A2.36,2.36,0,0,0,917.34,489.33Z"/><path class="cls-4" d="M904.9,491c-1.49-3.8-6-6.27-8.4-9.73-3.07-4.45-4.3-9.82-4.63-15.12a.94.94,0,0,0-1.87,0,35.28,35.28,0,0,0,3,15.6c1.84,4.12,5.76,10.4,10.54,11A1.4,1.4,0,0,0,904.9,491Z"/><path class="cls-4" d="M856.89,515.08c-17,4.47-30.8,12-48.89,13.54a117,117,0,0,1-60.06-11c-21-10.06-42.47-33-43-57.09-.45-19.89,19.69-33.77,18.63-53.27,0-.72-1.08-1.13-1.44-.39-8.52,17.51-27.47,38.62-24.41,59.51,3.52,24,22.62,43.61,42.63,55.91,18.5,11.37,41.71,14.75,63,14.54,17.67-.18,44.15-4.1,55.29-19.48C859.48,516.19,858.11,514.76,856.89,515.08Z"/><path class="cls-4" d="M812.25,488.33c-2.79-7.72-7.41-12.54-13.93-17.42-11.42-8.54-15.84-7.68-12.34-24.61a4.58,4.58,0,0,0-5.56-5.55c-7,1.59-13.66.1-20.54-.82.08,0-.55-11.18-.72-12-2.18-10.08-5.76-16.4-15.22-21-.29-.14-.66.25-.37.49,11.4,9,11.95,21.51,9.77,34.68-.25,1.52.38,3.63,2.22,3.9,6.62.94,12.8,2.64,19.27,3.3-8.14,23.13,15.67,28.11,31.71,42.3C808.9,493.74,813.49,491.79,812.25,488.33Z"/><path class="cls-3" d="M800.77,355.61c-15.56-31-53.4-10.15-62.8,15.15a4.22,4.22,0,0,0-3.05,5.2,17.82,17.82,0,0,0,1.07,3c0,.23-.07.47-.09.71a.63.63,0,0,0,.77.7c4.49,8.42,14.8,15.6,21.29,21.19a23.84,23.84,0,0,0,12.82,6.22c7,1.31,13.39-.7,15.9,9.79,1.16,4.85,1.26,9.51,3,14.25a4.32,4.32,0,0,0,6.21,2.53C820.94,421.53,810.49,375,800.77,355.61Z"/><path class="cls-3" d="M769.14,483.44a19.47,19.47,0,0,0-7.53-8.78c-5.05-3.33-13.39,0-16.28-7.39-3.31-8.5,2.36-18.3.29-27-2.41-10.22-6-25.44-13.8-19.25-15.24,12.15-24.44,46-16.75,61.1,9.57,18.79,33.34,26.79,52.07,16.43C772.2,495.7,771.21,487.66,769.14,483.44Z"/><path class="cls-1" d="M4.76,386.91c-4.9,16.82,27.84,40.32,59.53,40.32s73.93-12.48,101.78-14.4,50.9,5.77,82.59,10.56,55.69,1,67.21-12.48,18.24-32.64,5.76-47.05-61.45-23-89.3-21.13-76.82,3.85-108.51,9.61S11.48,363.86,4.76,386.91Z"/><path class="cls-2" d="M11.49,378.27c-7.77,5.64-17.29,24,17.28,26.87s82.58-2.88,122-8.64,67.22,1,89.3,5.76S345,386,305.32,357.13c-21.13-15.36-76.82-14.4-105.62-14.4S119,356.17,91.18,359.06,32.61,362.9,11.49,378.27Z"/><path class="cls-3" d="M43.18,366.74C26.8,370.33-3.88,379.23,13.41,386s64.33,3.84,105.62-5.76,85.47-13.45,100.83-13.45,57.61-22.09-3.84-22.09-76.83,3.85-98.91,10.57S73.9,360,43.18,366.74Z"/><path class="cls-4" d="M329.07,371.16c-6.91-19.75-37.63-24.44-55-26.62-52.73-6.58-107.74-2.92-161,6.83-14.65,1.92-29.35,4.74-43.77,6.75C48.73,361,26.12,364.19,8.54,376.25-12,390.35,9.3,409,23.24,416.7,55,434.15,93.11,430.6,127.1,422.6c30.4-7.15,54.34-13.72,85.44-3.89,23.83,7.54,45.8,12.34,71,10.05C309.13,426.45,338.55,398.3,329.07,371.16ZM276.5,423.37c-39.2,3.46-73.42-20.07-112.72-16.33-17.46,1.65-34,8.82-51.14,12.17-18.22,3.56-39.43,5.31-57.81,1.91-12.27-2.27-24.11-7.34-34.71-13.82A36.91,36.91,0,0,1,7.93,395.65c-7.37-11.58,12.8-19.16,19.93-21.9,30.41-11.7,66.6-6.95,96.94-17.82,34.91-5,69.94-8.64,105.59-8.43,23.94.15,48.69,1.46,71.53,9.14,12.31,4.13,22,11.31,23.11,25C327,406.3,296.62,421.59,276.5,423.37Z"/><path class="cls-1" d="M275.3,422.35c7.39,13.65,26.1,19.59,55,28s62.47,9.32,91.38,3.74,56.87-14.93,66.2-29.85,18.64-32.63,9.32-54.07-53.14-36.37-95.1-36.37-84.84,9.32-100.7,23.31S263.18,400,275.3,422.35Z"/><path class="cls-2" d="M322.86,345c-18.65,7.46-38.24,24.24-46.63,46.62s7.45,37.17,76.46,36.36c79.25-.93,165-38.24,132.4-70.86S368.54,331.91,322.86,345"/><path class="cls-3" d="M287.42,390.66C294,400,363,399,401.18,383.2s46.62-42.88,14.92-47.55S335,339.37,314.46,350.57,280.9,381.34,287.42,390.66Z"/><path class="cls-4" d="M285.88,435.67c34.52,18.28,71.7,26.42,110.61,23.47,27-2,94.53-14.38,102.13-48.87a47.93,47.93,0,0,0,3.84-33c-5.93-25.47-39.23-36.84-61.25-41.46-29.1-6.1-60.26-3.63-89.43.64-30.77,4.49-57.84,16.48-73.35,44.36C267.24,400.88,263.24,423.69,285.88,435.67Zm-3.17-52.4c21.19-43.51,81.39-46.08,123.6-45.87,24,.1,48.31,4.13,69.38,16.09,31.12,17.66,30.12,58.88-2.48,74.08-2.89,1.34-.38,5.62,2.51,4.28a52.26,52.26,0,0,0,6.49-3.65C464.13,441.86,435,448.51,418,451.82a189.86,189.86,0,0,1-91.63-4.57c-13-3.9-25.61-10.23-38-15.85C267,421.71,274.85,399.41,282.71,383.27Z"/></g></g></svg>