<svg xmlns="http://www.w3.org/2000/svg" viewBox="0 0 1038.99 421.12"><defs><style>.cls-1{fill:#a59b87;}.cls-2{fill:#bab4a5;}.cls-3{fill:#e3dbcb;}.cls-4{fill:#877758;}</style></defs><title>rocks-6</title><g id="Layer_2" data-name="Layer 2"><g id="Layer_1-2" data-name="Layer 1"><path class="cls-1" d="M713.69,215.22c-22.21,9.77-40.85,33.25-38.57,67.48s32.57,64.82,86,70,96.07-10.48,122.7-22.2,65.56-42.25,69.48-75.15-9.35-61.65-39-81.62-65.68-28.14-98.9-20.07S746.79,178.53,713.69,215.22Z"/><path class="cls-2" d="M696.06,230.77c-9.58,5.88-26.38,35-4.74,62.87,12.25,15.81,50.74,23.21,83.64,21.48,40.21-2.11,74.78-9.22,114.38-42.85,37.49-31.85,45.77-81.24,3.31-106.19S789.82,158,753.38,182.18,717.67,217.53,696.06,230.77Z"/><path class="cls-3" d="M844.47,172.42c-16.62-15.11-43.52-12.5-63.22-6.81-21.64,6.25-44.77,22.45-55.8,35.58a125.21,125.21,0,0,0-8.08,10.56c-9.9,8.68-14.89,24.23-15.91,36.28-1.88,22.06,17.88,39,37.49,43.41,23.75,5.4,52.31-8.79,72.75-19.41,18.34-9.52,38.12-25,46.78-44.32C868,206.65,861,187.42,844.47,172.42ZM714.53,261.74a49.49,49.49,0,0,0,13,9.42c.74.37,1.48.72,2.23,1C723.44,270.57,718,267.33,714.53,261.74Z"/><path class="cls-4" d="M868.2,150.84c-44.88-11.86-84.63,7.1-121.73,31.45-10.58,6.93-22.47,16.5-31.7,27.45-26,11.44-44.93,33.55-45.37,63.36-.36,24.41,13.66,47.5,32.54,62C740,364.3,797.27,360.81,841,349.55c43.56-11.21,91.38-36,110.7-78.9C978.37,211.48,919.68,164.44,868.2,150.84ZM833.28,342.73C787.1,353.83,723,354.19,691.55,312.12c-22.61-30.28-13.78-65,11.88-85.22-7.12,15.1-7,31.43,8.09,46.59a1.25,1.25,0,0,0,1.9-1.61c-14.18-18.31-11.18-35.95.19-51.72,1.44-4,15-16.11,16.81-17.68,23.2-19.68,56-34.74,74.33-41.78,57-21.91,154.68,20.64,144.17,91.1C941.17,303.77,878,332,833.28,342.73Z"/><path class="cls-4" d="M726.73,194.33a18,18,0,0,1-1.48,1.83,6,6,0,0,1,2-1.25C727.8,194.69,727.09,193.77,726.73,194.33Z"/><path class="cls-4" d="M715.61,207.78c-.35.31.14.88.47.56a36.09,36.09,0,0,0,4.5-5.66c.72-1.1,1.53-2.51,2.44-3.86-.48.55-1,1.09-1.42,1.67A46.57,46.57,0,0,1,715.61,207.78Z"/><path class="cls-4" d="M723,198.82c.77-.87,1.47-1.78,2.23-2.66A15,15,0,0,0,723,198.82Z"/><path class="cls-1" d="M108.84,225.31c-19.76,4.94-38.53,21.73-41.49,50.4S85.13,334,128.61,345.86s81,4.94,104.74-1,60.27-25.69,68.18-52.37,1-52.37-20.74-73.12-50.4-32.61-79.05-30.63S141.46,199.61,108.84,225.31Z"/><path class="cls-2" d="M92.05,235.68c-8.76,3.5-26.8,25.22-12.85,51.38,7.91,14.82,38.73,26.42,66.22,29.65,33.59,4,63.23,3,100.78-19.27C281.76,276.38,295.61,236.67,264,210s-84-21.24-117.59-6.42S111.82,227.77,92.05,235.68Z"/><path class="cls-3" d="M223.21,208.4c-11.63-14.87-34.27-16.52-51.38-14.59-18.81,2.1-40.26,12.23-51.25,21.54a104.85,104.85,0,0,0-8.19,7.6c-9.44,5.78-15.76,18-18.32,27.79-4.69,18,9.28,34.8,24.88,41.26,18.91,7.84,44.56.14,63-5.76,16.53-5.29,35.11-15.35,45-30.07C237.8,240.09,234.75,223.17,223.21,208.4ZM103,263.94a41.78,41.78,0,0,0,9.44,9.65c.56.41,1.12.81,1.7,1.17C109.08,272.52,105,269.06,103,263.94Z"/><path class="cls-4" d="M245.91,193.91c-35.47-16.19-71.07-6.13-105.25,8.77-9.74,4.25-20.94,10.48-30.13,18.24-23.17,5.78-42,21.41-46.55,46-3.77,20.17,4.57,41.27,18.15,55.94,27.4,29.59,75.27,34.81,113.1,31.69,37.66-3.1,80.76-16.82,102.85-49.63C328.53,259.73,286.61,212.47,245.91,193.91ZM189.79,347.84c-39.81,2.65-93-6.15-113-45.44-14.43-28.28-2.19-55.8,21.92-68.88-8,11.49-10.28,25,.09,39.72a1,1,0,0,0,1.8-1.05c-9.14-17.17-4.16-31.36,7.5-42.81,1.74-3.09,14.67-11.21,16.43-12.26,22-13,51.27-20.81,67.45-24.05,50.34-10.06,125.15,39,106.46,95.87C284.65,330.87,228.33,345.27,189.79,347.84Z"/><path class="cls-4" d="M122.61,209.86a15.77,15.77,0,0,1-1.49,1.3,5.19,5.19,0,0,1,1.81-.76C123.45,210.31,123,209.45,122.61,209.86Z"/><path class="cls-4" d="M111.49,219.42c-.32.21,0,.75.32.52a30,30,0,0,0,4.52-4.05c.75-.8,1.63-1.85,2.57-2.83-.48.39-1,.75-1.42,1.17A38.55,38.55,0,0,1,111.49,219.42Z"/><path class="cls-4" d="M118.9,213.06c.76-.62,1.47-1.27,2.22-1.9A11.91,11.91,0,0,0,118.9,213.06Z"/><path class="cls-1" d="M36.43,277.33c-15.73,3.93-30.66,17.3-33,40.11s14.15,46.38,48.75,55.83,64.49,3.93,83.35-.79,48-20.44,54.26-41.68.79-41.67-16.51-58.19-40.11-26-62.9-24.37S62.38,256.88,36.43,277.33Z"/><path class="cls-2" d="M23.06,285.58c-7,2.79-21.32,20.07-10.22,40.89,6.29,11.8,30.82,21,52.69,23.6,26.74,3.14,50.32,2.36,80.21-15.33,28.29-16.76,39.32-48.36,14.15-69.6S93,248.24,66.31,260,38.79,279.29,23.06,285.58Z"/><path class="cls-3" d="M127.44,263.87c-9.25-11.83-27.27-13.14-40.89-11.61-15,1.68-32,9.74-40.78,17.15a81.63,81.63,0,0,0-6.52,6c-7.51,4.59-12.54,14.28-14.58,22.1-3.73,14.33,7.39,27.7,19.8,32.84,15.05,6.24,35.46.12,50.14-4.58,13.15-4.21,27.93-12.21,35.82-23.93C139.05,289.09,136.62,275.63,127.44,263.87Zm-95.7,44.21a33.15,33.15,0,0,0,7.51,7.67c.44.32.89.64,1.35.93A16.17,16.17,0,0,1,31.74,308.08Z"/><path class="cls-4" d="M145.51,252.34c-28.23-12.88-56.56-4.87-83.76,7a100.61,100.61,0,0,0-24,14.51c-18.43,4.6-33.39,17-37,36.63-3,16,3.64,32.84,14.45,44.51,21.81,23.55,59.9,27.71,90,25.22s64.28-13.38,81.85-39.48C211.25,304.73,177.89,267.11,145.51,252.34Zm-44.67,122.5c-31.68,2.11-74-4.89-89.93-36.16-11.49-22.51-1.74-44.41,17.45-54.81-6.4,9.14-8.19,19.91.06,31.61a.83.83,0,0,0,1.44-.84c-7.27-13.67-3.31-25,6-34.07,1.38-2.46,11.67-8.92,13.07-9.75,17.49-10.36,40.8-16.57,53.68-19.14,40.07-8,99.59,31.05,84.72,76.29C176.33,361.34,131.52,372.79,100.84,374.84Z"/><path class="cls-4" d="M47.38,265a9.24,9.24,0,0,1-1.19,1,4.42,4.42,0,0,1,1.45-.6C48.05,265.39,47.68,264.71,47.38,265Z"/><path class="cls-4" d="M38.53,272.64c-.26.17,0,.6.26.42a24.9,24.9,0,0,0,3.6-3.22c.59-.64,1.3-1.48,2-2.26-.38.31-.78.6-1.13.93A29.85,29.85,0,0,1,38.53,272.64Z"/><path class="cls-4" d="M44.43,267.58c.61-.49,1.17-1,1.76-1.51A9.87,9.87,0,0,0,44.43,267.58Z"/><path class="cls-1" d="M548.3,349.39c-5.17,17.72,29.33,42.49,62.72,42.49s77.88-13.16,107.23-15.18,53.62,6.07,87,11.12,58.67,1,70.8-13.14,19.23-34.4,6.07-49.57-64.73-24.28-94.07-22.25-80.94,4-114.31,10.11S555.37,325.11,548.3,349.39Z"/><path class="cls-2" d="M555.38,340.28c-8.18,5.94-18.2,25.28,18.21,28.32s87-3,128.48-9.1,70.81,1,94.08,6.07S906.69,348.39,864.94,318c-22.25-16.19-80.92-15.17-111.28-15.17S668.69,317,639.35,320,577.64,324.09,555.38,340.28Z"/><path class="cls-3" d="M588.77,328.14c-17.25,3.78-49.57,13.16-31.36,20.24s67.78,4,111.28-6.08,90-14.16,106.22-14.16,60.69-23.27-4-23.27S689.93,308.92,666.66,316,621.14,321.06,588.77,328.14Z"/><path class="cls-4" d="M890,332.81c-7.28-20.82-39.64-25.76-57.91-28.06-55.55-6.94-113.49-3.07-169.56,7.19-15.43,2-30.93,5-46.12,7.12-21.74,3-45.56,6.4-64.09,19.1-21.68,14.85.8,34.55,15.49,42.62,33.43,18.38,73.61,14.64,109.41,6.21,32-7.54,57.25-14.46,90-4.1,25.12,7.94,48.26,13,74.76,10.6C869,391.05,900,361.39,890,332.81Zm-55.37,55c-41.31,3.65-77.36-21.14-118.75-17.21-18.41,1.75-35.81,9.3-53.89,12.83-19.2,3.76-41.54,5.6-60.9,2-12.93-2.4-25.41-7.74-36.57-14.56a38.9,38.9,0,0,1-12.84-12.26c-7.77-12.2,13.48-20.19,21-23.08,32-12.32,70.16-7.33,102.12-18.79,36.78-5.25,73.68-9.08,111.24-8.86,25.22.14,51.3,1.53,75.37,9.61,13,4.37,23.2,11.91,24.34,26.32C887.77,369.81,855.78,385.93,834.59,387.8Z"/><path class="cls-1" d="M104.51,357.52c-5,25.21,28.13,60.44,60.12,60.44s74.66-18.72,102.78-21.59S318.8,405,350.8,412.21s56.23,1.44,67.87-18.72,18.42-48.94,5.82-70.53-62.06-34.54-90.17-31.66-77.58,5.76-109.58,14.39S111.3,323,104.51,357.52Z"/><path class="cls-2" d="M111.31,344.55c-7.85,8.46-17.46,36,17.44,40.29s83.39-4.31,123.15-12.94,67.87,1.44,90.18,8.63S448,356.08,408,312.87c-21.32-23-77.57-21.59-106.64-21.59s-81.46,20.16-109.59,24.47S132.64,321.52,111.31,344.55Z"/><path class="cls-3" d="M143.31,327.28c-16.54,5.37-47.52,18.72-30.06,28.79s65,5.76,106.66-8.64,86.29-20.15,101.81-20.15,58.18-33.11-3.89-33.11S240.27,299.93,218,310,174.33,317.2,143.31,327.28Z"/><path class="cls-4" d="M432,333.91c-7-29.62-38-36.66-55.51-39.91-53.25-9.87-108.79-4.38-162.53,10.23-14.78,2.89-29.64,7.13-44.2,10.13-20.84,4.28-43.68,9.1-61.43,27.16-20.78,21.15.77,49.17,14.85,60.66,32,26.14,70.55,20.83,104.88,8.84,30.69-10.73,54.85-20.58,86.26-5.83,24.08,11.3,46.26,18.49,71.66,15.07C411.87,416.8,441.58,374.58,432,333.91Zm-53.08,78.27c-39.59,5.18-74.15-30.1-113.83-24.5-17.64,2.5-34.33,13.24-51.64,18.26-18.41,5.35-39.82,8-58.37,2.86-12.4-3.41-24.35-11-35.05-20.72a49.53,49.53,0,0,1-12.31-17.45c-7.45-17.36,12.91-28.73,20.11-32.84,30.72-17.54,67.25-10.43,97.9-26.74,35.25-7.47,70.63-12.93,106.62-12.61,24.18.22,49.17,2.18,72.24,13.68,12.43,6.21,22.23,17,23.33,37.45C429.9,386.57,399.23,409.5,378.92,412.18Z"/><path class="cls-1" d="M313.77,112c9.09,16.93,32.11,24.3,67.68,34.71s76.85,11.57,112.42,4.63,70-18.52,81.45-37,22.94-40.5,11.47-67.11-65.38-45.13-117-45.13S365.4,13.65,345.89,31,298.85,84.24,313.77,112Z"/><path class="cls-2" d="M372.28,16c-22.94,9.26-47,30.09-57.36,57.86S324.07,120,409,118.94C506.5,117.78,612,71.49,571.89,31S428.49-.24,372.28,16"/><path class="cls-3" d="M328.69,72.67c8,11.57,92.92,10.41,140-9.26S526,10.19,487,4.41,387.2,9,362,22.91,320.66,61.1,328.69,72.67Z"/><path class="cls-4" d="M326.79,128.54c42.47,22.68,88.22,32.76,136.09,29.11,33.24-2.54,116.31-17.84,125.65-60.64a59.88,59.88,0,0,0,4.73-41C586,24.37,545,10.28,517.9,4.54,482.1-3,443.76,0,407.87,5.32,370,10.91,336.7,25.79,317.63,60.39,303.86,85.35,298.94,113.66,326.79,128.54Zm-3.9-65C349,9.5,423,6.31,475,6.56c29.57.14,59.43,5.14,85.36,20,38.29,21.92,37.07,73.08-3,91.94-3.56,1.67-.47,7,3.07,5.31a62.54,62.54,0,0,0,8-4.52c-22.24,17-58.08,25.2-79,29.31A231.83,231.83,0,0,1,376.6,142.9c-16-4.84-31.5-12.7-46.72-19.67C303.61,111.19,313.22,83.53,322.89,63.49Z"/><path class="cls-1" d="M357.52,114.61c-33.8,8.52-100.6,28.59-98.65,44.48S304.56,175,334.5,175s62.17-2.33,92.11,0,51.63-8.63,57.56-18.59c6.9-11.61,6.91-16.26-23-27.87S376,110,357.52,114.61Z"/><path class="cls-2" d="M282.69,135.51c-16.1,7-29.95,20.9,0,20.9s87.51,0,129-7,53.15-18.9,31.19-25.71-65.72-16.09-95.64-9.13-50.67,13.93-64.49,20.9"/><path class="cls-3" d="M310.22,128.36c-30.22,11.07-5.5,19.38,30.21,16.62s87.87-27.71,52.16-30.47-54.92,0-82.37,13.85"/><path class="cls-4" d="M485.94,137.47c-15.1-16.26-46.91-19.83-67.27-23.38a154.44,154.44,0,0,0-17-2c-44.25-9.55-98.21,4.68-133.69,26.74-12.19,7.57-22,20.82-6.73,30.74,14.41,9.37,36.91,9.51,53.43,10.23,23.64,1,47.51-1.73,71.05-3.42,28.54-2,57.24,5.21,85-4.86C485.05,166.35,498.64,151.15,485.94,137.47Zm-25,29.2c-21.84,6.21-46.37,2.23-68.71,1.78-28.16-.6-56.11,4.28-84.39,3-4.34-.21-48.62-2.93-46.68-14.63,1.37-8.19,17.43-14.6,23.78-17.77,17.87-8.91,36.68-13.75,56.18-17.24.6-.12,1.24-.23,1.86-.34,18.94-2.86,37.85-5.92,56.93-3.29,10,1.39,20,3.23,29.9,5.44,2,.85,4,1.77,5.91,2.81a.18.18,0,0,0,.18-.32c-.92-.59-1.87-1.16-2.81-1.72,6.17,1.44,12.3,3,18.37,4.73,8.94,2.59,17.69,5.93,25.61,10.88C494.78,151,471.81,163.58,461,166.67Z"/><path class="cls-1" d="M868,288.8C851,293,835,307.42,832.43,332s15.22,49.93,52.47,60.09,69.4,4.23,89.71-.84,51.62-22,58.39-44.86.86-44.85-17.76-62.63-43.17-27.93-67.7-26.24S895.9,266.79,868,288.8Z"/><path class="cls-2" d="M853.58,297.68c-7.5,3-23,21.6-11,44,6.77,12.7,33.17,22.63,56.71,25.39,28.78,3.38,54.16,2.54,86.32-16.49,30.46-18,42.33-52.06,15.24-74.91s-72-18.2-100.72-5.5S870.51,290.91,853.58,297.68Z"/><path class="cls-3" d="M965.92,274.31c-10-12.73-29.35-14.14-44-12.5-16.11,1.81-34.48,10.49-43.89,18.46a90.23,90.23,0,0,0-7,6.51c-8.08,5-13.51,15.37-15.7,23.8-4,15.41,8,29.8,21.31,35.34,16.2,6.72,38.17.12,54-4.94,14.16-4.52,30.07-13.14,38.56-25.75C978.42,301.46,975.81,287,965.92,274.31Zm-103,47.58a35.21,35.21,0,0,0,8.08,8.26c.47.35,1,.69,1.45,1C868.18,329.24,864.71,326.28,862.93,321.89Z"/><path class="cls-4" d="M985.37,261.9c-30.39-13.86-60.88-5.24-90.15,7.52A108.13,108.13,0,0,0,869.4,285c-19.84,5-35.94,18.33-39.86,39.43-3.23,17.27,3.91,35.34,15.54,47.9,23.48,25.34,64.48,29.82,96.88,27.15,32.25-2.66,69.17-14.4,88.09-42.51C1056.13,318.28,1020.23,277.8,985.37,261.9ZM937.29,393.74c-34.09,2.27-79.61-5.26-96.79-38.91-12.36-24.22-1.87-47.81,18.78-59-6.89,9.84-8.81,21.44.07,34a.9.9,0,0,0,1.55-.9c-7.83-14.71-3.57-26.86,6.42-36.66,1.49-2.65,12.56-9.61,14.07-10.5,18.83-11.15,43.91-17.83,57.77-20.61,43.13-8.61,107.2,33.43,91.19,82.12C1018.54,379.22,970.31,391.54,937.29,393.74Z"/><path class="cls-4" d="M879.75,275.56a11.42,11.42,0,0,1-1.27,1.12A4.54,4.54,0,0,1,880,276C880.48,276,880.08,275.21,879.75,275.56Z"/><path class="cls-4" d="M870.23,283.75c-.28.18,0,.65.27.45a26,26,0,0,0,3.88-3.47c.64-.68,1.4-1.58,2.2-2.43-.41.34-.84.65-1.21,1A33,33,0,0,1,870.23,283.75Z"/><path class="cls-4" d="M876.58,278.3c.65-.53,1.26-1.09,1.9-1.62A10.61,10.61,0,0,0,876.58,278.3Z"/><path class="cls-1" d="M793.15,347.54c-33.59,8.4-100,28.16-98,43.83S740.52,407,770.27,407s61.78-2.29,91.54,0,51.31-8.5,57.2-18.31c6.86-11.45,6.87-16-22.87-27.46S811.46,343,793.15,347.54Z"/><path class="cls-2" d="M718.78,368.13c-16,6.86-29.76,20.6,0,20.6s87,0,128.15-6.86,52.83-18.62,31-25.34-65.31-15.85-95-9-50.34,13.73-64.08,20.59"/><path class="cls-3" d="M746.14,361.09c-30,10.9-5.47,19.1,30,16.37s87.33-27.3,51.84-30-54.58,0-81.86,13.65"/><path class="cls-4" d="M920.77,370.06c-15-16-46.62-19.53-66.85-23A157.58,157.58,0,0,0,837,345.09c-44-9.4-97.61,4.62-132.87,26.35C692,378.9,682.27,392,697.43,401.73c14.33,9.23,36.68,9.37,53.1,10.08,23.5,1,47.22-1.7,70.62-3.37,28.35-2,56.88,5.13,84.47-4.79C919.89,398.52,933.39,383.54,920.77,370.06Zm-24.84,28.78c-21.7,6.12-46.07,2.19-68.27,1.74-28-.58-55.77,4.22-83.88,2.92-4.31-.21-48.31-2.89-46.39-14.42,1.37-8.07,17.32-14.38,23.63-17.51,17.76-8.78,36.46-13.54,55.84-17l1.84-.33c18.83-2.83,37.62-5.83,56.59-3.25,10,1.37,19.87,3.19,29.71,5.37,2,.84,4,1.74,5.87,2.76a.18.18,0,0,0,.18-.31c-.91-.58-1.85-1.14-2.79-1.69,6.14,1.41,12.22,2.93,18.26,4.66,8.88,2.55,17.58,5.83,25.45,10.72C929.55,383.38,906.72,395.79,895.93,398.84Z"/><path class="cls-1" d="M403.46,133.28c-4.16,21.37,23.63,51.22,50.5,51.22s62.72-15.86,86.36-18.3,43.17,7.33,70,13.43,47.24,1.22,57-15.86,15.47-41.48,4.89-59.77-52.14-29.27-75.76-26.83-65.18,4.88-92.06,12.19S409.16,104,403.46,133.28Z"/><path class="cls-2" d="M409.17,122.29c-6.59,7.17-14.67,30.49,14.65,34.14s70.06-3.65,103.46-11,57,1.22,75.76,7.31,89-20.71,55.39-57.33c-17.91-19.52-65.17-18.29-89.59-18.29S500.4,94.23,476.77,97.89,427.09,102.78,409.17,122.29Z"/><path class="cls-3" d="M436.05,107.66c-13.9,4.55-39.92,15.86-25.25,24.4s54.58,4.88,89.6-7.33,72.5-17.07,85.54-17.07,48.87-28-3.27-28S517.51,84.49,498.78,93,462.11,99.12,436.05,107.66Z"/><path class="cls-4" d="M678.58,113.28c-5.85-25.1-31.93-31.06-46.63-33.82-44.73-8.37-91.39-3.71-136.54,8.67-12.42,2.44-24.9,6-37.14,8.58-17.51,3.63-36.69,7.71-51.6,23-17.46,17.91.64,41.66,12.47,51.4,26.92,22.15,59.27,17.65,88.11,7.49,25.78-9.09,46.08-17.44,72.47-4.94,20.22,9.57,38.86,15.67,60.2,12.77C661.67,183.51,686.63,147.74,678.58,113.28ZM634,179.6c-33.26,4.39-62.29-25.5-95.63-20.76C523.54,161,509.52,170.06,495,174.31c-15.46,4.53-33.44,6.75-49,2.43-10.42-2.9-20.46-9.33-29.45-17.56a42,42,0,0,1-10.34-14.79c-6.25-14.7,10.85-24.34,16.9-27.82,25.8-14.86,56.5-8.84,82.24-22.66,29.62-6.33,59.34-11,89.58-10.69,20.31.18,41.3,1.85,60.69,11.59,10.44,5.26,18.68,14.37,19.6,31.74C676.82,157.9,651.05,177.33,634,179.6Z"/><path class="cls-1" d="M388.18,146.83c6.48,12.07,22.89,17.33,48.25,24.75s54.78,8.25,80.15,3.3,49.88-13.2,58.06-26.4,16.36-28.87,8.18-47.85-46.61-32.17-83.41-32.17S425,76.71,411.08,89.08,377.54,127,388.18,146.83Z"/><path class="cls-2" d="M429.89,78.36C413.54,85,396.35,99.81,389,119.6s6.53,32.89,67.07,32.17C525.58,151,600.82,118,572.2,89.08S470,66.81,429.89,78.36"/><path class="cls-3" d="M398.82,118.79c5.72,8.24,66.25,7.41,99.78-6.61s40.88-37.94,13.08-42.06-71.15,3.29-89.15,13.19S393.09,110.53,398.82,118.79Z"/><path class="cls-4" d="M397.46,158.62c30.28,16.16,62.89,23.35,97,20.75,23.7-1.81,82.92-12.72,89.58-43.24a42.63,42.63,0,0,0,3.37-29.23c-5.2-22.55-34.41-32.6-53.72-36.69-25.52-5.4-52.86-3.21-78.45.56-27,4-50.73,14.59-64.33,39.26C381.11,127.83,377.6,148,397.46,158.62Zm-2.78-46.38c18.58-38.49,71.39-40.76,108.41-40.58,21.08.09,42.38,3.66,60.86,14.23,27.3,15.63,26.43,52.1-2.17,65.55-2.54,1.19-.33,5,2.19,3.78a45.64,45.64,0,0,0,5.7-3.22c-15.86,12.09-41.41,18-56.32,20.9A165.35,165.35,0,0,1,433,168.85c-11.41-3.45-22.45-9-33.31-14C380.93,146.25,387.79,126.53,394.68,112.24Z"/><path class="cls-1" d="M430,152.52c-4.16,18.2,23.63,43.64,50.5,43.64s62.72-13.52,86.36-15.59S610,186.81,636.86,192s47.24,1,57-13.52,15.47-35.33,4.89-50.92S646.63,102.63,623,104.71,557.83,108.87,531,115.1,435.65,127.58,430,152.52Z"/><path class="cls-2" d="M435.66,143.16c-6.59,6.1-14.67,26,14.65,29.09s70.06-3.12,103.46-9.35,57,1,75.76,6.23,89-17.64,55.39-48.85C667,103.66,619.75,104.7,595.33,104.7s-68.44,14.55-92.07,17.66S453.58,126.53,435.66,143.16Z"/><path class="cls-3" d="M462.54,130.69c-13.9,3.88-39.92,13.51-25.25,20.79s54.58,4.15,89.6-6.25,72.5-14.54,85.53-14.54,48.88-23.91-3.26-23.91S544,111,525.27,118.21,488.6,123.41,462.54,130.69Z"/><path class="cls-4" d="M705.07,135.48c-5.85-21.39-31.93-26.47-46.63-28.82-44.73-7.13-91.39-3.16-136.54,7.39-12.42,2.08-24.9,5.14-37.14,7.31-17.51,3.09-36.69,6.57-51.6,19.61-17.46,15.27.64,35.5,12.47,43.8,26.92,18.87,59.27,15,88.11,6.38,25.78-7.75,46.08-14.86,72.47-4.21,20.22,8.15,38.86,13.35,60.2,10.88C688.16,195.32,713.12,164.84,705.07,135.48ZM660.48,192c-33.26,3.75-62.29-21.73-95.63-17.68-14.82,1.8-28.84,9.55-43.39,13.18-15.46,3.86-33.44,5.74-49,2.06C462,187.08,452,181.6,443,174.59A36.45,36.45,0,0,1,432.64,162c-6.26-12.53,10.85-20.75,16.9-23.71,25.8-12.67,56.5-7.53,82.24-19.31,29.62-5.39,59.34-9.33,89.58-9.11,20.31.16,41.3,1.58,60.69,9.88,10.44,4.49,18.68,12.25,19.6,27C703.31,173.5,677.54,190.05,660.48,192Z"/></g></g></svg>