<svg xmlns="http://www.w3.org/2000/svg" viewBox="0 0 833.16 592.45"><defs><style>.cls-1{fill:#bab4a5;}.cls-2{fill:#e3dbcb;}.cls-3{fill:#a59b87;}.cls-4{fill:#877758;}</style></defs><title>rocks-4</title><g id="Layer_2" data-name="Layer 2"><g id="Layer_1-2" data-name="Layer 1"><path class="cls-1" d="M750.44,501.94c-2.89,23.18-14.49,39.11-39.11,52.15s-63.73,27.51-89.8,29-59.37-5.79-84-7.24-47.8,20.28-97,7.24-101.38-13-133.25-15.93-115.88-57.94-136.15-98.48-4.35-111.54,17.37-165.13,30.42-75.31,52.15-76.76,33.32-5.8,65.18-17.39,65.17-26.07,79.66-36.21,33.32-42,36.21-53.58,0-49.25,34.77-65.18,57.93-8.7,98.48-26.07S623-3.56,660.65,9.48,702.78,45.83,762,52.94c36.21,4.34,33.3,50.69,37.64,91.25s4.34,82.56,13,120.22,15.94,60.83,14.49,91.26-2.9,66.62-27.53,98.49S750.44,501.94,750.44,501.94Z"/><path class="cls-2" d="M736.76,97.26c-4.54-17.44-27.55-29.63-42.24-36-26.39-11.42-29.37-35.31-58-41.17-16.75-3.42-36.34.9-51.51,8-14.35,6.69-27.59,15.46-42.43,21.08-17.42,6.59-38.12,6.25-56.51,9.5-16.43,2.91-27.73,9.22-35.69,17.78a10,10,0,0,1,.45,6.7c-13.16,51,.38,109.22-23.69,157.38-18.63,37.28-50.71,63.63-79.81,92.53-14.46,14.38-29,23.88-49,28.37s-49.33-9.95-67.7,2.87c-17.85,12.43-16.65,37.48-28.08,54.38-1.55,2.28-3.23,4.37-4.9,6.46a9.61,9.61,0,0,0,3.88-2.36c7.4-7.78,15.74-14,22.45-22.45,4.53-5.7,5.12-12.85,6.52-19.74,86.28,29.89,192-33.46,238.28-104.09,13.89-21.2,20-46.69,35.67-66.73s42.82-18.72,65.44-17.65c28,1.33,57.25,11.31,85.28,8.25,14.09-1.55,21-18.89,28.93-28.23C703.26,149.58,746.11,133.25,736.76,97.26Z"/><path class="cls-2" d="M399.8,194.22c-.42-8.25-9.22-14.17-16.79-9.64-37.95,22.69-77.34,46.23-122.29,50.32-5.66.51-10.53,4.38-10.49,10.49v1.55c-12,3.72-25.08,7.78-32.44,18-6.46,9-10.34,21-11.59,33.21a142.2,142.2,0,0,0-13.12,30.09c-4.47,14.16,17.12,19.75,22,6.07,9-25.34,42.65-24.66,64.81-26.6,19.08-1.67,35.73-5.36,53.22-13.35C372,276.61,402,237.71,399.8,194.22Z"/><path class="cls-2" d="M676.8,320.17C655.9,337.51,634.43,341.66,611,325c-8.8-6.28-19.31-11.61-30.57-9.35-25.39,5.1-38.15,27.56-51.12,47.94-10.84,17.05-21.37,31.87-42.28,35.73a365,365,0,0,1-75.92,5.51c-41.87-1.2-61.9,67.93-105,27.14a2.79,2.79,0,0,0-4.31.56c-7.56,10.73-12.07,22.17-15.87,34.1-3.85-1.71-8.67-.73-9.56,4.58-3.81,23.08-24.55,32.15-8.3,55.78,9.61,14,34.23,20.16,50.06,17.19C345.54,539,363.29,518.3,382.79,500c9.17-8.62,17.39-22,28.63-7.4,4.81,6.24,7.68,10.57,12.74,16.65,7.44,9,20.8,12.67,31.15,16.46,22.19,8.14,46.76,18,69.62,5.6,23.06-12.5,37.38-31.6,44.6-56.66,6.47-22.48-4.06-42.38,21.84-58.65,14.85-9.33,30.59-19.3,46.39-26.84,32.17-15.39,40-29.49,47-64.35C685.74,320,680.49,317.11,676.8,320.17Z"/><path class="cls-3" d="M821.13,300.83c-9.76-61,5.39-143.14-32.27-196.37a72.22,72.22,0,0,0-3.32-13.73,9.28,9.28,0,0,0-.63-1.12c-3.62-18.61-13.23-40.87-31.8-39.8a.66.66,0,0,0-.56,1c5.65,9.82,13.24,15.95,16.42,27.69.56,2.06.87,4.19,1.23,6.32a9.53,9.53,0,0,0-5,8.68c-.24,21-12.93,39.05-26.89,56.31-13.55,7.13-21.81,19.73-26.66,34.68-.21.36-.46.71-.67,1.07-8.53,14.23-7.78,26.72-5.43,40.23a320.34,320.34,0,0,0,1.23,33.88c1.2,14.13,2.6,28.89,4.41,43.52a569.75,569.75,0,0,1-7.73,71.39c-2.45,14.71-5.79,29.05-7,43.92-.07.72-.05,1.42-.07,2.13,0,0,0,0,0,0a50.74,50.74,0,0,0-.73,7.6c-.76,3.77-1.41,7.54-1.83,11.27-.79,7,3.31,14.26,6.25,20.25,7.24,14.72-4.08,21-12.56,29.49-4.43,4.42-7,9.36-9.44,15.12-5.42,12.75-12.3-14.54-16.49-21.12a2.61,2.61,0,0,0-1.85-1.09,55.36,55.36,0,0,0-2.17-6.22,2,2,0,0,0-3.38,0c-5.18,11.07-6.68,23-10.45,34.51a10.29,10.29,0,0,0-2.42,3.17,50.92,50.92,0,0,1-8.69,12.59c.49-1.23,1-2.43,1.44-3.7,1.07-3-3.11-4.16-4.76-2a86.82,86.82,0,0,1-16.51,15.92,48,48,0,0,0,2.91-22.08c-.09-.75-1.07-1.44-1.67-.69-8.86,11-17,20.42-28.56,28.73a46.45,46.45,0,0,1-11,5.94c-19.33-2.37-37.3,2.93-57.61,9.71-23.13,7.71-79.35,9.37-92.57-16.95-1.3-2.58-4.56-1-4.86,1.31a24.74,24.74,0,0,0,2.16,13.94c-1-.34-1.93-.65-2.86-1-9.52-4.12-13.41-11.7-19.32-19.5a2,2,0,0,0-3.38,0c-14.59,22.67,26.23,41.47,42.73,45.18a9.85,9.85,0,0,0,9-2.42l1.13-.46a115.43,115.43,0,0,0,27.1,7.17c20,2.63,37.47,0,56.57-6.8a81.59,81.59,0,0,1,10.95-2.91,57.18,57.18,0,0,0,23.79-.74c8.11,1.88,17.48-1.8,25.63-6.4,1.44.08,2.86.22,4.28.21a3.92,3.92,0,0,0,.25.32c11.87,12.21,27.89,8.56,41.59,1.85a33.22,33.22,0,0,0,5.52-.84,12.52,12.52,0,0,0,3.76,1c26,2.52,49.76-5.9,66.81-23.12C737.9,542,748.1,522.06,750.09,498c0,.7.08,1.2.09,1.41a3,3,0,0,0,5,2.07,37.11,37.11,0,0,0,7.43-11.5,12.44,12.44,0,0,0,3.1-1c10.89-5.51,25-20,30.65-34.93a13.18,13.18,0,0,0,2.67-2.19C839.08,408.2,829.72,354.62,821.13,300.83Z"/><path class="cls-3" d="M354,551.39c-23.18-4.36-44.58,8.24-67.85-2.54-11.42-5.29-36-17.56-42.52-32.34,3.47,1.12,8.34.19,9-4.17,2.32-15.21,2.8-34.67-6.54-47.63-.85-1.18-3.32-1.41-3.58.46-1.61,11.91.33,23.24-1,35l-2.74-1.58a7.42,7.42,0,0,0-10.81,4.4c-6.83,24.17,20,41.81,37.54,52.74,25.76,16,64.89,22.69,90.38,2.7C358.28,556.54,356.9,552,354,551.39Z"/><path class="cls-3" d="M603.2,479.06c4.25,3.36,10,3.24,13.07-1.69,4.18-6.67,5.7-14,7.12-21.61,1.17-6.33,2.87-9.74,7.29-13.74,7-1.23,14.69-1.3,22.08-1.06,20.82.69,24.67-25.34,30.78-39.22,2.86-6.49-.28-16.39-9-15.67-12.73,1.05-18.3,7.16-28,14.39-7.25,5.41-18.55,6.66-26.75,10.68-12,5.86-26.68,22.75-26.45,37.17C590,459.16,593.06,471.05,603.2,479.06Z"/><path class="cls-4" d="M423.58,84.69c-13.69,45.13-13.71,79.34-64.73,97.88-40.23,14.62-77.39,38.32-120.08,45.49-.36.06-.28.66.09.64,46.39-2.54,100.2-26,141.05-47,38.73-19.94,39.3-57,51.2-94.92C432.62,82,425,79.88,423.58,84.69Z"/><path class="cls-4" d="M753.38,45.19C719,41.86,691.94,12.93,658.59,3.68,626-5.38,599.1,3.48,569.85,17.41c-52.43,25-124.68,14.45-147.93,78.41a.35.35,0,0,0,.63.28c29-54.49,102.24-48,152.5-69.78,41.44-17.92,75.79-22,116.5,1.46C712.28,39.71,729,52.66,753.38,55,759.66,55.54,759.59,45.79,753.38,45.19Z"/><path class="cls-4" d="M815.91,228.17c-2.74-35.63-.89-194.68-67.88-179A1,1,0,0,0,748,51c34.79,7.31,40.1,51.25,45.51,80.16,6.72,35.81,8.13,72.5,11.44,108.73,3.52,38.51,16,75,17.63,113.94,2.62,61.92-26.24,104-72,141.77-3.52,2.9,1,8.24,4.74,6.13,43.58-24.49,72.61-70.47,77-120.26C837,328.7,819.89,280.09,815.91,228.17Z"/><path class="cls-4" d="M747.2,430.82c0-.39-.52-.42-.64-.09-12,34.68,15.24,82.93-18.64,108.4-14,10.54-31.62,16.91-48,22.53C670,565,656,564.68,648,571.39c-1.53,1.29-.86,3.63.59,4.6,19,12.73,75.91-18.79,90.49-31.68C771.24,515.9,745.29,466.73,747.2,430.82Z"/><path class="cls-4" d="M311.82,561.79c-12.42-7.19-27.31-8.42-40.35-15.64-15.49-8.56-29.3-20.33-43.24-31.09-36.3-28-59-47.59-60-96-1.05-49.7,18-92.79,35-138.28,10.19-27.29,18.54-50.91,52.78-52.36,13.87-.59,20.34-4.17,28.94-15,.27-.34-.16-.82-.48-.5-17.05,17-43,3.55-63.24,16.33-16,10.09-20.88,31.38-27.73,47.46-22.37,52.55-40.82,101.9-37.23,159.85,2.67,43.35,32.49,64.28,63.63,89.37,18,14.49,68.51,64.76,92.58,41.06A3.29,3.29,0,0,0,311.82,561.79Z"/><path class="cls-4" d="M677,567.42c-6.26-.7-11.85.68-17.08-3.57a8.72,8.72,0,0,0-10-1.29c-31.84,14.37-66.15,4.58-99.33,1.94-30.2-2.41-60.08,10-90.09,11.24-27,1.13-53.23-16.86-80-19.38-26.61-2.49-56.58.92-80.59,13.06a.32.32,0,0,0,.08.59c39.37,8.49,78.31,2.2,117.85,14.81,33.26,10.63,60.43,9,94.21,2.11,39.23-8,76.77,8,115.15,1.66,17.84-3,39.46-3.53,51.47-17.28A2.31,2.31,0,0,0,677,567.42Z"/><path class="cls-4" d="M498.32,38.63C468.56,44,439.48,50.28,423.27,78.07c-23,39.48,1.4,94.21-13.72,136.87-.84,2.37,2.75,4.61,4.36,2.54,18.91-24.46,15.44-51.27,13.77-80.9-1.37-24.4.49-49.5,16.74-69C457.23,52.21,480.76,46.74,499,41.14A1.3,1.3,0,0,0,498.32,38.63Z"/><path class="cls-4" d="M412.11,228c-.23-2.36-3.43-3.06-4.13-.58-9.91,35.21-37.83,47.52-61.43,71.33-10.49,10.6-19.32,23-29.46,33.95C296.4,355,277.83,352.78,252.42,346.2c-45.28-11.71-57.87,35.22-65.77,70.59a1.05,1.05,0,0,0,2,.57c10.67-35.71,23.26-74.8,68.57-62.27,23.86,6.6,38.05,6.28,58.53-9.84,24.06-19,41.24-45.59,65.67-64.76C398.14,267.4,414.38,251,412.11,228Z"/><path class="cls-4" d="M744.67,305.66c-5.14-10.55-5.95-16.82-6.57-31.44-.87-20.65,0-39.32,1.61-59.76.19-2.3-1.42-3.73-2.24-1.63-8.61,22.26-4.19,56.21-2.31,81,1.75,23.07,20.89,23.36,20.28,52,0,.25.24.32.27,0C757.81,325.7,751.82,320.35,744.67,305.66Z"/><path class="cls-4" d="M769.3,85.56a.66.66,0,0,0-1.29.17c1.56,26.41-12.24,35.26-28,52.85-12.77,14.23-24.87,31.44-35,47.56a3,3,0,0,0,3.31,4.3c22.44-6.72,31-36.75,44.15-53.69C766.24,119.05,773.52,109.11,769.3,85.56Z"/><path class="cls-4" d="M785.83,429.25c-15.22-17.07,6.07-35.65,9.9-51.3,2.73-11.1.76-26.15-1.5-37.19-8.22-40.31-26.5-77.46-34.18-117.91-.37-1.94-3-1.27-3.19.43-3,31.22,5.7,59.45,15.43,89a199.59,199.59,0,0,1,10.28,52.53c1.06,19.27-13.82,30.59-17.94,47.74-4.81,20.08,34.6,35.16,16.75,55.75-13.22,15.24-39.1,22-42.57,44.2-.65,4.12,4.21,8.1,7.61,4.43C773,488.2,821.78,469.56,785.83,429.25Z"/><path class="cls-4" d="M602.12,273c-47.23-14.81-94.93,37.22-120.58,69.64-14.84,18.75-33,16-55.44,11.47-7.31-1.47-12-2.62-19.35,1.54-24.32,13.71-54.27,67.84-87.24,49.6-.64-.34-1.39.55-.8,1,16,13,30.7,9.28,46.68-3,9-7,17.3-15.47,25.21-23.63,11.8-12.19,29.44-18.8,45.15-10.35,3,1.6,6.32,3.16,9.72,3.36,25.39,1.46,39.62-18.49,53.89-36.93,25.84-33.41,62.24-50.18,102.76-58.94C604.1,276.36,603.87,273.57,602.12,273Z"/><path class="cls-4" d="M651.17,443c-10.64,27.42-6.42,57.14-20.84,83.33C619,547,594.3,572.43,568.88,568c-10.86-1.9-16.07.59-22.9,8.56a2,2,0,0,0,1.9,3.26c19.23-3.61,32.5,5,50.94-3.67,14.8-7,28.89-24.1,37.85-37.22,19.48-28.53,13.74-62.8,16.41-95.66C653.18,442.06,651.54,442,651.17,443Z"/><path class="cls-4" d="M485.62,576.08c-5.37-4.33-10.38-4.51-17.13-5.12a105.45,105.45,0,0,1-27.36-6.48c-22.57-8.43-34.08-23.9-34.94-48.29a1,1,0,0,0-1.95,0c-2.68,20.51,2.56,40.29,19.84,53,13.18,9.71,46.23,22.33,61,11C486.28,579.25,487.06,577.25,485.62,576.08Z"/><path class="cls-4" d="M337.19,553c-45.86,19.26-85.89-8.85-107.13-48.59l6.82,0c3.44,0,5.36-3.15,4.78-6.3-5.49-30.46,17.34-34,30.81-57.11,6-10.3-7-21.69-12.69-28.07-.5-.56-1.39.16-1,.79,17.91,30.37-10.45,34.05-24.38,53.68-5.87,8.25-5,17.62-3.37,27-3,0-6.06-.05-9.1-.06-4.17,0-5.87,4.24-4.37,7.62,20.06,45.23,74.63,93,122.18,55.39C341.72,555.74,339.56,552,337.19,553Z"/><path class="cls-3" d="M48.8,440.26C27.74,445.52,7.72,463.43,4.57,494s19,62.15,65.3,74.79,86.38,5.27,111.66-1,64.25-27.39,72.68-55.84,1.06-55.82-22.11-77.94-53.73-34.77-84.27-32.66S83.57,412.88,48.8,440.26Z"/><path class="cls-1" d="M30.9,451.32c-9.34,3.74-28.57,26.87-13.69,54.77,8.42,15.81,41.28,28.16,70.58,31.61,35.8,4.21,67.4,3.16,107.44-20.55,37.9-22.44,52.67-64.78,19-93.22s-89.54-22.65-125.36-6.84S52,442.89,30.9,451.32Z"/><path class="cls-2" d="M170.71,422.24c-12.39-15.85-36.52-17.61-54.77-15.57-20,2.26-42.91,13.05-54.63,23a110.77,110.77,0,0,0-8.73,8.1c-10,6.16-16.81,19.13-19.53,29.61-5,19.2,9.89,37.1,26.53,44,20.15,8.35,47.5.15,67.15-6.13,17.62-5.64,37.43-16.36,48-32.06C186.28,456,183,438,170.71,422.24ZM42.52,481.45a44.43,44.43,0,0,0,10.06,10.28c.59.44,1.2.85,1.82,1.25C49.05,490.59,44.74,486.9,42.52,481.45Z"/><path class="cls-4" d="M194.92,406.78c-37.82-17.26-75.77-6.53-112.2,9.36-10.39,4.53-22.32,11.17-32.13,19.44C25.89,441.75,5.86,458.4,1,484.65c-4,21.49,4.89,44,19.36,59.63,29.21,31.54,80.25,37.11,120.57,33.79,40.15-3.31,86.1-17.93,109.64-52.91C283,477,238.31,426.57,194.92,406.78Zm-59.83,164.1c-42.43,2.83-99.1-6.56-120.47-48.44C-.76,492.29,12.29,463,38,449c-8.57,12.25-11,26.68.09,42.34A1.12,1.12,0,0,0,40,490.23c-9.76-18.31-4.45-33.43,8-45.63,1.87-3.29,15.64-12,17.51-13.07,23.45-13.86,54.66-22.19,71.92-25.64,53.67-10.72,133.41,41.6,113.49,102.21C236.21,552.79,176.19,568.14,135.09,570.88Z"/><path class="cls-4" d="M63.48,423.79a19.53,19.53,0,0,1-1.59,1.39,5.37,5.37,0,0,1,1.92-.81C64.37,424.27,63.87,423.34,63.48,423.79Z"/><path class="cls-4" d="M51.63,434c-.35.23,0,.81.32.57a31.41,31.41,0,0,0,4.83-4.32c.81-.86,1.74-2,2.74-3a18.39,18.39,0,0,0-1.5,1.25A42.49,42.49,0,0,1,51.63,434Z"/><path class="cls-4" d="M59.52,427.2c.81-.66,1.57-1.36,2.37-2A13,13,0,0,0,59.52,427.2Z"/></g></g></svg>