<svg xmlns="http://www.w3.org/2000/svg" viewBox="0 0 949.54 485.46"><defs><style>.cls-1{fill:#a59b87;}.cls-2{fill:#bab4a5;}.cls-3{fill:#e3dbcb;}.cls-4{fill:#877758;}</style></defs><title>rocks-1</title><g id="Layer_2" data-name="Layer 2"><g id="Layer_1-2" data-name="Layer 1"><path class="cls-1" d="M6.78,373.8c8.55,15.79,30.21,22.66,63.66,32.37s72.29,10.79,105.75,4.32S242,393.22,252.81,376s21.58-37.77,10.79-62.59-61.5-42.08-110.06-42.08-98.2,10.79-116.54,27S-7.25,347.9,6.78,373.8Z"/><path class="cls-2" d="M61.82,284.22c-21.58,8.64-44.26,28.06-54,54s8.62,43,88.49,42.08c91.72-1.08,191-44.25,153.23-82s-134.89-29.13-187.76-14"/><path class="cls-3" d="M20.82,337.11c7.55,10.79,87.41,9.71,131.65-8.64s53.95-49.63,17.27-55-93.88,4.3-117.63,17.25S13.27,326.32,20.82,337.11Z"/><path class="cls-4" d="M19,389.21c39.95,21.15,83,30.56,128,27.15,31.27-2.37,109.41-16.64,118.2-56.56a55.38,55.38,0,0,0,4.44-38.24c-6.86-29.49-45.4-42.64-70.88-48-33.68-7.06-69.74-4.2-103.51.73-35.61,5.21-66.94,19.09-84.88,51.36C-2.54,348.94-7.17,375.34,19,389.21Zm-3.67-60.66c24.52-50.35,94.19-53.33,143-53.09,27.82.12,55.91,4.79,80.3,18.62,36,20.44,34.87,68.15-2.86,85.74-3.35,1.56-.44,6.51,2.89,5a60.76,60.76,0,0,0,7.52-4.22c-20.93,15.81-54.63,23.5-74.31,27.34a220,220,0,0,1-106-5.3c-15.06-4.51-29.63-11.83-44-18.34C-2.78,373,6.26,347.24,15.36,328.55Z"/><path class="cls-1" d="M358.91,95.46s52-40,84-56S543.37-4,591.2,7.29s73.16,36.58,115.37,70.35,87.22,53.46,101.29,59.09S836,238,821.93,257.72c0,25.32-22.51,106.92-70.34,135.06s-98.49,25.33-149.13,19.7-87.23-14.07-112.55-25.33C456.14,412.48,422.38,437.8,383,443.43s-70.34-31-112.55-36.58-56.27-5.62-64.71-14.07-14.07-2.81-14.07-53.46-25.89-77.73,1.12-112,36-25.28,36-25.28c-9-31.53-.56-62.48,19.13-76.55S360.15,82.33,358.91,95.46Z"/><path class="cls-2" d="M711.55,84.29c-.1-.39-.21-.77-.33-1.15-10.48-34-69.06-54.84-98.24-65.47C559.64-1.77,508,6.81,458.55,33,419.05,54,385.77,87.14,340.65,95.38c-22,4-44.71,4.62-65.29,14.35-22,10.39-57,43.88-54.17,63.58,7.53-11.09,68.07-7.92,76,0-14.07,0-25.32,2.81-38.34,9-12.06,5.7-22.68,14-34,21.11-25.37,15.86-36.32,28.81-39.35,52,12.24,32.6,9.05,95.17,56.2,93.95,10.49-.27,26.2-6.55,36.19-.58,8.41,5,10.88,12.28,14.07,21.24,6.49,18.23,19.67,20.34,33.37,30.94.86.66,1.63,1.39,2.4,2.1-2.13-17-9.25-31.93-19.74-47.11-6.1-8.85-12.45-17.59-17.92-26.86-4.31-7.31-6.33-16.19-11.35-23.05-6.64-9.08-17.28,6.47-24.42,7.79-5.44,1-12.13-1.2-16.82-3.86-11-6.27-21.25-16-23.95-28.63-.71-.51-1.4-1-2.13-1.55-2.82-2-.1-6.77,2.75-4.71l0,0a2.91,2.91,0,0,1,4.14,2.34c0,.3.14.59.18.89,8.58,6.54,18.08,13.93,29.1,13.2,8.05-.54,16.88-1.75,22.6-8a13.88,13.88,0,0,1,3.86-3.23c11.65-6.14,33.84,25.54,37.33,33.34,6.38,14.31,9.81,27.5,22.54,37.61,6.94,5.51,12.59,11.42,14.33,20.42a57.43,57.43,0,0,1,.8,6,2.24,2.24,0,0,1,1.41,1.76c3.43,16.58,17.47,36.2,33.34,33.1,17.29-12.76,31.73-32.34,46.54-45.42,40.4-35.7,87.93-55.19,136.94-75,23.8-9.63,36.14-31.28,51.64-50.56C640.2,215,663,199.36,696.48,192.8c2.21-21.39,5-42.55,9.71-63.55C709.32,115.14,715.53,98.82,711.55,84.29Z"/><path class="cls-3" d="M484.67,239.59c-15.75-1.5-45.95,2-53.7-16.71-5-12.11-10.94-19.2-24.19-22.26-7.14-1.65-15.43.15-22.56,1-15.13,1.83-25-7-36-15.11-10.29-7.61-25-5.89-38.22-3.1-32.43-4.28-67.32,7.09-92.54,27.68-15.13,12.35-37.34,36.61-16.59,54.18,29.45,25,89.55-4.48,121.58-5.89,29.57-1.3,59.42,15.3,87.24,23.17,18,5.1,37.56,6.25,56.15,5.95,17.5-.27,58.67-3.12,61.85-26.95C530.4,241.48,497.41,240.81,484.67,239.59Z"/><path class="cls-3" d="M629.85,41.84c-24.67-35.67-77-44.55-112.91-21.66-19,4.31-37.85,12.4-55.2,19.84s-33,17.44-48.18,28.2c-6.69,2.19-13.15,4.93-18.89,9.37-10.62,8.22-20.06,17.38-31.48,24.62-11,7-23.66,9.3-35,15.23-1.41.73-2.76,1.51-4.14,2.26-10.7,3.7-21.53,7.09-32.27,10.69a79.41,79.41,0,0,1,35-20.61c5.93-1.68,5-11.56-1.49-11C288.21,101.86,230,121,219.94,162c-1.1,4.45,4.05,9.47,8.34,6.41,5.24-3.75,11.73-5.66,18.44-6.89a5.43,5.43,0,0,0,4.55-.73l0,0c5-.71,9.94-1.2,14.51-1.9,16.17-2.48,29.6-8.76,43.58-17,11.83-7,24.15-12.33,36.39-18,3.13-1.25,6.25-2.55,9.33-3.93,23.23-10.41,42.81-26.69,63.15-41.77,11.35-4.22,24.29-6.22,35.18-10.87,19.75-8.44,36.26-22,56.81-29.26C522,33.76,538.65,31.74,556,31.78c7,.63,14,1.63,20.94,2.77,11.09,3,22.38,6.58,34.59,9.69,4.25,2.33,8.89,3.37,14.87,3.66C629.3,48,631.57,44.32,629.85,41.84Z"/><path class="cls-3" d="M642,113.75a32.58,32.58,0,0,1-10.48-22.06,4.88,4.88,0,0,0-4.64-3.94c-25.43,1.88-44.62-25.35-71.2-25.08-13.22.14-26.64,5.59-39.37,8.87-17.23,4.44-34.47.33-51.56,5.47-9.5,2.87-18.26,9.63-26.79,14.79-11.8,7.14-24.66,9.54-36.56,15.64a64.08,64.08,0,0,0-24.29,22.22c-8.89,9.64-13.69,23.39-9.22,37.48,10.5,33.14,55,9.33,72.88,3.4,20.61-6.85,44.06,1.7,64.8,2.79,14.47.77,24.93-12.8,34.06-23.08,9.79-11,20.06-17,32.88-22.76,19.92-8.93,16.68,5.17,29,8.93,13.75,4.2,29.77-4.69,40.51-13.3C644.85,120.87,645.53,115.84,642,113.75Z"/><path class="cls-4" d="M820.73,138.56a6.36,6.36,0,0,0-4.57-6c-60.44-18.65-102.77-57.79-150.47-96.83C637.28,12.48,609.11,1.06,572.39.08,465.6-2.8,389.78,76.75,301.33,123.17c-1.77.93-.52,4,1.38,3.27C412.94,84.45,537-49.9,656.76,44.66c25.21,19.9,47.5,42.39,74.17,60.57,15.12,10.3,31.29,18.9,47.84,26.64,13.88,6.5,28.72,6.35,31,23.71,4.56,34.54,28.2,65.22,6.35,99.12-17.55,27.21-51.59,39.84-66.13,69.48-1.34,2.72,1.75,4.87,4,3.1,28.14-22.13,63-45.76,79.67-78.3C851,215.17,822.28,172.65,820.73,138.56Z"/><path class="cls-4" d="M829.63,242.4a1.28,1.28,0,0,0-2.51-.34c-12.62,37.73-20.51,73.85-42.65,108-22.35,34.53-54.23,52.28-94.19,56.81-31.68,3.59-64,2.67-95.74.21-29.07-2.26-69.67-5-93.41-24.41-7.08-5.79-17.27,4.28-10.12,10.12,22.88,18.71,55.32,22.78,83.64,26.54,41.33,5.48,84.48,6.08,125.84.6C777.72,409.75,835.85,317.65,829.63,242.4Z"/><path class="cls-4" d="M553.49,295.35c-42.51,27.13-55.6,82.1-98.4,110.64-23.59,15.72-53.45,30.32-81.93,33-30.06,2.8-61.66-16.82-84.81-33.83-14.3-10.5-33.7-19.95-51.89-16.52-47.2,8.91-36.75-32.15-38.61-59.67-1.28-18.94-7.06-37.6-10.36-56.23-6-33.63,14.84-53.67,41.3-70.68a5.39,5.39,0,0,0,2.46-6C207.56,122,308.08,107.43,358,91.34a1.28,1.28,0,0,0-.69-2.47c-47.34,11-131.54,17.5-140.26,79a48.44,48.44,0,0,0,0,13.23c2.12,15.69-2.19,16.43-14.71,26-12.3,9.41-21.24,21.33-26.11,36-10.92,32.88,10.33,73.23,9.3,106.77-.74,24,8,58,40.58,53.23,50.36-7.43,85.34,41.54,135.09,48.12,37,4.9,87.53-21.54,114.18-44.62,33.35-28.88,57.13-71.42,82-107.4C559,296.86,555.8,293.87,553.49,295.35Z"/><path class="cls-4" d="M704,131.71c.1-.32-.38-.44-.49-.14-4.16,10.94-6.29,21.59-7.72,33.13-1,8.37,3.48,25.94-7,26-16.39,0-32.16,12.09-44.4,21.45-27.82,21.29-63.13,54.19-73.93,88.65a1.8,1.8,0,0,0,3,1.74c16.61-18,30.31-38.23,46.83-56.34,18.15-19.9,47-51.32,76.51-49.48a2.74,2.74,0,0,0,2.74-2.74C698.77,172.81,698,152.26,704,131.71Z"/><path class="cls-4" d="M343,124.51c-3.49,13.74-7.16,52.06-25.85,47.44-15.36-3.79-32.78.07-47.73,3.91-27,6.93-64.86,23.67-80.18,47.94-1.5,2.39,1.35,4.44,3.5,3.5,17.79-7.75,33-21.69,50.42-30.75,26.65-13.87,56.27-20.35,85.69-12.65a4,4,0,0,0,4.85-2.76c5.56-18.41,8.13-37.21,10.79-56.22C344.65,124,343.29,123.52,343,124.51Z"/><path class="cls-4" d="M294,322.48c-2.94-6.74-13.27-25.85-23.72-21.65-6.38,2.57-10.81,6.28-16.35,10.45-12.5,9.39-39.15-30-40.9-34.47-.35-.9-1.77-.56-1.48.41C216,291.93,237.9,325,257,316.59q4-2.54,7.95-5.2,18.93,3.92,23.39,19.48c3,7.6,8.41,12.83,13.91,18.65,9,9.53,17.25,19.65,22.19,31.91,4.14,10.32,1.62,23.1,2.95,34,.28,2.34,3.4,3.72,4.77,1.29C354.93,375.92,307.83,354.29,294,322.48Z"/><path class="cls-4" d="M526.13,280c-29.93,5.5-54.75,12.75-85.87,9.83C410.21,287,380.79,279.06,350.7,276c-1.18-.12-1.35,1.71-.27,2,50,14,134,52.11,179.68,8.84C533.3,283.8,529.91,279.29,526.13,280Z"/><path class="cls-4" d="M564.21,41.16c-26.44,10.31-53.83,4.41-80,13-25.1,8.27-43.8,25.42-71.25,28-1.29.12-1.34,2.08,0,2,24.37-.61,43.9-11.49,66-20.5,29-11.83,60.16.68,88.37-15.06C571.33,46.42,568.59,39.45,564.21,41.16Z"/><path class="cls-1" d="M555.64,335c-17.85,4.46-34.8,19.64-37.48,45.52s16.06,52.65,55.33,63.36,73.19,4.47,94.61-.88,54.44-23.21,61.58-47.31.9-47.3-18.73-66S665.42,300.2,639.55,302,585.1,311.8,555.64,335Z"/><path class="cls-2" d="M540.47,344.37c-7.91,3.17-24.2,22.78-11.59,46.41,7.13,13.39,35,23.86,59.8,26.78,30.34,3.57,57.11,2.68,91-17.4,32.12-19,44.63-54.9,16.07-79s-75.86-19.19-106.21-5.8S558.33,337.23,540.47,344.37Z"/><path class="cls-3" d="M658.93,319.73c-10.5-13.42-30.94-14.92-46.4-13.18-17,1.91-36.36,11.05-46.29,19.46a96.18,96.18,0,0,0-7.4,6.87c-8.51,5.21-14.23,16.21-16.54,25.09-4.24,16.26,8.38,31.43,22.48,37.27,17.07,7.08,40.24.12,56.89-5.2,14.93-4.77,31.71-13.86,40.66-27.16C672.12,348.35,669.36,333.07,658.93,319.73ZM550.32,369.9a37.88,37.88,0,0,0,8.52,8.71c.51.37,1,.72,1.54,1.06C555.86,377.64,552.2,374.52,550.32,369.9Z"/><path class="cls-4" d="M679.45,306.64c-32.05-14.62-64.2-5.53-95.07,7.93A114.15,114.15,0,0,0,557.15,331c-20.92,5.22-37.89,19.33-42,41.58-3.39,18.21,4.14,37.27,16.4,50.52,24.75,26.72,68,31.44,102.16,28.63s72.94-15.2,92.89-44.83C754.07,366.09,716.2,323.41,679.45,306.64Zm-50.7,139c-36,2.4-84-5.55-102.07-41-13-25.54-2-50.4,19.8-62.21-7.26,10.38-9.28,22.61.08,35.88a1,1,0,0,0,1.63-1c-8.26-15.5-3.76-28.32,6.76-38.66,1.59-2.79,13.26-10.13,14.84-11.07,19.87-11.75,46.31-18.8,60.94-21.72,45.47-9.08,113,35.24,96.15,86.59C714.43,430.35,663.57,443.36,628.75,445.67Z"/><path class="cls-4" d="M568.08,321.05a14.08,14.08,0,0,1-1.35,1.18,4.56,4.56,0,0,1,1.63-.69C568.83,321.45,568.41,320.67,568.08,321.05Z"/><path class="cls-4" d="M558,329.68c-.3.19,0,.68.27.48a26.36,26.36,0,0,0,4.09-3.66c.69-.73,1.48-1.68,2.33-2.56a14.7,14.7,0,0,0-1.28,1.06A36,36,0,0,1,558,329.68Z"/><path class="cls-4" d="M564.73,323.94c.69-.56,1.32-1.15,2-1.71A10.94,10.94,0,0,0,564.73,323.94Z"/><path class="cls-1" d="M849.29,308.12c14.38,20.13,40.25,25.88,63.25,37.38s34.51,46,31.63,63.25S934,439.27,916.06,431.2s-26.52-8.07-26.52-8.07,2.69,21.41-30.28,36.59-53.1,29.54-102,15.16-83.64-42.07-80.63-81.41,11.62-62.35,20.25-96.85,51.75-69,89.13-63.26,34.5,40.26,63.25,74.76"/><path class="cls-2" d="M898.17,357c14.38,5.75,31.62,31.62,20.12,43.12S909.67,397.25,901,380a277,277,0,0,0-20.12-34.5C886.67,351.25,898.17,357,898.17,357Z"/><path class="cls-2" d="M688.28,342.62s8.63-23,20.13-40.25c-5.75,25.88-8.62,51.75-25.88,69s-5.75,51.75,8.63,66.13,37.37,23,66.13,23,5.74-34.5,17.24-23,14.38,14.37,34.51,14.37,31.62-34.5,17.25-66.13,8.63-20.13-2.87-60.38-20.13-92-63.26-92C725.65,244.87,694,270.74,688.28,342.62Z"/><path class="cls-4" d="M880.76,350.15C835.7,322,843.54,235.74,782.61,227.58c-35.09-4.7-68.62,26.26-83.92,54.55-9.36,17.33-13.77,37.14-17.37,56.32-3.73,19.89-8.06,40.61-7.64,60.86,0,1.84,2.94,3,3.77,1,13.51-31.88,11.65-68.92,23.92-101.74,12.37-33.14,50.39-70.84,88.94-59.53,24.24,7.11,36.06,40.38,45.71,60.81,9.89,20.94,20.41,43.74,42.51,54.09C881.08,355.14,883.2,351.68,880.76,350.15Z"/><path class="cls-4" d="M945.43,382.1c-6.19-21.48-18.14-34.52-38.49-43.56-15.93-7.08-32.23-11.18-45.49-23.12-13.09-11.8-21.42-28.75-30-43.88-1.2-2.12-4.09-.26-3.17,1.85,8,18.72,15.57,37.83,30.72,52,17.26,16.16,43.19,18.35,61.69,32.82,11.25,8.79,16.12,29.25,17.61,42.6.77,6.81.3,13.95-3,20-5,9-18.19,2.22-25.82,2-3.31-.12-5.19,4.33-2.73,6.58,9.54,8.76,28.09,10.45,36.53-1.08C952.89,415.18,949.62,396.61,945.43,382.1Z"/><path class="cls-4" d="M860.38,346.71a.73.73,0,0,0-1.26.74c10.37,23.28,29.5,54.07,23,80.34-6.81,27.7-43.87,43.23-69.66,41.44-2.38-.16-2.76,2.95-1.12,4.11,25.45,17.91,64.36-12.46,77-33.89C905.9,409.9,876.9,369.8,860.38,346.71Z"/><path class="cls-4" d="M930.78,429.26c-7.18-4.17-16.47-3.54-24.46-5-3.68-.66-7.29-1.62-10.9-2.6-4.27-1.16-6.54-1-10.8-1.45-1.63-.18-1.76,2-.75,2.74,11.07,8.28,33.27,18.33,46.91,11.06A2.78,2.78,0,0,0,930.78,429.26Z"/><path class="cls-4" d="M916.06,431.2c-1.77-4.51-7.12-7.42-9.94-11.52-3.62-5.26-5.08-11.61-5.47-17.89a1.11,1.11,0,0,0-2.21,0A41.54,41.54,0,0,0,902,420.25c2.17,4.87,6.81,12.3,12.46,13A1.65,1.65,0,0,0,916.06,431.2Z"/><path class="cls-4" d="M859.26,459.72c-20.11,5.28-36.44,14.16-57.85,16a138.56,138.56,0,0,1-71.06-13c-24.82-11.91-50.25-39.08-50.9-67.55-.54-23.53,23.29-40,22-63,0-.84-1.28-1.33-1.71-.46-10.07,20.72-32.5,45.7-28.88,70.4,4.17,28.42,26.77,51.61,50.45,66.16,21.88,13.45,49.34,17.46,74.56,17.2,20.91-.21,52.24-4.84,65.42-23C862.33,461,860.7,459.34,859.26,459.72Z"/><path class="cls-4" d="M806.44,428.08c-3.29-9.14-8.77-14.84-16.48-20.62-13.5-10.11-18.74-9.09-14.6-29.12a5.41,5.41,0,0,0-6.57-6.57c-8.25,1.89-16.16.12-24.31-1,.1,0-.65-13.22-.85-14.16-2.57-11.94-6.81-19.4-18-24.81-.35-.17-.79.3-.45.57,13.5,10.71,14.14,25.46,11.57,41-.31,1.8.45,4.3,2.62,4.61,7.84,1.12,15.14,3.13,22.8,3.92-9.64,27.37,18.54,33.25,37.51,50C802.48,434.48,807.91,432.16,806.44,428.08Z"/><path class="cls-3" d="M792.86,271c-18.41-36.72-63.18-12-74.3,17.93a5,5,0,0,0-3.61,6.14,21.2,21.2,0,0,0,1.27,3.55c0,.28-.08.56-.11.83-.05.65.43.88.92.83,5.3,10,17.5,18.47,25.18,25.08,4.91,4.23,8.56,6.12,15.17,7.36,8.25,1.55,15.84-.83,18.81,11.58,1.37,5.74,1.5,11.25,3.59,16.86a5.09,5.09,0,0,0,7.34,3C816.72,349,804.37,294,792.86,271Z"/><path class="cls-3" d="M755.44,422.28c-2.32-4.73-4.52-7.49-8.91-10.38-6-3.94-15.84,0-19.26-8.75-3.92-10,2.79-21.65.34-32-2.84-12.09-7.15-30.09-16.33-22.78-18,14.38-28.91,54.44-19.81,72.29,11.33,22.23,39.44,31.7,61.61,19.45C759.06,436.79,757.88,427.28,755.44,422.28Z"/><path class="cls-1" d="M270.91,434.41c15.64-4,61.67-16.8,55.1-40.39s-41.3-35.38-97-34.69-122.07,6.07-127.64,43.56c3.89,21.33,29.84,38.57,73.29,43.38S236.53,443.23,270.91,434.41Z"/><path class="cls-2" d="M140.53,368.21c-22.93,7.9-46.43,25.59-34,44.78s60.56,22.72,117.77,7.26,104-38.79,67.4-53.16S181,354.24,140.53,368.21Z"/><path class="cls-3" d="M141.4,368.09c-23.52,8.59-44.93,23.85-22.36,34.71s78.45-2.1,93.7-11.89,38.52-34.57-6.76-32.32S158.2,362,141.4,368.09Z"/><path class="cls-4" d="M117.4,431.21c39.77,25.53,102,25.34,149.16,6.81,35-6.85,68.49-20.67,61.59-46C316.85,350.43,218,354.31,181.5,357.84c-27.08,2.63-58.76,9.68-76.1,29.15C91.38,402.72,101.39,421,117.4,431.21Zm8-53.51c19.19-11.05,46.1-14.77,68.64-16,33.39-1.78,111.52-3.81,127.71,28.15,8.07,15.95-8,27.74-30.92,36.06a112,112,0,0,0,17.52-13.23c.5-.46-.28-1.1-.81-.67a139.42,139.42,0,0,1-33.11,19c-27.88,7.52-59.38,10.93-71,11.13-1.09,0-1.05,1.41,0,1.47a229.88,229.88,0,0,0,26.2-.72,211.23,211.23,0,0,1-80.89-4.55C114.29,429.37,85.34,400.81,125.45,377.7Z"/></g></g></svg>