<svg xmlns="http://www.w3.org/2000/svg" viewBox="0 0 1092.02 417.12"><defs><style>.cls-1{fill:#a59b87;}.cls-2{fill:#bab4a5;}.cls-3{fill:#e3dbcb;}.cls-4{fill:#877758;}</style></defs><title>rocks-8</title><g id="Layer_2" data-name="Layer 2"><g id="Layer_1-2" data-name="Layer 1"><path class="cls-1" d="M853.05,84.17c-10.75-2.71-64.46-10.83-94-8.13s-59.08,0-88.63,65-37.6,124.6-29.53,143.56,61.77,56.89,99.36,84,51,37.92,91.31,37.92,102-19,153.08-48.76c48.34-13.54,88.63-29.79,96.68-56.88s2.69-40.63-8-84S1076,92.29,1033,62.5s-29.55-5.42-56.4-21.67-51-19-72.51,2.71S853.05,84.17,853.05,84.17Z"/><path class="cls-2" d="M955,31.93c-1.7-1.3-3.55.47-3.57,2.25a40.24,40.24,0,0,0-19.07-1.77c-22.49,3-38.8,23.5-56.81,36.34a2.7,2.7,0,0,1-.51,2.38c-8.47,10.67-21.7,14.11-34.08,9A163.39,163.39,0,0,1,816.55,79c-5.07-.42-10.16-.93-15.23-1.73a2.33,2.33,0,0,1-.54-.21c-6.66-.83-13.14-1.58-19.17-1.82-27.15-1.08-57.55-.6-81.2,14.41-27.55,17.5-40.57,63.79-44.42,94.77-3.26,26.28,7.54,40.94,28.65,34.12-4.63,15-28,23.19-25.13,43C661,271.8,674,280.05,681.75,284.82c16.35,10.12,23.16,29.7,39,40.54,8.76,6,18.73,13.24,29.77,11.52,3.67-.58,8.16-4.9,11.14-6.74,11.82-7.3,20.54.8,33.69,1.88,8.88.73,29.76,3.44,37.59,2.71,35.67-8.4,59.1-55.12,56.49-92.1a2.2,2.2,0,0,1,.48-1.59c-.25-4.89-.44-9.78-.48-14.66,0-3.38,5.18-3.38,5.21,0,.24,27.52,4.36,55.25,1,81.54,3.29-4.32,6.45-8.79,9.53-13.41,9.12-13.69,13.92-29.05,15.84-45.3,1.16-9.76-.57-19.83-1.22-29.56-1-15.07,12.82-11.28,23.27-10.76,4.64.24,7.9-3.94,8.17-8.24,1-16.71-.85-37,19-43.66,7.67-2.58,16.37-.45,24.21-2.28,14.8-3.46,20.67-13.2,23.45-27.78C1025.36,87.18,981.88,52.61,955,31.93Z"/><path class="cls-3" d="M841.15,87.52C796.62,77.61,746,60.8,705.63,90.4c-26,19.08-56.63,56.71-45.93,91.42a5.59,5.59,0,0,0,9.28,2.47c12.29-12.31,24.67-36.87,42-42.22,11.46-3.55,17.48-10.48,26.33-18.89,15.29-14.53,54.65-31.59,75.58-25,2.6.82,4.76-1,5.54-3.21A79.09,79.09,0,0,0,827,94c2-.34,2.62-2.43,2.08-4.11a88.48,88.48,0,0,0,12-1C841.87,88.83,841.82,87.67,841.15,87.52Z"/><path class="cls-3" d="M953.37,55.85a27.16,27.16,0,0,0-13.85-4.13,33.2,33.2,0,0,0-16.3,1.51c-2.39.5-4.77,1.08-7.07,1.73a95.25,95.25,0,0,0-34.87,18.42C858.22,92.69,833,99.89,804.5,107c-39.68,9.84-58.07,34.75-66.91,73.77-8.64,38.17,25.8,56,55.69,36.53,4.84-3.15,7.74-7.8,10.93-12.43q3.18-5.81,6.46-11.55c11.45-20.25,24.4-7.33,37-7.32s26.64-2,33.75-14.21c3.15-5.38,5.15-11.07,7.27-16.93,5.06-14,8.91-10.67,20.15-8.09,17.71,4.07,32.85-5.7,50-9C1020,126,989.51,71.94,953.37,55.85Z"/><path class="cls-3" d="M857.18,261.07c-1.82-2.4-4.11-3.65-7.17-2.94-20,4.68-38-4.29-56.82-9.85-17.59-5.21-32.62-1.08-50.2,1.06-26.11,3.17-47-15.39-65.07,11.14a2,2,0,0,0,.39,2.63c-3.56,5.76-3.25,13.31,4.68,18,3.48,2,7.49,2.14,11.36,2.44,11.25.84,17.53,5.51,24.54,13.64,8.51,9.87,15.71,17.62,28.24,21.63,15.68,5,27.49-9.08,42.12-10.91,15.58-1.95,28.76,1.94,44.2-3C853.76,298.45,873.09,282.1,857.18,261.07Z"/><path class="cls-4" d="M999.93,43.47c-20.82-8.84-59.45-26.53-82-15.23-30.85,15.49-45.56,48-79.47,59.56-23.25,7.93-48.32,9.15-70.33,20.76S739.6,143.78,738.36,167c-.2,3.84,5.51,3.72,5.85,0,6-64.71,62.61-54.72,108.2-74.6,23-10,36.91-29.89,55.13-46.32,29.26-26.36,60,4.15,91.43,4.65C1003.43,50.79,1003.5,45,999.93,43.47Z"/><path class="cls-4" d="M1080.12,219.58c-14.21-47.47-3.44-100.45-26.45-145.6-22.12-43.4-64.59-21.75-100-42-1.87-1.07-4.15,1.67-2.36,3.09,10.69,8.57,21.33,14.19,34.93,16.47,16.57,2.79,31.57-.43,45.51,11.64,32.38,28.05,25.51,91.81,29.84,130.17,4.26,37.89,34.11,83.8,6.56,118.49-26.85,33.8-84.91,34.58-123.18,44.35-4.68,1.19-3.45,8,1.11,8.22,38.17,1.93,90-7.27,120.43-32.65C1104,300.55,1092.54,261.07,1080.12,219.58Z"/><path class="cls-4" d="M866.82,79.86c-57.33,6.88-116.53-29.11-168.35,9.47-36,26.81-43.48,80-57.53,119.71-13.67,38.59-20.86,69.86,9.08,102,19.27,20.65,44.43,37.44,66.83,54.5,26.64,20.28,53.36,37.74,86.36,44.47,3.34.69,5.85-4.17,2.44-5.83-49.68-24.23-93.14-57.71-136.26-92-39.66-31.55-29.85-64.72-15.2-107C668.49,163.92,675,116,714.6,90.85c44.49-28.26,103.73,5.83,152.35-10C867.45,80.66,867.39,79.79,866.82,79.86Z"/><path class="cls-4" d="M892.31,220c-13.7,41.81-6.32,94.42-55.86,110.89-15.23,5.07-26.58,1.39-41-1.71-5.14-1.09-14.92-.76-18.9,3.27-5.93,6-8,12.59-10.3,20.66-9.64,33.38-48.16-2.95-60.05-11.69-1.95-1.44-4.73,1.4-3.33,3.37,14.16,20.06,33.92,44.66,61.43,30.89,10.14-5.08,12.55-14.1,15.53-24.53,3.6-12.58,41.71-4.1,53.14-6.52,62.53-13.16,51.93-74.67,61.25-124.11A1,1,0,0,0,892.31,220Z"/><path class="cls-4" d="M1004.86,351c-33.75,5-66.61,24.49-98.64,35.77-19.3,6.8-39.2,12.05-59.53,14.38-18.71,2.16-34.63-4.87-52.54-5.57-4.29-.16-5.81,5.1-3.28,8,21.19,24.13,72.33,10.19,98.19,3,39.26-10.9,83.77-27.72,117.87-50.64C1009.59,354.14,1007.81,350.53,1004.86,351Z"/><path class="cls-1" d="M169.63,87.9s47.49-36.84,76.71-51.58,91.7-40,135.37-29.6S448.5,40.4,487,71.49s79.63,49.23,92.48,54.41,25.69,93.28,12.84,111.42c0,23.32-20.56,98.45-64.22,124.37S438.22,385,392,379.82s-79.63-12.95-102.75-23.32c-30.83,23.32-61.65,46.64-97.61,51.82s-64.23-28.5-102.76-33.68-51.37-5.18-59.08-12.95-12.84-2.59-12.84-49.23S-6.7,240.88,18,209.31,50.85,186,50.85,186c-8.23-29-.52-57.54,17.46-70.49S170.77,75.81,169.63,87.9Z"/><path class="cls-2" d="M491.58,77.61c-.1-.35-.2-.7-.31-1-9.57-31.29-63-50.5-89.68-60.29-48.7-17.9-95.8-10-141,14.14C224.54,49.68,194.16,80.24,153,87.83c-20.09,3.7-40.82,4.25-59.61,13.21-20.06,9.57-52,40.41-49.45,58.54,6.87-10.2,62.14-7.29,69.36,0-12.85,0-23.12,2.6-35,8.27-11,5.24-20.71,12.92-31,19.43C24.06,201.9,14.07,213.82,11.3,235.17c11.17,30,8.26,87.64,51.31,86.51,9.57-.25,23.91-6,33-.53,7.69,4.63,9.94,11.3,12.85,19.55,5.93,16.79,18,18.73,30.47,28.5.78.61,1.48,1.27,2.19,1.93-2-15.69-8.45-29.4-18-43.38-5.58-8.15-11.37-16.2-16.36-24.74-3.94-6.72-5.79-14.9-10.36-21.22-6.07-8.35-15.79,6-22.3,7.18-5,.93-11.08-1.11-15.36-3.56-10.09-5.77-19.4-14.71-21.86-26.36L35,257.62c-2.58-1.87-.1-6.24,2.5-4.34l0,0a2.66,2.66,0,0,1,3.78,2.15c0,.28.13.55.16.83,7.84,6,16.51,12.82,26.57,12.15,7.35-.49,15.41-1.61,20.63-7.36a12.71,12.71,0,0,1,3.53-3c10.63-5.65,30.89,23.52,34.08,30.7,5.82,13.17,9,25.33,20.58,34.63,6.33,5.07,11.49,10.52,13.08,18.81a53.59,53.59,0,0,1,.73,5.51,2.09,2.09,0,0,1,1.29,1.62c3.13,15.27,15.94,33.34,30.43,30.48,15.79-11.74,29-29.78,42.49-41.83,36.89-32.87,80.28-50.81,125-69.07,21.73-8.86,33-28.8,47.14-46.55,19.45-24.39,40.25-38.82,70.83-44.86,2-19.69,4.61-39.17,8.86-58.51C489.54,106,495.21,91,491.58,77.61Z"/><path class="cls-3" d="M284.45,220.62c-14.38-1.38-41.95,1.8-49-15.38-4.6-11.16-10-17.69-22.08-20.5-6.52-1.52-14.09.13-20.59.93-13.81,1.68-22.79-6.42-32.84-13.92-9.38-7-22.8-5.42-34.89-2.85-29.61-3.94-61.46,6.53-84.48,25.49C26.73,205.76,6.45,228.1,25.39,244.28c26.89,23,81.76-4.13,111-5.43,27-1.19,54.25,14.09,79.65,21.34,16.43,4.69,34.28,5.75,51.25,5.48,16-.25,53.56-2.88,56.47-24.82C326.2,222.37,296.08,221.74,284.45,220.62Z"/><path class="cls-3" d="M417,38.52c-22.52-32.84-70.32-41-103.08-19.94-17.37,4-34.56,11.42-50.4,18.27s-30.14,16.06-44,26c-6.11,2-12,4.54-17.24,8.63-9.7,7.56-18.32,16-28.74,22.66-10,6.41-21.6,8.57-32,14-1.28.68-2.52,1.39-3.78,2.08-9.76,3.41-19.66,6.53-29.46,9.84a72.44,72.44,0,0,1,32-19c5.41-1.55,4.54-10.65-1.37-10.15-33.86,2.85-87,20.44-96.19,58.19-1,4.1,3.7,8.72,7.62,5.9,4.79-3.45,10.71-5.21,16.84-6.35a4.86,4.86,0,0,0,4.15-.67l0,0c4.54-.66,9.07-1.11,13.24-1.75,14.76-2.28,27-8.07,39.79-15.69,10.8-6.46,22.05-11.36,33.22-16.59,2.86-1.16,5.71-2.36,8.52-3.63,21.21-9.58,39.08-24.58,57.65-38.46,10.36-3.88,22.18-5.72,32.11-10,18-7.78,33.11-20.27,51.87-26.95,10.75-3.83,25.92-5.69,41.73-5.66,6.38.58,12.75,1.5,19.12,2.56,10.12,2.73,20.43,6,31.58,8.92,3.88,2.14,8.11,3.1,13.58,3.37C416.48,44.24,418.56,40.81,417,38.52Z"/><path class="cls-3" d="M428.12,104.75a30.14,30.14,0,0,1-9.57-20.32,4.46,4.46,0,0,0-4.24-3.63c-23.21,1.73-40.73-23.34-65-23.09-12.07.13-24.32,5.15-35.94,8.16-15.73,4.09-31.47.31-47.07,5-8.67,2.64-16.67,8.87-24.45,13.63-10.78,6.57-22.52,8.78-33.39,14.39a58.78,58.78,0,0,0-22.17,20.47c-8.12,8.87-12.5,21.53-8.42,34.5,9.58,30.52,50.24,8.6,66.54,3.14,18.81-6.31,40.22,1.56,59.15,2.57,13.22.71,22.77-11.79,31.1-21.25,8.94-10.15,18.31-15.67,30-21,18.18-8.22,15.23,4.77,26.46,8.23,12.54,3.87,27.17-4.32,37-12.25C430.68,111.3,431.31,106.67,428.12,104.75Z"/><path class="cls-4" d="M591.25,127.59a5.85,5.85,0,0,0-4.17-5.53C531.9,104.89,493.25,68.85,449.71,32.9,423.77,11.49,398.06,1,364.53.07,267-2.58,197.83,70.67,117.08,113.42c-1.62.86-.49,3.68,1.25,3C219,77.77,332.22-45.95,441.56,41.12c23,18.33,43.36,39,67.71,55.78a310.89,310.89,0,0,0,43.67,24.53c12.67,6,26.22,5.84,28.32,21.84,4.16,31.8,25.74,60,5.79,91.26-16,25.06-47.1,36.69-60.38,64a2.36,2.36,0,0,0,3.67,2.86C556,281,587.83,259.23,603.07,229.26,618.9,198.13,592.66,159,591.25,127.59Z"/><path class="cls-4" d="M599.37,223.21a1.17,1.17,0,0,0-2.29-.31c-11.52,34.74-18.72,68-38.93,99.48-20.41,31.8-49.51,48.14-86,52.31-28.92,3.31-58.46,2.46-87.41.2-26.54-2.09-63.61-4.61-85.28-22.48-6.46-5.34-15.76,3.94-9.23,9.32,20.88,17.23,50.5,21,76.35,24.43,37.74,5,77.13,5.6,114.89.56C552,377.31,605.05,292.5,599.37,223.21Z"/><path class="cls-4" d="M347.27,272c-38.8,25-50.76,75.6-89.83,101.88-21.53,14.47-48.79,27.92-74.79,30.35-27.44,2.57-56.3-15.49-77.43-31.15-13-9.67-30.77-18.38-47.37-15.22C14.76,366,24.3,328.23,22.6,302.89c-1.17-17.44-6.44-34.62-9.46-51.78-5.44-31,13.55-49.42,37.71-65.08a5,5,0,0,0,2.24-5.57C31.46,112.3,123.23,98.93,168.77,84.1a1.17,1.17,0,0,0-.62-2.26C124.93,92,48.05,97.94,40.09,154.6a44.76,44.76,0,0,0,0,12.18c1.93,14.45-2,15.13-13.43,23.95A68.23,68.23,0,0,0,2.86,223.86c-10,30.27,9.43,67.43,8.49,98.31-.68,22.12,7.34,53.44,37,49,46-6.85,77.91,38.25,123.33,44.31C205.5,420,251.63,395.66,276,374.41c30.44-26.59,52.15-65.77,74.83-98.9C352.26,273.36,349.39,270.61,347.27,272Z"/><path class="cls-4" d="M484.68,121.28a.23.23,0,0,0-.45-.12,128,128,0,0,0-7.05,30.5c-.94,7.71,3.17,23.89-6.36,23.9-15,0-29.36,11.14-40.53,19.76-25.4,19.6-57.63,49.9-67.49,81.63a1.64,1.64,0,0,0,2.73,1.6c15.16-16.55,27.67-35.2,42.75-51.88,16.57-18.32,42.92-47.25,69.85-45.56a2.52,2.52,0,0,0,2.5-2.52C479.91,159.13,479.18,140.2,484.68,121.28Z"/><path class="cls-4" d="M155.15,114.65c-3.2,12.65-6.55,47.94-23.61,43.69-14-3.49-29.93.06-43.57,3.6-24.63,6.37-59.22,21.8-73.2,44.14-1.37,2.2,1.23,4.09,3.19,3.23,16.24-7.14,30.16-20,46-28.32,24.33-12.78,51.37-18.74,78.22-11.65a3.64,3.64,0,0,0,4.43-2.54c5.07-17,7.43-34.27,9.85-51.77C156.62,114.16,155.37,113.74,155.15,114.65Z"/><path class="cls-4" d="M110.34,297c-2.69-6.21-12.12-23.81-21.66-19.94-5.83,2.37-9.87,5.79-14.93,9.62C62.34,295.28,38,259,36.42,254.89c-.32-.83-1.62-.51-1.35.38,4.12,13.54,24.09,44,41.51,36.25,2.45-1.55,4.86-3.14,7.26-4.79q17.3,3.61,21.35,17.94c2.74,7,7.68,11.81,12.71,17.18,8.23,8.77,15.75,18.09,20.25,29.38,3.78,9.5,1.48,21.27,2.7,31.33.25,2.16,3.1,3.44,4.35,1.19C166,346.15,123,326.24,110.34,297Z"/><path class="cls-4" d="M322.3,257.82c-27.32,5.07-50,11.74-78.4,9.05-27.43-2.59-54.28-9.9-81.76-12.73-1.07-.12-1.23,1.57-.25,1.84,45.62,12.91,122.34,48,164,8.14C328.85,261.33,325.75,257.18,322.3,257.82Z"/><path class="cls-4" d="M357.06,37.9c-24.13,9.49-49.13,4.06-73,12-22.91,7.62-40,23.4-65,25.76-1.18.11-1.22,1.92,0,1.88C241.27,77,259.1,67,279.26,58.65c26.46-10.88,54.93.64,80.68-13.86C363.56,42.75,361.07,36.33,357.06,37.9Z"/></g></g></svg>