<svg xmlns="http://www.w3.org/2000/svg" viewBox="0 0 873.07 377.53"><defs><style>.cls-1{fill:#a59b87;}.cls-2{fill:#bab4a5;}.cls-3{fill:#e3dbcb;}.cls-4{fill:#877758;}</style></defs><title>rocks-7</title><g id="Layer_2" data-name="Layer 2"><g id="Layer_1-2" data-name="Layer 1"><path class="cls-1" d="M635.48,301.65c-3.57,18.35,20.29,44,43.37,44S732.71,332,753,329.92s37.07,6.29,60.16,11.53,40.56,1,49-13.62,13.29-35.62,4.2-51.33-44.77-25.13-65.06-23-56,4.19-79,10.47S640.38,276.51,635.48,301.65Z"/><path class="cls-2" d="M640.38,292.21c-5.66,6.16-12.59,26.18,12.59,29.32s60.16-3.14,88.84-9.42,49,1.05,65.06,6.28,76.44-17.79,47.57-49.23c-15.38-16.76-56-15.71-76.94-15.71s-58.77,14.67-79.06,17.8S655.77,275.45,640.38,292.21Z"/><path class="cls-3" d="M663.47,279.64c-11.93,3.91-34.28,13.63-21.69,21s46.87,4.19,77-6.29,62.26-14.67,73.45-14.67,42-24.09-2.8-24.09-56,4.2-72,11.52S685.85,272.31,663.47,279.64Z"/><path class="cls-4" d="M871.74,284.47c-5-21.56-27.41-26.68-40-29-38.42-7.19-78.49-3.19-117.26,7.44-10.66,2.1-21.38,5.19-31.89,7.37-15,3.12-31.51,6.62-44.32,19.77-15,15.38.56,35.78,10.72,44.14,23.11,19,50.9,15.15,75.66,6.43,22.14-7.81,39.57-15,62.24-4.24,17.36,8.22,33.37,13.45,51.69,11C857.22,344.78,878.65,314.07,871.74,284.47Zm-38.29,56.95c-28.56,3.78-53.49-21.9-82.12-17.82-12.73,1.81-24.77,9.63-37.26,13.28-13.28,3.89-28.72,5.79-42.11,2.08-9-2.48-17.57-8-25.29-15.07a36.19,36.19,0,0,1-8.88-12.7c-5.37-12.63,9.32-20.91,14.51-23.9,22.16-12.76,48.52-7.59,70.63-19.45,25.43-5.44,51-9.41,76.92-9.18,17.45.15,35.48,1.58,52.12,9.95,9,4.52,16,12.34,16.83,27.26C870.23,322.79,848.1,339.48,833.45,341.42Z"/><path class="cls-1" d="M451.77,98.46c7.81,14.54,27.58,20.86,58.12,29.81s66,9.93,96.54,4,60.09-15.9,70-31.8,19.7-34.78,9.85-57.63S630.08,4.06,585.75,4.06,496.11,14,479.36,28.9,439,74.61,451.77,98.46Z"/><path class="cls-2" d="M502,16c-19.7,8-40.4,25.84-49.26,49.69s7.86,39.62,80.79,38.75c83.73-1,174.36-40.74,139.89-75.52S550.29,2.07,502,16"/><path class="cls-3" d="M464.59,64.67c6.89,9.94,79.8,8.94,120.19-8S634,11,600.54,6.05s-85.71,4-107.38,15.89S457.69,54.74,464.59,64.67Z"/><path class="cls-4" d="M463,112.65c36.47,19.48,75.75,28.14,116.86,25,28.55-2.18,99.89-15.32,107.91-52.08a51.4,51.4,0,0,0,4-35.22c-6.26-27.15-41.45-39.26-64.7-44.18-30.75-6.51-63.68-3.88-94.5.67-32.51,4.8-61.11,17.57-77.49,47.29C443.26,75.57,439,99.88,463,112.65Zm-3.35-55.86C482,10.43,545.6,7.69,590.19,7.91c25.4.11,51,4.41,73.31,17.14,32.88,18.83,31.83,62.76-2.61,79-3.06,1.44-.4,6,2.64,4.57a56.34,56.34,0,0,0,6.86-3.88c-19.1,14.55-49.88,21.63-67.84,25.17A199,199,0,0,1,505.73,125c-13.74-4.15-27.05-10.9-40.12-16.89C443.05,97.75,451.3,74,459.61,56.79Z"/><path class="cls-1" d="M572.19,268.44c-7.24-22.92-11.37-49-76.46-66.69-11.37-11.47-31-31.27-47.54-57.33s-28.92-41.68-78.52-17.71c-7.24-11.47-20.67-34.4-43.4-34.4-11.13,0-24.95,4.86-39.84,13.54a7.22,7.22,0,0,1-5,5.78c-7.73,2.65-14.29,7.67-20.23,13.2a7.32,7.32,0,0,1-4.09,2c-1.45,1.22-2.9,2.46-4.35,3.74a177.45,177.45,0,0,1-19.41,18.11,7.42,7.42,0,0,1-5.34,1.8c-18,10.77-30.23,8.73-41.25,12.7-6.14,2.21-12.82,7.42-20.3,13.71-.77,1-1.53,2.06-2.34,3.05a6,6,0,0,1-3.71,2.09c-8.69,7.39-18.39,15.5-29.44,21.8-14.48,6.25-32,10.42-40.31,15.63s-48.57,24-47.53,67.75,19.63,64.61,47.53,70.86,86.8-6.25,123-16.67c38.23,4.17,39.26,10.42,72.32,12.51s75.43-1,119.86,7.3,87.83,17.71,104.37,9.37,30-20.84,38.23-37.51C567,310.14,579.43,291.37,572.19,268.44Z"/><path class="cls-2" d="M456,158.21c-4.61-16.41-12.76-32.88-27.77-41.8-14.68-8.72-39.42-1.66-53.76,4.29a5.26,5.26,0,0,0-3,3.07c-1.47-.54-3.55.69-2.83,2.45,6.21,14.89,16.07,26.68,31.5,32.53,17.78,6.75,35.78,16.17,53.6,5.06A5,5,0,0,0,456,158.21Z"/><path class="cls-2" d="M485.7,204.23a55.17,55.17,0,0,0-6.38-2.25c-21.56-6.09-39.3.61-59.33-15-22.68-17.7-41.55-45.08-54-70.8-15.47-32-50.45-26.3-79.5-12.84a7.48,7.48,0,0,1-5.06,8.3c-7.73,2.65-14.29,7.67-20.23,13.2a7,7,0,0,1-5.3,2c-6.53,8.19-14.59,15.19-22.55,21.82a7.48,7.48,0,0,1-7.81,1.23c-9.89,4.82-21.67,7.2-31.27,10.32-16.32,5.31-29.13,14.5-33.54,31.69-4,15.59-7.94,44.34,0,59.79,12.3,24,9.47,44.24,32.23,61.89,3.36,2.6,7.61-1,7.78-4.51.92-17.08-14.47-34.25-5.16-51.18a12.7,12.7,0,0,0,1.66-4.15,4.81,4.81,0,0,0,1.93,2.72c7.22,6,14.59,11.68,22.12,17.27,12.68,9.42,41.42,31.69,58.15,16.27,13.15-12.12-.54-23.06-8.73-34.29-5.34-7.32,5.31-1.14,7.66-.34,8.35,2.85,18,3.45,26.66,5.21,21,4.27,29.46,24.55,46.25,34.87,31.63,19.44,52.79-14.4,84.26-16.86,25.76-2,65.83,15,86.77-9.9C541.79,245.55,512.81,206.34,485.7,204.23Z"/><path class="cls-2" d="M184.43,229c-3-9.2-4.84-16.79-4.29-26.71.25-4.45-5.59-12.41-3.89-16.17,2.78-6.23-2.13-11.93-7.15-12.43-.52.61-1.43,1.7-1,1.13-1.3,1.73-2.6,3.47-4,5.16a6.12,6.12,0,0,1-4.61,2.15,74.46,74.46,0,0,0-10.89,9.44c-11.91,11.91-18.41,17.56-34.94,21.17-20.59,4.5-42,18-57.21,32.57-13.14,12.57-32.75,72.88-3.4,79.51,9.1,2.06,18-19.79,22.24-24.82-1.25,1.51,6.31,14.39,6.83,15.16,2.9,4.3,9.42,9.13,14.87,9.15,7.09,0,13.87-.41,19.13-6,9.91-10.53,9.71-10.64,25.63-10.09,5.43.2,12.59.22,15.89-5.41s5.83-34.29,15.31-32.49c4.2.8,7.35-1.15,8.9-5.1C185.91,254.9,188,239.69,184.43,229Z"/><path class="cls-3" d="M303.06,96.24a90,90,0,0,0-16.6,6.84,7.49,7.49,0,0,1-5,8.55c-7.73,2.65-14.29,7.67-20.23,13.2a7,7,0,0,1-6.53,1.85c-3.25,3.2-6.36,6.48-9.18,9.84a7.19,7.19,0,0,1-3.63,6.25c-2.82,1.49-5.5,3.32-8.67,4-.22.05-.43,0-.65,0a21.67,21.67,0,0,0-4.26,7.68c-3.24,10.66-.41,23.15,11.74,26.77,14.37,4.3,26.11-2.11,38.21-9.62,21.13-13.11,47.18-29.81,60-51.86C351.81,96.43,317.88,91.94,303.06,96.24Z"/><path class="cls-3" d="M209.64,157.71c-13.67,2.88-25,6.27-36.78,14.2-7.83,5.3-16.84,10.75-21.88,19-2.11,3.46,1.91,6.62,5.09,5.14a147,147,0,0,0,23-13.48c10.15-7.23,22.32-12.52,33.27-18.46C216,162.16,213.37,156.93,209.64,157.71Z"/><path class="cls-3" d="M181,172.54c-6.95-2.1-13.31,3.9-18.41,7.88-6.7,5.24-13.17,11.14-17.75,18.36a.71.71,0,0,0,.6,1.06c7.06.15,13.29-4,18.69-8.31,3.79-3,7.25-6.38,11.17-9.27,2.75-2,5.31-4.09,6.68-7.31A1.69,1.69,0,0,0,181,172.54Z"/><path class="cls-3" d="M224.68,188c-5.22-4.48-12.42-1.85-18,.38-4.48,1.8-8.28,4.88-12.14,7.71-2.37,1.76-12.71-3-15.19-3a57.53,57.53,0,0,0-15.29,1.63c-3.12.65-5.21,4.86-8.68,4.13-6.37-1.33-10.71-1.7-16.22,2.9-17.94,15-44.43,8.26-59.77,27.42a10.23,10.23,0,0,0-1.83,3.58C66.3,243.71,50,253.94,49.78,271.05a5.36,5.36,0,0,0,5.28,5.32c12.45.34,23.39-4.17,36.16-3.22,5.86.42,12.45,0,16.6-5s11.88-21.95,20.41-13.34c4.11,4.14,12.73,7.58,18.2,3.77,7.66-5.35,11.15-11.86,16-19.88,4.77-7.82,20.32,8.14,27.34,5.69,5.89-2,10.39-4.17,12.76-10.5,4.78-12.69,15.1-4,22.1-11.14C234,213.25,235.08,196.94,224.68,188Z"/><path class="cls-3" d="M461.2,229.06c-7.38-5.66-15.86-7.59-25-8.69-14.63-1.74-30.6-8.71-45.51-6.07-17.66,3.12-32.42,3.72-50.13,3.14-5.14-.17-9.36,2.05-13.1,5.06a23.76,23.76,0,0,0-7.26,2.79c-9.36,4.81-24.59-7.16-32.6-10.22-12.15-4.62-21.06,2.13-26.86,12.59-.78,1.38.16,3.76,2,3.53,11.21-1.49,21.23-1.37,31.89,2.89,8.56,3.43,16.25,6.24,25.46,6.57,5.86.22,10.94-3.68,17.77-3.35,12.14.56,24.25,2.55,36.3,3.07,11.79.52,26.24-5.17,36.33,3,4.76,3.85,8.08,9.81,14.42,11.56,15.95,4.4,29.69.29,39.62-13C467.86,237.48,464.85,231.87,461.2,229.06Z"/><path class="cls-4" d="M215.5,337.81c-56.69,8.9-138.59,50.77-166-25.6-16.17-45,17.05-82.57,57.84-95,19.47-5.92,48.71-9.41,60.1-28.82.14-.23-.17-.45-.36-.29-14.81,13.16-37.43,15-55.8,19.7C93.87,212.28,80,218.38,66,229.72,37.9,252.56,29.61,289,43.88,322.24,76,397,159.43,356.17,218.09,347.3,224.28,346.36,221.67,336.85,215.5,337.81Z"/><path class="cls-4" d="M546.76,323c-10.23,15-16,28-33.91,35.37-15.45,6.34-33.26,5.64-49.55,4.52-31.14-2.13-61.51-10.76-92.5-14.16-32.36-3.57-65.25.94-97.76-2.37-46-4.68-73.62-28.09-96.37-67.09-.85-1.47-2.77-.42-2.55,1.08,14.37,94.81,129.28,76.69,196.68,82.43,40.2,3.42,78.79,16.83,119.55,14.42,29.48-1.74,62.63-19,66.8-51.36C557.94,319.8,549.55,319,546.76,323Z"/><path class="cls-4" d="M578.1,265.85c-6.31-31.3-27.52-54.93-57-65A102.6,102.6,0,0,0,499,196.21c-29.13-13.56-40.7-57.68-64.72-78.36-18-15.52-50.4-9.21-66.66,5.76-2.06,1.91-.34,5.07,2.13,5.21,16.07.87,29.52-10.57,46.1-7.84,17.35,2.84,29.9,26.22,38.37,39.78,7.43,11.88,16.41,26.14,28.27,34.61-3.17,0-6.32.06-9.41.2-15.45.71-30.76,1.91-45.12-5.42-10.15-5.18-17.6-16.37-26.55-23.35a.93.93,0,0,0-1.32,1.32c15.76,17.4,22.24,34.38,48.19,37,33.92,3.39,69.63-1.37,96.36,24.49,22.09,21.37,30.89,63,7.6,85.9-21,20.63-52.43,15.58-77.77,24.57a2.61,2.61,0,0,0,0,5c25.53,8.33,60.25-1.28,82.23-15.64S583,290.2,578.1,265.85Z"/><path class="cls-4" d="M399.83,157.1c-26.8-19.56-32.4-59.45-66.45-70.26-19.56-6.21-36.3,7.83-56.33,20.84-16.22,11.44-39.73,50.69-84.16,67.36-.87,1-1.69,2-2.58,3,15.57-8,31.49-14.59,44.58-26.19C258.38,131,304,87.47,338,102.11c25.95,11.17,32.68,46.7,59.5,59A2.34,2.34,0,0,0,399.83,157.1Z"/><path class="cls-4" d="M272.37,112.86c-10.5,6-18,13.76-26.27,22.52-17.47,18.43-36.76,18.35-58.66,26.37-30.71,11.24-44.7,47.43-80.17,50.4-1.48.12-1.5,2.45,0,2.34,29.42-2.19,48.41-27.28,70.82-43.68,16.13-11.81,38.72-7.37,54.08-18.46s24.69-28.15,40.66-38.68C273.33,113.34,272.88,112.56,272.37,112.86Z"/><path class="cls-1" d="M40.42,35.34C23,39.74,6.4,54.7,3.78,80.22s15.7,51.92,54.09,62.49,71.55,4.4,92.49-.88,53.22-22.88,60.2-46.65.88-46.64-18.31-65.12-44.5-29-69.8-27.28S69.22,12.46,40.42,35.34Z"/><path class="cls-2" d="M25.59,44.58C17.85,47.7,1.93,67,14.25,90.34c7,13.2,34.2,23.53,58.47,26.4,29.66,3.52,55.83,2.64,89-17.16,31.39-18.75,43.63-54.12,15.71-77.88S103.24,2.78,73.58,16,43.05,37.54,25.59,44.58Z"/><path class="cls-3" d="M141.4,20.28C131.14,7,111.15,5.57,96,7.28c-16.6,1.88-35.54,10.9-45.25,19.19a93.09,93.09,0,0,0-7.23,6.77c-8.32,5.15-13.92,16-16.18,24.74-4.13,16,8.2,31,22,36.76,16.69,7,39.34.12,55.62-5.13,14.6-4.71,31-13.67,39.75-26.78C154.29,48.5,151.59,33.43,141.4,20.28ZM35.22,69.75a36.94,36.94,0,0,0,8.33,8.59c.49.36,1,.71,1.5,1C40.63,77.39,37.06,74.31,35.22,69.75Z"/><path class="cls-4" d="M161.45,7.37C130.13-7,98.69,1.92,68.51,15.19A111.52,111.52,0,0,0,41.9,31.43c-20.46,5.15-37,19.07-41.1,41-3.32,18,4,36.76,16,49.83,24.2,26.35,66.47,31,99.87,28.22s71.31-15,90.81-44.2C234.41,66,197.39,23.9,161.45,7.37ZM111.9,144.46C76.75,146.83,29.81,139,12.11,104-.63,78.81,10.18,54.3,31.46,42.65,24.36,52.89,22.39,65,31.55,78a.92.92,0,0,0,1.59-.94C25.06,61.79,29.46,49.16,39.75,39c1.55-2.76,13-10,14.5-10.92C73.68,16.47,99.53,9.51,113.83,6.63c44.45-9,110.5,34.75,94,85.38C195.65,129.36,145.93,142.18,111.9,144.46Z"/><path class="cls-4" d="M52.57,21.58a13.38,13.38,0,0,1-1.31,1.16,4.38,4.38,0,0,1,1.6-.67C53.32,22,52.9,21.21,52.57,21.58Z"/><path class="cls-4" d="M42.76,30.09c-.29.19,0,.67.27.47A25.79,25.79,0,0,0,47,27c.67-.72,1.44-1.66,2.27-2.54-.42.35-.87.68-1.25,1A34.7,34.7,0,0,1,42.76,30.09Z"/><path class="cls-4" d="M49.3,24.42c.67-.54,1.3-1.13,2-1.68A11.28,11.28,0,0,0,49.3,24.42Z"/><path class="cls-1" d="M730.35,140.35c-29,7.32-86.39,24.54-84.71,38.2s39.23,13.66,64.94,13.66,53.39-2,79.1,0,44.34-7.41,49.43-16c5.93-10,5.94-14-19.76-23.94S746.18,136.36,730.35,140.35Z"/><path class="cls-2" d="M666.09,158.29c-13.83,6-25.72,18,0,18s75.15,0,110.74-6S822.46,154,803.6,148.18s-56.44-13.81-82.13-7.83-43.51,12-55.38,17.94"/><path class="cls-3" d="M689.73,152.15c-26,9.51-4.72,16.65,25.94,14.28s75.46-23.8,44.8-26.17-47.17,0-70.74,11.89"/><path class="cls-4" d="M840.63,160c-13-14-40.29-17-57.77-20.08a134.68,134.68,0,0,0-14.63-1.69c-38-8.19-84.34,4-114.81,23-10.47,6.5-18.87,17.88-5.78,26.4,12.38,8,31.7,8.16,45.89,8.78,20.3.89,40.8-1.48,61-2.93,24.5-1.75,49.14,4.47,73-4.17C839.87,184.78,851.53,171.72,840.63,160Zm-21.46,25.08c-18.76,5.33-39.82,1.91-59,1.52-24.19-.51-48.19,3.67-72.48,2.54-3.72-.18-41.74-2.52-40.08-12.57,1.18-7,15-12.53,20.42-15.26,15.35-7.65,31.5-11.8,48.25-14.81l1.59-.28c16.27-2.46,32.5-5.09,48.89-2.83,8.6,1.19,17.18,2.78,25.68,4.67,1.72.74,3.42,1.52,5.07,2.41a.15.15,0,1,0,.15-.27c-.78-.51-1.6-1-2.41-1.48,5.31,1.24,10.57,2.56,15.78,4.07a86.27,86.27,0,0,1,22,9.34C848.22,171.59,828.49,182.4,819.17,185.06Z"/></g></g></svg>