<svg xmlns="http://www.w3.org/2000/svg" viewBox="0 0 851.73 368.96"><defs><style>.cls-1{fill:#a59b87;}.cls-2{fill:#bab4a5;}.cls-3{fill:#e3dbcb;}.cls-4{fill:#877758;}</style></defs><title>rocks-5</title><g id="Layer_2" data-name="Layer 2"><g id="Layer_1-2" data-name="Layer 1"><path class="cls-1" d="M842.6,214.52c-8.55-26.85-13.43-57.38-90.35-78.13C738.82,123,715.62,99.76,696.09,69.23S661.91,20.4,603.31,48.48C594.76,35,578.88,8.19,552,8.19c-13.15,0-29.48,5.68-47.07,15.86a8.49,8.49,0,0,1-5.88,6.77c-9.13,3.11-16.89,9-23.9,15.46a8.66,8.66,0,0,1-4.84,2.34c-1.71,1.44-3.43,2.89-5.14,4.38-6.95,7.77-15,14.65-22.93,21.22a8.76,8.76,0,0,1-6.31,2.1c-21.26,12.62-35.72,10.23-48.74,14.89-7.25,2.59-15.15,8.69-24,16.06-.92,1.2-1.82,2.41-2.77,3.57a7,7,0,0,1-4.38,2.44c-10.27,8.67-21.73,18.16-34.8,25.54-17.1,7.33-37.85,12.21-47.62,18.31s-57.39,28.09-56.17,79.37,23.2,75.69,56.17,83S376.22,312.19,419,300c45.18,4.89,46.4,12.21,85.46,14.65s89.12-1.21,141.63,8.56,103.77,20.75,123.31,11,35.41-24.41,45.17-43.95C836.5,263.36,851.16,241.38,842.6,214.52Z"/><path class="cls-2" d="M705.35,85.39c-5.45-19.23-15.08-38.52-32.81-49-17.35-10.21-46.58-1.94-63.52,5a6.21,6.21,0,0,0-3.55,3.6c-1.74-.64-4.2.8-3.34,2.87,7.34,17.44,19,31.25,37.21,38.1,21,7.91,42.28,18.95,63.34,5.93A5.88,5.88,0,0,0,705.35,85.39Z"/><path class="cls-2" d="M740.4,139.29a67.44,67.44,0,0,0-7.53-2.63c-25.48-7.13-46.44.71-70.11-17.58C636,98.34,613.67,66.26,599,36.14,580.7-1.38,539.37,5.33,505,21.09a8.75,8.75,0,0,1-6,9.73c-9.13,3.11-16.89,9-23.9,15.46a8.41,8.41,0,0,1-6.27,2.38c-7.71,9.59-17.24,17.79-26.64,25.56A8.9,8.9,0,0,1,433,75.66c-11.68,5.65-25.59,8.44-36.94,12.09-19.28,6.22-34.42,17-39.63,37.12-4.73,18.27-9.38,51.95-.05,70,14.54,28.16,11.19,51.82,38.08,72.49,4,3,9-1.18,9.2-5.28,1.08-20-17.1-40.11-6.1-59.95a14.49,14.49,0,0,0,2-4.87c.07.52.49,1.71,2.29,3.19,8.53,7,17.23,13.68,26.13,20.24,15,11,48.94,37.12,68.71,19,15.54-14.2-.64-27-10.31-40.17-6.31-8.57,6.27-1.33,9-.39,9.88,3.34,21.3,4,31.5,6.1,24.78,5,34.81,28.76,54.66,40.85,37.36,22.77,62.37-16.87,99.56-19.75,30.43-2.36,77.78,17.54,102.52-11.6C806.68,187.7,772.44,141.76,740.4,139.29Z"/><path class="cls-2" d="M384.43,168.27c-3.59-10.78-5.71-19.68-5.07-31.3.3-5.2-6.6-14.54-4.6-18.94,3.29-7.3-2.51-14-8.45-14.56-.61.72-1.68,2-1.17,1.32-1.53,2-3.06,4.08-4.68,6a7.24,7.24,0,0,1-5.46,2.52,88.11,88.11,0,0,0-12.86,11c-14.08,14-21.75,20.58-41.28,24.81-24.33,5.27-49.62,21.11-67.6,38.15-15.53,14.72-38.7,85.37-4,93.14,10.75,2.42,21.32-23.18,26.27-29.07-1.48,1.77,7.45,16.85,8.07,17.76,3.43,5,11.13,10.69,17.57,10.72,8.38,0,16.39-.48,22.61-7,11.7-12.34,11.47-12.46,30.27-11.82,6.43.23,14.88.25,18.78-6.34s6.9-40.17,18.09-38.06c5,.94,8.69-1.35,10.52-6C386.18,198.66,388.61,180.83,384.43,168.27Z"/><path class="cls-3" d="M524.6,12.79a107.7,107.7,0,0,0-19.62,8,8.76,8.76,0,0,1-5.91,10c-9.13,3.11-16.89,9-23.9,15.46a8.32,8.32,0,0,1-7.72,2.17C463.61,52.2,459.93,56,456.6,60a8.39,8.39,0,0,1-4.28,7.31C449,69,445.81,71.18,442.07,72a6.61,6.61,0,0,1-.77,0,25.54,25.54,0,0,0-5,9c-3.82,12.49-.47,27.11,13.87,31.36,17,5,30.86-2.47,45.16-11.28,25-15.35,55.74-34.92,70.88-60.75C582.2,13,542.11,7.75,524.6,12.79Z"/><path class="cls-3" d="M414.22,84.8c-16.16,3.37-29.6,7.34-43.46,16.64-9.26,6.2-19.89,12.58-25.86,22.28-2.49,4,2.27,7.75,6,6A173.79,173.79,0,0,0,378.07,114c12-8.48,26.37-14.67,39.32-21.63C421.68,90,418.62,83.88,414.22,84.8Z"/><path class="cls-3" d="M380.42,102.18c-8.22-2.47-15.74,4.55-21.76,9.22-7.91,6.14-15.56,13-21,21.51a.83.83,0,0,0,.71,1.24c8.34.17,15.7-4.7,22.07-9.74,4.48-3.53,8.58-7.47,13.21-10.85,3.25-2.36,6.28-4.79,7.88-8.56A2,2,0,0,0,380.42,102.18Z"/><path class="cls-3" d="M432,120.3c-6.16-5.24-14.67-2.16-21.23.45-5.29,2.11-9.78,5.71-14.33,9-2.81,2.05-15-3.5-18-3.5a68.67,68.67,0,0,0-18.06,1.91c-3.69.77-6.16,5.69-10.26,4.84-7.53-1.55-12.65-2-19.17,3.39-21.19,17.52-52.49,9.69-70.62,32.12a12,12,0,0,0-2.16,4.21c-13.33,12.78-32.65,24.77-32.86,44.81a6.3,6.3,0,0,0,6.24,6.23c14.71.4,27.64-4.88,42.73-3.77,6.92.5,14.7,0,19.61-5.87,5.06-6.07,14-25.71,24.11-15.62,4.86,4.85,15.05,8.88,21.51,4.41,9.05-6.26,13.17-13.9,19-23.28,5.62-9.16,24,9.53,32.3,6.66,7-2.39,12.27-4.89,15.08-12.3C411.5,159.17,423.7,169.32,432,161,443,149.86,444.28,130.75,432,120.3Z"/><path class="cls-3" d="M711.46,168.38c-8.72-6.63-18.74-8.89-29.53-10.18-17.29-2-36.15-10.2-53.77-7.11-20.87,3.66-38.31,4.36-59.24,3.68-6.07-.19-11,2.4-15.47,5.93-2.7.45-4.85,1.36-8.59,3.27-11.05,5.64-29-8.39-38.51-12-14.36-5.41-24.88,2.5-31.75,14.75-.91,1.62.2,4.41,2.37,4.13,13.25-1.73,25.09-1.6,37.68,3.4,10.12,4,19.21,7.3,30.09,7.69,6.92.26,12.93-4.31,21-3.93,14.35.66,28.66,3,42.9,3.6,13.93.61,31-6.06,42.92,3.52,5.63,4.52,9.55,11.49,17,13.55,18.84,5.16,35.08.34,46.82-15.25C719.32,178.24,715.77,171.67,711.46,168.38Z"/><path class="cls-4" d="M421.14,295.78c-67,10.42-163.75,59.47-196.19-30-19.1-52.68,20.15-96.71,68.34-111.25,23-6.94,57.56-11,71-33.76a.27.27,0,0,0-.43-.33C346.38,135.86,319.66,138,298,143.51c-20.52,5.21-37,12.36-53.45,25.65-33.2,26.75-43,69.46-26.14,108.37,37.95,87.61,136.53,39.75,205.84,29.36C431.52,305.79,428.43,294.65,421.14,295.78Z"/><path class="cls-4" d="M812.56,278.48c-12.09,17.58-18.9,32.81-40.07,41.43-18.26,7.42-39.3,6.61-58.56,5.3-36.79-2.5-72.67-12.61-109.29-16.6-38.23-4.17-77.09,1.1-115.5-2.77-54.33-5.48-87-32.91-113.88-78.6-1-1.71-3.27-.49-3,1.27,17,111.06,152.75,89.84,232.39,96.56,47.5,4,93.1,19.72,141.26,16.9,34.84-2,74-22.3,78.93-60.17C825.76,274.68,815.85,273.7,812.56,278.48Z"/><path class="cls-4" d="M849.58,211.49c-7.45-36.68-32.51-64.36-67.34-76.15a121.31,121.31,0,0,0-26.16-5.44C721.67,114,708,62.33,679.62,38.1c-21.3-18.18-59.55-10.79-78.77,6.76-2.44,2.22-.41,5.93,2.52,6.09,19,1,34.88-12.38,54.46-9.18,20.5,3.33,35.33,30.71,45.34,46.61,8.79,13.91,19.39,30.61,33.41,40.54-3.75,0-7.47.06-11.12.23-18.26.83-36.35,2.23-53.32-6.35-12-6.06-20.79-19.17-31.36-27.36A1.1,1.1,0,0,0,639.22,97c18.61,20.39,26.27,40.28,56.94,43.32,40.08,4,82.26-1.6,113.85,28.7,26.1,25,36.5,73.8,9,100.61-24.79,24.18-61.94,18.27-91.89,28.8a3,3,0,0,0,0,5.82c30.17,9.76,71.2-1.51,97.16-18.32S855.36,240,849.58,211.49Z"/><path class="cls-4" d="M638.94,84.08c-31.66-22.91-38.28-69.64-78.51-82.3C537.31-5.5,517.54,11,493.87,26.19c-19.17,13.4-46.94,59.39-99.45,78.91-1,1.15-2,2.36-3,3.49,18.4-9.41,37.21-17.09,52.67-30.68,27.76-24.39,81.66-75.4,121.83-58.25,30.65,13.09,38.61,54.71,70.29,69.16A2.75,2.75,0,0,0,638.94,84.08Z"/><path class="cls-4" d="M488.34,32.26c-12.41,7-21.24,16.12-31,26.37-20.64,21.6-43.43,21.5-69.31,30.9-36.28,13.16-52.82,55.57-94.73,59-1.75.14-1.77,2.87,0,2.74,34.77-2.57,57.19-31.95,83.67-51.16,19.07-13.83,45.76-8.64,63.91-21.63s29.17-33,48-45.31A.55.55,0,0,0,488.34,32.26Z"/><path class="cls-1" d="M74.62,157C42.4,165,11.81,192.38,7,239.1s29,95,99.86,114.36,132.09,8.05,170.74-1.61S375.82,310,388.7,266.47s1.63-85.36-33.81-119.18S272.74,94.13,226,97.36,127.78,115.07,74.62,157Z"/><path class="cls-2" d="M47.24,173.87C33,179.58,3.55,215,26.31,257.61c12.88,24.17,63.12,43.07,107.92,48.33,54.76,6.44,103.07,4.83,164.28-31.4,58-34.33,80.55-99.07,29-142.55S190.59,97.36,135.83,121.53,79.46,161,47.24,173.87Z"/><path class="cls-3" d="M261,129.4c-18.94-24.23-55.84-26.93-83.74-23.8-30.66,3.44-65.62,20-83.54,35.13A170.6,170.6,0,0,0,80.4,153.11C65,162.54,54.7,182.38,50.53,198.4c-7.63,29.34,15.13,56.72,40.57,67.26,30.82,12.77,72.63.23,102.67-9.38,27-8.62,57.24-25,73.39-49C284.83,181,279.84,153.47,261,129.4ZM65,219.93A67.53,67.53,0,0,0,80.4,235.65c.91.67,1.83,1.31,2.77,1.9C75,233.91,68.41,228.27,65,219.93Z"/><path class="cls-4" d="M298.05,105.76c-57.84-26.38-115.87-10-171.57,14.31C110.6,127,92.35,137.15,77.35,149.8c-37.77,9.43-68.39,34.89-75.88,75-6.12,32.86,7.47,67.26,29.6,91.18,44.67,48.23,122.71,56.74,184.36,51.66,61.39-5.06,131.65-27.41,167.65-80.9C432.72,213.07,364.38,136,298.05,105.76ZM206.56,356.67C141.68,361,55,346.65,22.35,282.62c-23.52-46.1-3.56-91,35.73-112.28-13.1,18.73-16.75,40.8.15,64.75a1.71,1.71,0,0,0,2.94-1.73c-14.91-28-6.79-51.11,12.21-69.77,2.86-5,23.91-18.27,26.77-20,35.86-21.2,83.59-33.94,110-39.22C292.18,88,414.12,168,383.65,260.67,361.18,329,269.4,352.5,206.56,356.67Z"/><path class="cls-4" d="M97.05,131.77a23.68,23.68,0,0,1-2.42,2.12,8.35,8.35,0,0,1,2.94-1.23C98.42,132.5,97.66,131.09,97.05,131.77Z"/><path class="cls-4" d="M78.94,147.35c-.54.34,0,1.22.5.86a48.17,48.17,0,0,0,7.38-6.6c1.23-1.31,2.65-3,4.19-4.63-.78.62-1.6,1.23-2.3,1.91C85.59,141.94,82.63,145,78.94,147.35Z"/><path class="cls-4" d="M91,137c1.24-1,2.4-2.07,3.62-3.09A20.34,20.34,0,0,0,91,137Z"/><path class="cls-1" d="M393.5,261.76C344,274.12,246.24,303.24,249.1,326.31S316,349.39,359.8,349.39s91-3.38,134.83,0,75.57-12.51,84.25-27C589,305.57,589,298.83,545.19,282S420.48,255,393.5,261.76Z"/><path class="cls-2" d="M284,292.09c-23.58,10.11-43.84,30.33,0,30.33s128.1,0,188.76-10.1S550.5,284.89,518.35,275s-96.2-23.34-140-13.24S304.2,282,284,292.09"/><path class="cls-3" d="M324.26,281.71c-44.23,16.06-8.05,28.13,44.22,24.12s128.62-40.21,76.35-44.22-80.39,0-120.57,20.1"/><path class="cls-4" d="M581.47,294.93C559.37,271.34,512.8,266.16,483,261a229.24,229.24,0,0,0-24.94-2.85C393.29,244.3,314.3,265,262.37,297c-17.84,11-32.17,30.22-9.85,44.61,21.1,13.6,54,13.8,78.21,14.84,34.61,1.5,69.55-2.5,104-5,41.76-3,83.78,7.56,124.41-7C580.18,336.85,600.06,314.78,581.47,294.93Zm-36.58,42.38c-32,9-67.86,3.23-100.56,2.57-41.23-.85-82.14,6.21-123.54,4.29-6.34-.3-71.16-4.25-68.33-21.23,2-11.89,25.51-21.18,34.81-25.78,26.16-12.93,53.69-20,82.24-25,.88-.17,1.82-.33,2.72-.48,27.72-4.17,55.4-8.6,83.34-4.79,14.66,2,29.27,4.69,43.76,7.9,2.94,1.24,5.84,2.57,8.65,4.07a.26.26,0,0,0,.26-.46c-1.35-.86-2.73-1.68-4.11-2.49,9,2.08,18,4.31,26.9,6.86,13.07,3.76,25.89,8.6,37.48,15.79C594.41,314.55,560.78,332.83,544.89,337.31Z"/></g></g></svg>